<svg id="Layer_1" data-name="Layer 1" xmlns="http://www.w3.org/2000/svg" xmlns:xlink="http://www.w3.org/1999/xlink" viewBox="0 0 500 90"><defs><style>.cls-1{fill:none;}.cls-2{fill:#689f63;}.cls-3{fill:#f5f5f5;}.cls-4{clip-path:url(#clip-path);}.cls-5{fill:url(#linear-gradient);}.cls-6{clip-path:url(#clip-path-2);}.cls-7{fill:url(#linear-gradient-2);}.cls-8{clip-path:url(#clip-path-3);}.cls-9{fill:url(#linear-gradient-3);}.cls-10{fill:#61dafb;}.cls-11{fill:#e535ab;}.cls-12{fill:#efcca3;}.cls-13{fill:#ccac8d;}.cls-14{fill:#fff;}.cls-15{fill:#56332b;}.cls-16{fill:#442823;}.cls-17{fill:#7f4a41;}.cls-18{fill:#331712;}.cls-19{fill:#ff1e55;}</style><clipPath id="clip-path" transform="translate(0 -4.96)"><path class="cls-1" d="M442.7,35.13l-8.57,4.95a1,1,0,0,0-.52.89v9.9a1,1,0,0,0,.52.9l8.57,4.95a1,1,0,0,0,1,0l8.57-4.95a1,1,0,0,0,.51-.9V41a1,1,0,0,0-.52-.89l-8.57-4.95a1,1,0,0,0-1,0"/></clipPath><linearGradient id="linear-gradient" x1="-0.38" y1="102.33" x2="-0.13" y2="102.33" gradientTransform="matrix(-50.75, 103.54, 103.54, 50.75, -10164.83, -5121.12)" gradientUnits="userSpaceOnUse"><stop offset="0.3" stop-color="#3e863d"/><stop offset="0.5" stop-color="#55934f"/><stop offset="0.8" stop-color="#5aad45"/></linearGradient><clipPath id="clip-path-2" transform="translate(0 -4.96)"><path class="cls-1" d="M433.82,51.5a1,1,0,0,0,.31.27L441.48,56l1.22.7a1.08,1.08,0,0,0,.6.14l.21,0,9-16.55a.79.79,0,0,0-.25-.19l-5.61-3.24-3-1.71a1,1,0,0,0-.27-.11Z"/></clipPath><linearGradient id="linear-gradient-2" x1="2.37" y1="100.75" x2="2.53" y2="100.75" gradientTransform="matrix(142.41, -105.22, -105.22, -142.41, 10695.2, 14651.2)" gradientUnits="userSpaceOnUse"><stop offset="0.57" stop-color="#3e863d"/><stop offset="0.72" stop-color="#619857"/><stop offset="1" stop-color="#76ac64"/></linearGradient><clipPath id="clip-path-3" transform="translate(0 -4.96)"><path class="cls-1" d="M443.11,35a1,1,0,0,0-.41.13l-8.55,4.93,9.22,16.79a1,1,0,0,0,.37-.13l8.57-4.95a1.05,1.05,0,0,0,.5-.71L443.41,35l-.21,0h-.08"/></clipPath><linearGradient id="linear-gradient-3" x1="3.16" y1="101.84" x2="3.3" y2="101.84" gradientTransform="matrix(129.89, 0, 0, -129.89, 23.85, 13273.98)" gradientUnits="userSpaceOnUse"><stop offset="0.16" stop-color="#6bbf47"/><stop offset="0.38" stop-color="#79b461"/><stop offset="0.47" stop-color="#75ac64"/><stop offset="0.7" stop-color="#659e5a"/><stop offset="0.9" stop-color="#3e863d"/></linearGradient></defs><title>loadout</title><g id="Node_js"><path class="cls-2" d="M454.48,77.52a1.72,1.72,0,0,1-.85-.23l-2.71-1.61c-.41-.22-.21-.3-.08-.35a5.5,5.5,0,0,0,1.23-.56.23.23,0,0,1,.2,0L454.36,76a.28.28,0,0,0,.25,0l8.13-4.69a.26.26,0,0,0,.12-.22V61.73a.26.26,0,0,0-.12-.22l-8.13-4.69a.23.23,0,0,0-.25,0l-8.12,4.69a.25.25,0,0,0-.13.22v9.38a.27.27,0,0,0,.12.22l2.23,1.28c1.21.61,2-.11,2-.82V62.53a.23.23,0,0,1,.23-.23h1a.23.23,0,0,1,.24.23v9.26a2.26,2.26,0,0,1-2.41,2.54,3.46,3.46,0,0,1-1.87-.51l-2.14-1.23a1.72,1.72,0,0,1-.85-1.48V61.73a1.72,1.72,0,0,1,.85-1.48l8.14-4.7a1.79,1.79,0,0,1,1.71,0l8.13,4.7a1.72,1.72,0,0,1,.85,1.48v9.38a1.72,1.72,0,0,1-.85,1.48l-8.13,4.69a1.73,1.73,0,0,1-.86.23" transform="translate(0 -4.96)"/><path class="cls-2" d="M457,71.05c-3.55,0-4.3-1.63-4.3-3a.23.23,0,0,1,.24-.23H454a.23.23,0,0,1,.23.2c.16,1.07.63,1.61,2.78,1.61,1.71,0,2.44-.39,2.44-1.3,0-.52-.21-.91-2.87-1.17-2.22-.22-3.6-.71-3.6-2.49s1.39-2.62,3.7-2.62c2.61,0,3.89.91,4.06,2.85a.26.26,0,0,1-.07.18.24.24,0,0,1-.17.07h-1.05a.23.23,0,0,1-.23-.18c-.26-1.13-.87-1.49-2.54-1.49-1.87,0-2.09.66-2.09,1.14s.26.77,2.78,1.1,3.69.8,3.69,2.56-1.48,2.78-4.06,2.78m9.9-9.94h.27a.24.24,0,0,0,.27-.25c0-.24-.16-.24-.25-.24h-.29Zm-.33-.77h.6c.21,0,.62,0,.62.46a.41.41,0,0,1-.33.43c.24,0,.26.18.29.4a1.57,1.57,0,0,0,.09.47h-.37c0-.09-.07-.53-.07-.56a.16.16,0,0,0-.18-.15h-.31v.71h-.34Zm-.73.87a1.32,1.32,0,1,0,1.31-1.31,1.32,1.32,0,0,0-1.31,1.31m2.88,0a1.57,1.57,0,1,1-1.56-1.57,1.56,1.56,0,0,1,1.56,1.57" transform="translate(0 -4.96)"/><path class="cls-3" d="M429.31,40.82a1,1,0,0,0-.52-.91L420.18,35a1,1,0,0,0-.48-.14h-.09a1,1,0,0,0-.47.14l-8.62,4.95a1.05,1.05,0,0,0-.52.91l0,13.35a.49.49,0,0,0,.26.45.47.47,0,0,0,.51,0l5.13-2.93a1,1,0,0,0,.52-.9V44.55a1,1,0,0,1,.52-.9l2.18-1.26a1,1,0,0,1,1,0l2.18,1.26a1,1,0,0,1,.52.9v6.24a1,1,0,0,0,.52.9l5.12,2.93a.49.49,0,0,0,.52,0,.51.51,0,0,0,.26-.45Zm40.67,7a.28.28,0,0,1-.13.23l-3,1.7a.24.24,0,0,1-.26,0l-3-1.7a.28.28,0,0,1-.13-.23V44.35a.26.26,0,0,1,.13-.22l2.95-1.71a.26.26,0,0,1,.27,0l3,1.71a.26.26,0,0,1,.13.22Zm.8-25.31a.53.53,0,0,0-.78.46V36.14a.36.36,0,0,1-.54.32l-2.16-1.25a1.07,1.07,0,0,0-1,0l-8.62,5a1,1,0,0,0-.52.9V51a1,1,0,0,0,.52.9l8.62,5a1.07,1.07,0,0,0,1,0l8.62-5a1,1,0,0,0,.52-.9V26.23a1.08,1.08,0,0,0-.53-.91Zm28.7,21.8a1,1,0,0,0,.52-.9V41a1,1,0,0,0-.52-.9l-8.56-5a1,1,0,0,0-1.05,0l-8.62,5a1.05,1.05,0,0,0-.52.91V50.9a1.06,1.06,0,0,0,.53.91l8.56,4.88a1.06,1.06,0,0,0,1,0L496,53.82a.51.51,0,0,0,.27-.45.53.53,0,0,0-.26-.46l-8.67-5a.53.53,0,0,1-.27-.45V44.37a.54.54,0,0,1,.26-.46l2.7-1.55a.49.49,0,0,1,.52,0l2.7,1.55a.54.54,0,0,1,.26.45v2.46a.52.52,0,0,0,.26.45.53.53,0,0,0,.52,0Z" transform="translate(0 -4.96)"/><path class="cls-2" d="M490.27,43.8a.18.18,0,0,1,.2,0l1.65,1a.21.21,0,0,1,.1.18v1.91a.21.21,0,0,1-.1.17l-1.65,1a.18.18,0,0,1-.2,0l-1.65-1a.2.2,0,0,1-.11-.17V44.93a.21.21,0,0,1,.1-.18Z" transform="translate(0 -4.96)"/><g class="cls-4"><path class="cls-5" d="M461.48,39.24,437.33,27.4,425,52.66,449.1,64.5Z" transform="translate(0 -4.96)"/></g><g class="cls-6"><path class="cls-7" d="M423.38,42.74l17.05,23.08L463,49.16,445.93,26.08Z" transform="translate(0 -4.96)"/></g><g class="cls-8"><path class="cls-9" d="M434.15,35V56.85h18.66V35Z" transform="translate(0 -4.96)"/></g></g><g id="React_js"><path class="cls-10" d="M400,50c0-6.63-8.3-12.91-21-16.8,2.94-13,1.64-23.28-4.11-26.58a9,9,0,0,0-4.57-1.14V10a4.83,4.83,0,0,1,2.33.53c2.77,1.59,4,7.65,3,15.43-.22,1.92-.59,3.94-1,6a98.35,98.35,0,0,0-12.94-2.22,99.28,99.28,0,0,0-8.48-10.2c6.65-6.17,12.88-9.56,17.12-9.56V5.43h0c-5.6,0-12.94,4-20.36,10.92C342.54,9.46,335.2,5.51,329.6,5.51v4.55c4.22,0,10.47,3.36,17.12,9.49a95,95,0,0,0-8.42,10.18,94.84,94.84,0,0,0-13,2.24c-.47-2-.82-4-1.06-5.91-1-7.79.22-13.84,3-15.45a4.52,4.52,0,0,1,2.35-.53V5.53h0A9.14,9.14,0,0,0,325,6.67c-5.73,3.3-7,13.6-4.06,26.52C308.26,37.1,300,43.36,300,50s8.3,12.9,21,16.79c-2.94,13-1.64,23.28,4.11,26.58a8.94,8.94,0,0,0,4.59,1.14c5.6,0,12.94-4,20.36-10.92,7.42,6.89,14.76,10.84,20.36,10.84a9.11,9.11,0,0,0,4.61-1.14c5.73-3.3,7-13.6,4.06-26.52C391.74,62.85,400,56.57,400,50Zm-26.54-13.6c-.75,2.63-1.69,5.34-2.75,8.05-.84-1.63-1.71-3.26-2.67-4.89s-1.94-3.22-2.94-4.77C368,35.19,370.79,35.72,373.46,36.37Zm-9.33,21.71c-1.59,2.75-3.22,5.36-4.92,7.79-3,.26-6.11.4-9.21.4s-6.16-.14-9.17-.38c-1.69-2.43-3.35-5-4.94-7.75s-2.95-5.38-4.23-8.11c1.26-2.73,2.69-5.47,4.21-8.14s3.22-5.36,4.92-7.78c3-.27,6.11-.41,9.21-.41s6.16.14,9.17.39c1.69,2.42,3.35,5,4.94,7.74s2.95,5.38,4.23,8.12C367.06,52.68,365.65,55.41,364.13,58.08Zm6.58-2.65c1.1,2.73,2,5.46,2.81,8.11-2.67.65-5.48,1.2-8.4,1.63,1-1.57,2-3.18,2.94-4.83S369.87,57.06,370.71,55.43ZM350,77.18c-1.89-2-3.79-4.14-5.67-6.52,1.84.08,3.71.14,5.61.14s3.81,0,5.67-.14A81.06,81.06,0,0,1,350,77.18Zm-15.16-12c-2.9-.43-5.69-1-8.36-1.61.75-2.63,1.69-5.34,2.75-8.05.84,1.63,1.71,3.26,2.67,4.89S333.88,63.62,334.88,65.17Zm15.06-42.42a86.11,86.11,0,0,1,5.67,6.53c-1.84-.08-3.71-.15-5.61-.15s-3.81.05-5.67.15A79.55,79.55,0,0,1,349.94,22.75Zm-15.08,12c-1,1.57-2,3.18-2.94,4.83s-1.81,3.26-2.65,4.89c-1.1-2.73-2-5.46-2.81-8.11C329.13,35.74,331.94,35.19,334.86,34.76ZM316.41,60.28c-7.22-3.08-11.88-7.11-11.88-10.31s4.66-7.26,11.88-10.32c1.75-.75,3.67-1.42,5.64-2.06A99.89,99.89,0,0,0,326.64,50a96.74,96.74,0,0,0-4.52,12.35C320.1,61.73,318.18,61,316.41,60.28Zm11,29.13c-2.77-1.59-4-7.65-3-15.43a60.3,60.3,0,0,1,1-6,100,100,0,0,0,12.94,2.22A100.2,100.2,0,0,0,346.8,80.4C340.15,86.57,333.92,90,329.68,90A5,5,0,0,1,327.37,89.41Zm48.35-15.53c1,7.78-.22,13.84-3,15.45a4.62,4.62,0,0,1-2.35.53c-4.22,0-10.47-3.37-17.12-9.5a95.83,95.83,0,0,0,8.42-10.17,94.81,94.81,0,0,0,13-2.25A55.67,55.67,0,0,1,375.72,73.88Zm7.85-13.6c-1.75.75-3.67,1.43-5.65,2.06a98.09,98.09,0,0,0-4.58-12.41,96.85,96.85,0,0,0,4.52-12.36c2,.64,3.94,1.33,5.73,2.08,7.22,3.08,11.88,7.12,11.88,10.32S390.79,57.22,383.57,60.28Z" transform="translate(0 -4.96)"/><circle class="cls-10" cx="349.98" cy="45.01" r="9.32"/></g><g id="GraphQL"><polygon class="cls-11" points="217.28 68.59 213.98 66.69 250.74 2.94 254.04 4.84 217.28 68.59"/><rect class="cls-11" x="213.23" y="61.59" width="73.52" height="3.82"/><polygon class="cls-11" points="251.46 85 214.68 63.74 216.59 60.43 253.36 81.69 251.46 85"/><polygon class="cls-11" points="283.4 29.59 246.63 8.33 248.53 5.03 285.31 26.29 283.4 29.59"/><polygon class="cls-11" points="216.6 29.57 214.69 26.27 251.47 5.01 253.37 8.32 216.6 29.57"/><polygon class="cls-11" points="282.73 68.59 245.96 4.84 249.26 2.94 286.02 66.69 282.73 68.59"/><rect class="cls-11" x="216.14" y="23.74" width="3.81" height="42.52"/><rect class="cls-11" x="280.05" y="23.74" width="3.81" height="42.52"/><polygon class="cls-11" points="250.81 83.38 249.14 80.5 281.13 62.01 282.79 64.89 250.81 83.38"/><path class="cls-11" d="M288.91,72.46a8,8,0,1,1-2.94-11,8,8,0,0,1,2.94,11" transform="translate(0 -4.96)"/><path class="cls-11" d="M225,35.48a8,8,0,1,1-2.94-11,8,8,0,0,1,2.94,11" transform="translate(0 -4.96)"/><path class="cls-11" d="M211.09,72.46A8,8,0,1,1,222,75.4a8.06,8.06,0,0,1-10.95-2.94" transform="translate(0 -4.96)"/><path class="cls-11" d="M275,35.48A8,8,0,1,1,286,38.42,8.06,8.06,0,0,1,275,35.48" transform="translate(0 -4.96)"/><path class="cls-11" d="M250,95a8,8,0,1,1,8-8,8,8,0,0,1-8,8" transform="translate(0 -4.96)"/><path class="cls-11" d="M250,21a8,8,0,1,1,8-8,8,8,0,0,1-8,8" transform="translate(0 -4.96)"/></g><g id="Pug_Jade" data-name="Pug/Jade"><path class="cls-12" d="M183.68,38.4c-.16-3.44.31-6.48-1.25-9.06-3.75-6.4-13.11-10.14-31.84-10.14v.54h0V19.2c-18.74,0-28.57,3.74-32.32,10.22-1.48,2.65-1.32,5.62-1.56,9-.15,2.74-1.4,5.62-.86,8.75.63,4.05.86,8.11,1.49,11.86.46,3,4.68,5.62,5.07,8.51,1.09,8,9.37,11.63,28.1,11.63v.62h.08v-.62c18.73,0,26.69-3.67,27.7-11.63.39-3,4.3-5.47,4.76-8.51.63-3.75.86-7.81,1.49-11.86C185.08,44.09,183.83,41.13,183.68,38.4Z" transform="translate(0 -4.96)"/><path class="cls-13" d="M150.27,41.21c3.36.07,5.7,2.18,7.89,4.13,2.57,2.27,6.94,3.83,8.74,5.78s4.13,3.9,5,6.94a36.2,36.2,0,0,1,1.1,8c0,1,.54.78,2.1,0,3.67-1.8,7.73-6.64,7.73-6.64-.47,3-4.45,5.78-4.84,8.67-.94,8-8.66,11.78-27.78,11.78h.39" transform="translate(0 -4.96)"/><path class="cls-13" d="M162.6,35.12c.71,2.42,3.21,10.61-1.63,7.88,0,0,2,1.17,3.27,5.62s4.53,5,4.53,5,5.23,1,9.13-2.35c3.28-2.81,3.83-7.8,2.42-11.62s-3.9-4.92-7.57-5.7S161.75,32.39,162.6,35.12Z" transform="translate(0 -4.96)"/><circle cx="171.89" cy="39.06" r="6.87"/><circle class="cls-14" cx="170.1" cy="36.02" r="1.8"/><path class="cls-12" d="M161.43,43.7s6.17,4.22,9.53,8.35S174.23,57,174.23,57l-2.42,1.09s-3.43-6.47-7.64-8.89-4.77-4.45-4.77-4.45Z" transform="translate(0 -4.96)"/><path class="cls-13" d="M150.51,41.21c-3.36.07-5.86,2.18-8.12,4.13-2.58,2.27-7.1,3.83-8.9,5.78s-4.21,3.9-5.07,6.94a37.48,37.48,0,0,0-1.17,8c0,1,.15,1.09-2.11,0-3.67-1.72-7.73-6.64-7.73-6.64.47,3,4.45,5.78,4.84,8.67,1.1,8,8.82,11.78,27.95,11.78h.39" transform="translate(0 -4.96)"/><path class="cls-15" d="M168.61,54.4a23,23,0,0,0-18.1-8.9h-.08a23,23,0,0,0-18.11,8.9c-3.9,4.76-3.59,6.63-3.59,11.16,0,16.39,5.78,11.7,9.6,13.73s8,1.33,12.1,1.33h.08c4.21,0,8.19.55,12.09-1.4s9.61,2.88,9.61-13.51C172.28,61.19,172.52,59.16,168.61,54.4Z" transform="translate(0 -4.96)"/><path class="cls-16" d="M150.12,49.56s-.55,7.57-1.64,9l2-.47Z" transform="translate(0 -4.96)"/><path class="cls-16" d="M150.66,49.56s.55,7.57,1.64,9l-2-.47Z" transform="translate(0 -4.96)"/><path class="cls-15" d="M144.11,47.76c-.78-1.79,2-4.68,6.48-4.76s7.25,2.89,6.47,4.76-3.59,2.42-6.47,2.5C147.78,50.18,144.89,49.64,144.11,47.76Z" transform="translate(0 -4.96)"/><path d="M150.59,49.56c0-.31,2.65-.39,4-1.33,0,0-2.88.94-3.51.55a1.92,1.92,0,0,1-.78-1.25,2.56,2.56,0,0,1-.7,1.25c-.55.31-3.83-.55-3.83-.55s4.38,1.09,4.38,1.33-.08,1-.08,1.56c0,2,0,6.79.31,7.18.47.7.31-5.23.31-7.18C150.66,50.49,150.66,49.87,150.59,49.56Z" transform="translate(0 -4.96)"/><path class="cls-17" d="M150.74,60a12.11,12.11,0,0,1,5.78,2.42c-2-2.27-4.45-3.83-5.78-3.83s-4.37,1.72-6.48,4.22C146.45,61.11,149.26,60,150.74,60Z" transform="translate(0 -4.96)"/><path class="cls-16" d="M150.2,73.83c-3,0-5.86-.94-8.51-1.64-.55-.15-1.09.24-1.64.08-4.92-1.56-8.9-4.21-11.32-7.57v.78c0,16.39,5.78,11.78,9.6,13.74s8,1.32,12.1,1.32h.08c4.21,0,8.19.55,12.09-1.4s9.61,2.81,9.61-13.58a14.8,14.8,0,0,1,.07-1.8c-2.26,3.67-6.4,6.56-11.55,8.28-.47.15-1.56-.24-2-.16C155.89,72.82,153.4,73.83,150.2,73.83Z" transform="translate(0 -4.96)"/><path class="cls-16" d="M142.78,65s-1.95,5.85-.62,8.43l-1.8-.78S141.69,66.73,142.78,65Z" transform="translate(0 -4.96)"/><path class="cls-16" d="M158.23,65s2,5.85.63,8.43l1.79-.78S159.25,66.73,158.23,65Z" transform="translate(0 -4.96)"/><path class="cls-13" d="M137.79,35.12c-.71,2.42-3.2,10.61,1.63,7.88,0,0-2,1.17-3.27,5.62s-4.53,5-4.53,5-5.23,1-9.13-2.35c-3.28-2.81-3.83-7.8-2.42-11.62s3.9-4.92,7.57-5.7S138.57,32.39,137.79,35.12Z" transform="translate(0 -4.96)"/><path d="M150.51,58.61c2.1,0,8.66,4.53,8.74,10.07v-.31c0-5.78-5.31-10.38-8.74-10.38s-8.74,4.68-8.74,10.38v.31C141.84,63.14,148.4,58.61,150.51,58.61Z" transform="translate(0 -4.96)"/><ellipse class="cls-18" cx="151.92" cy="46.67" rx="0.62" ry="1.17" transform="translate(-6.84 34.46) rotate(-14.46)"/><ellipse class="cls-18" cx="148.55" cy="46.67" rx="1.17" ry="0.62" transform="translate(59.95 169.76) rotate(-72.76)"/><circle cx="128.89" cy="39.06" r="6.87"/><circle class="cls-14" cx="130.68" cy="36.02" r="1.8"/><path class="cls-17" d="M152.54,44.09c0-.07-1.8.78-2.27.86-.47-.08-2.26-.93-2.26-.86h4.53Z" transform="translate(0 -4.96)"/><path class="cls-12" d="M138.88,43.7s-6.17,4.22-9.52,8.35S126.08,57,126.08,57l2.42,1.09s3.43-6.47,7.65-8.89,4.76-4.45,4.76-4.45Z" transform="translate(0 -4.96)"/><path class="cls-13" d="M125.38,31.22s-2.11,5.77-6.79,8.19C118.59,39.41,125.92,38.55,125.38,31.22Z" transform="translate(0 -4.96)"/><path class="cls-13" d="M174.62,31.22s2.11,5.77,6.79,8.19C181.41,39.41,174.08,38.55,174.62,31.22Z" transform="translate(0 -4.96)"/><path class="cls-13" d="M161.28,42s-4.61-4.84-10.77-5h.15c-6.24.16-10.77,5-10.77,5a18.6,18.6,0,0,1,10.77-3.67h0A20,20,0,0,1,161.28,42Z" transform="translate(0 -4.96)"/><path class="cls-13" d="M155.89,31.84s-2.34-3.28-5.46-3.36h.16c-2.35.08-5.39,3.36-5.39,3.36a8.08,8.08,0,0,1,5.39-2.5h0A8.08,8.08,0,0,1,155.89,31.84Z" transform="translate(0 -4.96)"/><path class="cls-13" d="M128.89,55.8s-3.67,1.8-6.32.7h-.08c-2.34-1.32-3.51-5.3-3.51-5.3A7.54,7.54,0,0,0,128.89,55.8Z" transform="translate(0 -4.96)"/><path class="cls-13" d="M171.66,55.8s3.67,1.8,6.32.7h0c3.12-1.32,3.59-5.3,3.59-5.3A7.54,7.54,0,0,1,171.66,55.8Z" transform="translate(0 -4.96)"/><path class="cls-13" d="M133.1,30.83a17.88,17.88,0,0,1,8,.39c3.36,1.17.63,5.46,1.33,5.69s1.64-3,7.88-2.65,7,3.12,7.88,2.65-.85-7.8,8.59-6.08c0,0-9.91-2.66-9.44,4.52,0,0-5.7-4.37-13.66-.47C143.8,34.88,145.82,28.17,133.1,30.83Z" transform="translate(0 -4.96)"/><path class="cls-13" d="M167.68,30.83c.15,0,.23.07.31.07S167.91,30.83,167.68,30.83Z" transform="translate(0 -4.96)"/><path class="cls-13" d="M167.68,30.83Z" transform="translate(0 -4.96)"/><path class="cls-13" d="M130.37,21.23s-8.43,10.61-9.68,14.67S118.51,57,117.41,59.39l-3.9-16.7,7.18-17.41Z" transform="translate(0 -4.96)"/><path class="cls-13" d="M170,21.23s8.43,10.61,9.68,14.67S181.88,57,183,59.39l3.9-16.7L179.7,25.28Z" transform="translate(0 -4.96)"/><path class="cls-15" d="M169.63,21.23s9.05,7.57,11.71,16.31,1.56,19.35,3.59,20.68c2.88,1.87,6.16-9.29,7.26-10.46,1.71-1.87,7.41-6.63,7.8-7.49S188.44,26.38,183.21,23.8C176.89,20.84,169.08,20.6,169.63,21.23Z" transform="translate(0 -4.96)"/><path class="cls-16" d="M177.36,25.91s10.69,13.66,10.53,30.67l4.3-8.74A64.28,64.28,0,0,0,177.36,25.91Z" transform="translate(0 -4.96)"/><path class="cls-15" d="M130.37,21.23s-9.05,7.57-11.71,16.31-1.56,19.35-3.59,20.68c-2.88,1.87-6.16-9.29-7.26-10.46-1.71-1.87-7.41-6.63-7.8-7.49s11.55-13.89,16.78-16.47C123.11,20.84,130.92,20.6,130.37,21.23Z" transform="translate(0 -4.96)"/><path class="cls-16" d="M122.64,25.91S112,39.57,112.11,56.58l-4.22-8.74S111.64,36.68,122.64,25.91Z" transform="translate(0 -4.96)"/><path class="cls-13" d="M116.87,56.89s.78,4.22,2,5.55.39-1,.39-1-1.33-.7-1.1-6.09S116.87,56.89,116.87,56.89Z" transform="translate(0 -4.96)"/><path class="cls-13" d="M183.44,56.89s-.78,4.22-2,5.55-.39-1-.39-1,1.33-.7,1.1-6.09S183.44,56.89,183.44,56.89Z" transform="translate(0 -4.96)"/><circle class="cls-16" cx="142.39" cy="48.74" r="0.62"/><circle class="cls-16" cx="138.8" cy="52.48" r="0.62"/><circle class="cls-16" cx="137.63" cy="48.74" r="0.62"/><circle class="cls-16" cx="157.61" cy="48.74" r="0.62"/><circle class="cls-16" cx="161.2" cy="52.48" r="0.62"/><circle class="cls-16" cx="162.37" cy="48.74" r="0.62"/></g><g id="Page-1"><g id="Artboard-2"><g id="invision-studio"><rect id="Rectangle-6" class="cls-19" width="90" height="90"/><rect id="Rectangle" class="cls-14" x="69.61" y="69.31" width="6.83" height="6.83"/><path id="S" class="cls-14" d="M39.19,71.27v-1h5.73v1c.24,2.69,2.59,4.89,7,4.89,4.07,0,6.42-1.78,6.42-4.7,0-2.37-1.64-3.62-5-4.44l-5.15-1.25c-4.23-1-8-3.46-8-8.72,0-6.19,5.38-9.7,11.73-9.7S63.52,51,63.62,56.88v1.17H58.27l-.06-1.17c-.17-2.13-2.26-4.72-6.3-4.72-3.58,0-6,1.59-6,4.44,0,2,1.48,3.48,4.42,4.16L55.53,62c4.8,1.1,8.53,3.38,8.53,9,0,6.3-5.08,10-12.51,10C42.5,81,39.65,75.75,39.19,71.27Z" transform="translate(0 -4.96)"/></g></g></g></svg>