<svg xmlns="http://www.w3.org/2000/svg" xmlns:xlink="http://www.w3.org/1999/xlink" viewBox="0 0 701.59 900"><defs><style>.cls-1{fill:#0a0a0a;}.cls-2{opacity:0.1;fill:url(#linear-gradient);}.cls-3{fill:#663a1c;}.cls-4{fill:#fcf5f0;}.cls-5{fill:#422816;}.cls-6{fill:#7e3720;}.cls-7{fill:none;}</style><linearGradient id="linear-gradient" x1="350.05" y1="691.92" x2="350.05" y2="257.97" gradientUnits="userSpaceOnUse"><stop offset="0" stop-color="#1a1a1a"/><stop offset="1" stop-color="#f2f2f2"/></linearGradient></defs><title>Persona-Space</title><g id="Layer_2" data-name="Layer 2"><rect class="cls-1" width="700" height="900"/><path class="cls-2" d="M-.5,349.52c73.9-66.69,121.64-71.31,151.11-64.13,48.1,11.72,54.86,56.65,139.7,104.55,27.08,15.29,58,32.34,101.69,38.06,16,2.09,81.57,10.67,141.6-25.11,69.77-41.59,67.67-97.77,133.6-133.19A120.72,120.72,0,0,1,699.5,258s2.46,379.61,0,378.11C661.07,612.64,622.8,611.46,608,611c-94-2.91-120.09,70.65-199,80C285.41,705.64,225.65,539.82,96.91,550.29,57.48,553.5,24.55,572.19-.5,592.42Z" transform="translate(1)"/></g><g id="Layer_1" data-name="Layer 1"><path class="cls-3" d="M185.64,420c.84,3.55,1.26,6.22,1.12,7.07a1.38,1.38,0,0,1-.38.82,1.62,1.62,0,0,1-1.08.36c-3.19.23-6.24-1.11-9.36-1.79-4.34-.94-9.4-.37-12.38,2.92-1.23,1.36-2.08,2.82-3,6.15a60,60,0,0,0-1.75,18.93c.51,10.31,1.43,9.14,1.66,17.82.07,2.48,0,3.09.15,15.87a45.15,45.15,0,0,0,1.13,10.88,43.88,43.88,0,0,0,2.06,6.29,70.13,70.13,0,0,0,12,20.23,71.52,71.52,0,0,0,8.35,8.19,42,42,0,0,0,5,3.7,22.82,22.82,0,0,0,7.87,3.46,17.75,17.75,0,0,0,7.89-.09c3.15-.79,3.4-1.88,7.34-2.89,2.59-.66,4.21-1.05,5.95-.28,2.15.94,3.24,3.22,3.78,4.34a13.32,13.32,0,0,1,1,3.06,33.33,33.33,0,0,1,.86,7.79c0,9.74,1.16,19.46,1,29.19,0,2.3-.07,4.91-.08,7.86-.06,14,.8,20.59.85,35.69,0,2,0,3.65,0,4.44-.08,11.5-.42,23.59-3.77,34.58,9.66,3.54,17.92,9.06,26.8,14.26,11.59,6.78,24.73,15.48,44.56,27.51C312.45,718,322,723.84,333.32,728.53c41,17.06,94.91,16.42,116-5.73,1.77-1.86,2.48-3,13.1-15.11,7.41-8.44,13.76-17.76,21.16-26.21a5.74,5.74,0,0,0,1.82-5.53q-1.32-18.66-2.66-37.32a13.55,13.55,0,0,1,.2-4.54,11.36,11.36,0,0,1,2.93-4.84c2.81-3,4.75-6.68,7.46-9.74,8.14-9.19,18.22-41.61,18.22-41.61,3.7-11.9,8-27.09,11.89-45.08,2.69-3.18,5.46-6.58,8.15-9.76a16.75,16.75,0,0,0,2-2.78c.5-.92,2-3.8,1.12-6.48-.3-.88-.56-.85-.92-1.92a8.21,8.21,0,0,1-.28-3.89c.48-3.1.78-6.29,1.5-9.34.24-1,.5-2,.68-3a38.28,38.28,0,0,0,.42-4q.49-7.26.73-14.54c.25-7.76-.47-8.88-.33-17.9,0-2.17,0-1.7.12-5.18.2-10.63,0-14.12-.12-15.23-.14-1.72-.38-4.22-.86-7.26a22,22,0,0,0-1.49-5,11,11,0,0,0-.76-1.54,12,12,0,0,0-.86-1.26,17.74,17.74,0,0,1-2.77-5.65,14.12,14.12,0,0,1-.38-5.15c.63-5.93.22-12,.29-18,0-1.4,0-2.8,0-4.2-.1-4.28-.67-8.55-.69-12.83,0-2.74.2-5.48,0-8.21-.13-2-.48-4-.49-6a36.42,36.42,0,0,1,.61-5.88c2.55-16-.33-32.17-3.9-47.94-7.55-33.3-20.8-65.87-42.76-92-9-10.71-39.59-39.85-87.32-48.36-22.49-4-40.17-1.77-52.51-.11-16.3,2.19-55.79,8-93.51,37.7-46.94,37-60.35,86.7-64.47,102.94-9.32,36.66-5.82,69.19-4.53,80.31A232.26,232.26,0,0,0,185.64,420Z" transform="translate(1)"/><path class="cls-4" d="M258.19,399.05a62.54,62.54,0,0,1,5.47-4.3c3-2.09,6.81-3.94,12.19-6.67,5.84-3,12.85-6.52,21.88-6.46,6.89.05,12.58,2.3,15.35,3.2a44.77,44.77,0,0,1,9,4.25c1.63.92,2.61,1.57,4.12,2.57a29.89,29.89,0,0,1,4.31,3.35c.47.48.8.85,1.05,1.15.52.62.62.78,1,1.18a12.64,12.64,0,0,0,1.48,1.41,12.17,12.17,0,0,0,2.23,1.39c.82.38,1.7.85,1.63,1.12s-1.24.17-2.75.12-3.29.08-4.94.11a46.53,46.53,0,0,0-7.22.76c-4.91.81-7.44,1.58-11.48,2.43a100.32,100.32,0,0,1-12,1.82,69.79,69.79,0,0,1-15.16-.06,84.68,84.68,0,0,1-12.05-2.61s-1.82-.48-4.32-1.23a80.92,80.92,0,0,1-8.37-2.92Z" transform="translate(1)"/><path class="cls-4" d="M470.48,384a58.15,58.15,0,0,0-8.67,2.64,75.2,75.2,0,0,0-7.34,3.29,67.71,67.71,0,0,0-8,4.33c-2.47,1.62-3.48,2.58-6.33,4.17-1.6.89-3,1.53-3.9,1.93a27.15,27.15,0,0,0,7.67,1.74c2.46.18,3.51-.1,6.4,0a39.32,39.32,0,0,1,7.62,1c10.77,2.29,12.55,3,17.75,3.73a44.63,44.63,0,0,0,20.48-1.13,42.75,42.75,0,0,0,5.62-1.93,43.88,43.88,0,0,0,5.71-2.91,23.15,23.15,0,0,0-5.11-9.26,24.86,24.86,0,0,0-7.48-5.47,32.36,32.36,0,0,0-11.07-3.33C478.53,382.22,474.44,383.12,470.48,384Z" transform="translate(1)"/><path class="cls-5" d="M323.34,568.62a74.64,74.64,0,0,0,20.56-4.09c14.07-5,14.44-10.21,29.44-15.09a78.7,78.7,0,0,1,10.87-2.71c7.72-1.35,11.11-.74,21.27-.91,17.44-.29,18.2-2.25,25.23-.41,6,1.54,10,4.15,14.93,7.29a82.22,82.22,0,0,1,17.44,14.93,12.5,12.5,0,0,1-9.13,8.21,43.9,43.9,0,0,0-9.7-3,51.41,51.41,0,0,0-19.47.42,46.18,46.18,0,0,0-7.61,2,28.12,28.12,0,0,1-2.83.61,60,60,0,0,1-8.55.87c-5.79.12-12.32-1.21-16-1.73-5.67-.81-10.92-.21-21.42,1-11.55,1.31-13.28,2.66-23,3-6,.24-9.5.35-13.94-.84a34.91,34.91,0,0,1-15.86-9.55A73.71,73.71,0,0,0,323.34,568.62Z" transform="translate(1)"/><path class="cls-6" d="M457.88,578a34.35,34.35,0,0,1-6,16c-6.58,9.29-16.12,12.43-19,13.37-1.73.57-3.12.88-4.2,1.13-6.23,1.4-9.91,1.07-18.11,1.09-11.79,0-11.81.75-17.12,0a58.81,58.81,0,0,1-10.74-2.45A67.16,67.16,0,0,1,371.41,602c-10.87-5.7-21.38-12-31.88-18.37l-10.35-6.24c9.2,3.31,19.42,1.82,29.08.29s19.35-3.73,29.11-3.05c7.44.52,14.86,2.72,22.24,1.67,3.47-.49,4.93-1.34,11.79-2.58a73.67,73.67,0,0,1,14.39-1.43c.69,0,2.48,0,4.28.17A44,44,0,0,1,457.88,578Z" transform="translate(1)"/><path d="M419.07,542a0,0,0,0,0,0-.06c-.05,0,0,.06,0,.06Z" transform="translate(1)"/><path d="M333.39,567.34c9.16-.52,17.65-5.85,25.33-10.41,4.93-2.92,9.9-5.94,15.32-7.86,6.49-2.29,13.52-2.63,20.34-2.7,6.15-.06,12.29.11,18.43-.42,6.89-.6,13.48-1.53,20.24.66,11.77,3.81,20.59,12.9,29.76,20.74a.12.12,0,0,0,.17-.17c-7.62-8.51-16.39-16.62-27.22-20.78-5.39-2.07-10.65-2.18-16.35-1.86-6.86.38-13.61.8-20.49.81-12.13,0-23,1.19-33.83,7.06-10.55,5.75-19.67,12.5-31.71,14.84-.06,0,0,.09,0,.09Z" transform="translate(1)"/><path d="M452.43,597.1s0,0,0,0,0,0,0,0Z" transform="translate(1)"/><path d="M455.66,595.08s0,0,0,0a0,0,0,1,0,0,0Z" transform="translate(1)"/><path d="M449.45,597.18c-7.55,5.89-14.71,10.4-24.45,11.53-7.68.89-15.5.3-23.21.65-8.73.39-15.61-.56-23.45-4.67-6.34-3.32-12.41-7.23-19.42-9a.29.29,0,0,0-.14.56c9.23,2.18,16.33,8.63,25,12.17,6.59,2.7,13.43,2.21,20.39,1.89,8.18-.38,16.49.64,24.57-1s14.78-6.54,21.07-11.7c.24-.19-.09-.6-.33-.41Z" transform="translate(1)"/><path d="M195.75,438.57c.27-2,.49-4,.58-6,0-.11-.18-.14-.19,0-.3,2-.49,4-.61,6,0,.12.2.15.22,0Z" transform="translate(1)"/><path d="M519.35,302.57a5.26,5.26,0,0,1,0,1.77c0,.1.16.1.13,0a5.41,5.41,0,0,1,0-1.75c0-.05-.07-.05-.06,0Z" transform="translate(1)"/><path d="M165,461.92s0,0,0,0,0,0,0,0Z" transform="translate(1)"/><path d="M436.84,327.71c1.67,5.89,6.91,10.24,12.64,12.38s12,2.38,18.1,2.48,16.38,1.24,22.28,2.89c8.1,2.28,10.93,6.36,17.59,11.5.11-2.8.26-6.07-.9-8.92a41.8,41.8,0,0,0-5.28-9.81,19.94,19.94,0,0,0-8.71-6.77,31.23,31.23,0,0,0-9.33-1.43c-11.94-.61-23.88-1.38-35.82-1.89Z" transform="translate(1)"/><path d="M249.37,390.17c12.88-10.53,29.49-18.09,46.13-18s33.2,7.8,46,18.47a69.25,69.25,0,0,0-46.23-18.76C278.32,371.68,261.9,378.78,249.37,390.17Z" transform="translate(1)"/><path d="M479.75,411.63a34.11,34.11,0,0,0,7.41,1.93,34.53,34.53,0,0,0,7.12.28C489.22,414.21,484.32,413.84,479.75,411.63Z" transform="translate(1)"/><path d="M478.55,415.85a36.23,36.23,0,0,0,8.61,3.11,34,34,0,0,0,10.59.76,39.83,39.83,0,0,1-10-.76A39.41,39.41,0,0,1,478.55,415.85Z" transform="translate(1)"/><path d="M256.22,423.3A104,104,0,0,1,282,420.25,158.92,158.92,0,0,0,256.22,423.3Z" transform="translate(1)"/><path d="M333.91,410.23c.33-.21.65-.44,1-.65-17.52,10.58-36.63,15.21-56.3,16.75C298.16,425.56,316.76,420.76,333.91,410.23Z" transform="translate(1)"/><path d="M451.19,412.89l-1.56-.27a122.15,122.15,0,0,1,13.53,4.54c3,1.15,7,3.21,10.2,4.2A79.66,79.66,0,0,0,499,425.19a84.89,84.89,0,0,1-20.53-2.75c-5.72-1.62-11.17-4.17-16.71-6.32a62.62,62.62,0,0,0-10.55-3.23" transform="translate(1)"/><path d="M238.27,355.76c-11.4,18.11-16.21,39-20.79,59.67a.25.25,0,0,0,.48.12c4.59-20.53,9.34-41.57,20.53-59.67.09-.14-.13-.26-.22-.12Z" transform="translate(1)"/><path d="M382.25,494.84a23.46,23.46,0,0,0-6.31-2.57c-4.52-1.25-9.31-1.91-13.87-.88a4.1,4.1,0,0,0-2.39,1.21c-.88,1.1-.53,2.78.28,3.93a7.77,7.77,0,0,0,4.06,2.8,16.84,16.84,0,0,0,5,.66c3.9,0,9.64-.78,12.13-1.77a4.44,4.44,0,0,1,2-.36,4.78,4.78,0,0,1,1.88.55c.72.39.82.7,1.72,1.25a6.93,6.93,0,0,0,1.2.6,9.74,9.74,0,0,1-2.08-1.94c-.5-.62-.6-1-1.09-1.5A12.9,12.9,0,0,0,382.25,494.84Z" transform="translate(1)"/><path d="M407.43,502.21A33,33,0,0,1,417.58,494c.84-.42,7.38-3.63,12.79-2,2.25.68,2.68,1.7,2.79,2a3.24,3.24,0,0,1-.9,3.3,2.89,2.89,0,0,1-.51.34c-.72.43-2.2,1-5.89,1.19-1.63.08-2.29,0-4.7,0-3,0-4.51-.05-4.8,0a24.91,24.91,0,0,0-6.95,2.64,7.35,7.35,0,0,0-.72.38c-1.28.83-1.64,1.75-3.43,3.28a18.24,18.24,0,0,1-2.79,2,8.38,8.38,0,0,0,1.35-.91,16.61,16.61,0,0,0,1.29-1.23C405.92,504,406.66,503.11,407.43,502.21Z" transform="translate(1)"/><path d="M345.85,395.58a6.28,6.28,0,0,1-.52,8.1,6.06,6.06,0,0,0,2-3.92A6.21,6.21,0,0,0,345.85,395.58Z" transform="translate(1)"/><path d="M529.76,404.56c.1-.15-.38.3-.28.15a93.1,93.1,0,0,1-2.12-10.51,98.21,98.21,0,0,1-.9-13.34c-.12-6.68-1.08-12.85-3-25.2s-2.93-18.73-5.28-26.6c-5.54-18.55-14.25-31.33-18.25-37.74A98.24,98.24,0,0,0,489,277c-3.67-4-6.11-9.8-10.19-13.39-3.14-2.76-14.59-15.6-18-18-19.85-13.93-34.25-18-58.35-20.59a219.09,219.09,0,0,0-69.12,3.14,243.25,243.25,0,0,0-42,13c-8.69,3.59-16.62,8.38-24.48,13.53-7,4.62-12.95,10.81-18.18,17.41-2.79,3.51-4.67,7.54-6.87,11.44-3.31,5.86-5,12.49-6.2,19.11s-2.13,13.33-3.45,19.93a45.41,45.41,0,0,1-1.32,5.13,4.4,4.4,0,0,1-.25.75s-2.14,5.38-2.34,5.77l-.39.73c-.33.63-.67,1.27-1,1.88l-.58,1a21.56,21.56,0,0,1-1.43,2.1c-.8,1-2.92,3.83-3.26,4.29-1,1.35-2,2.21-2.79,3.19l-.3.37-.61.74a10,10,0,0,1-.67.79c-.65.67-3.51,4.55-3.65,4.72l-.3.36c-.09.12-.17.25-.25.38l-.58.92-.3.49c-.24.42-1.38,2.56-1.68,3.13-.15.27-.3.53-.44.81s-.21.43-.31.65l-.22.51-.21.46c-.21.47-.41,1-.61,1.43a45,45,0,0,0-1.5,4.42c-.18.59-.36,1.19-.51,1.79-.22.89-.34,1.78-.52,2.67-.08.4-.15.81-.22,1.21l-.16.93-.09.49c0,.25-.09.51-.12.76l-.06.42-.44,3.85s-.77,7.52-.74,9c0,.33-.49,11.35-.49,13.1,0,1,0,1.92-.07,2.88-.09,1.82-.14,3.6-.38,5.41-.13.95-1.61,10-2,12.09-.08.36-.15.72-.24,1.08a11.61,11.61,0,0,1-.47,1.52l-1.74,4.07c-.16.38-.32.77-.49,1.15-.37.88-.75,1.76-1,2.66a18.53,18.53,0,0,0-.91,4.29,16.14,16.14,0,0,1-.56,4l.1-.3c-6.45-9.9-13.72-20.44-18.42-31.27-6.44-14.82-9.38-30.93-10.93-47-3.53-36.67.29-74.9,17.16-107.64,14.18-27.52,37-50,63.23-66.54a220.72,220.72,0,0,1,128.69-33.49c12.32.66,24.83,4.53,36.86,7.27,5.9,1.35,11.8,2.7,17.57,4.49,24.4,7.58,48.8,23.57,63.67,44.35,4.33,6.06,17.32,23.52,21,30,12.41,21.92,12.31,33.35,17.89,57.92C540.51,333.32,534.65,369.38,529.76,404.56Z" transform="translate(1)"/><path d="M237.22,322.64a31.55,31.55,0,0,1-7.46,4.52c4-3.2,4.57-5.41,7-9.9-1.47,1.9-3.19,2.55-5.18,3.9,1.82-3.81,4-6.42,6.54-9.79a44.7,44.7,0,0,1-5.33,4.78l7-10.58c-1.84,2.23-2.76,3.82-5.19,5.39,2.28-3.69,3.28-7,5.56-10.73-2,2.67-3,3.21-5.56,5.33a118.93,118.93,0,0,1,7.24-12.27,32,32,0,0,1-6.64,7.47c2.59-3.42,4.68-6.34,7.27-9.77-3,3.31-3.67,3.46-6.67,6.77,2.69-5.28,3.71-7,7.66-11.46-3.54,3.47-2.92,2.6-6.46,6.06,3.91-5,3.68-5.63,7.59-10.61-2.87,2.72-3.52,3.08-6.39,5.81,3.64-3.74,4.67-5.5,7.45-9.92-3.25,3.32-1.45,1.52-4.45,4.52,3-4.2,1.8-4.2,5.4-8.4-3.31,1.8-5.46,5.22-8.13,7.88l-9,8.95a8.65,8.65,0,0,0-1.53,1.83,9.46,9.46,0,0,0-.9,3.42c-1.16,8.25-3.77,16.22-6.36,24.13l-6,18.14a23.53,23.53,0,0,1-3.34,7.28c1.43-1.85,5.9-3.22,7.92-4.58,1.82-1.23,4.25-1.82,5.68-3.45C229.21,332.51,232.74,327.29,237.22,322.64Z" transform="translate(1)"/><path d="M266.36,254.56c8.89-4.33,19.28-8.84,29.08-10.19A58.26,58.26,0,0,1,283.2,244L301.66,240a65.44,65.44,0,0,1-9.9-.09l17.18-3.22-9,.1a74.82,74.82,0,0,1,23.16-3.46,66.62,66.62,0,0,1-10.36-.94,66.25,66.25,0,0,1,22.37-2.35l-6.91-1.59a101.84,101.84,0,0,1,18.56.16,37.76,37.76,0,0,1-6.28-2.3l12.35,0a9.06,9.06,0,0,1-4.28-2.28A65.94,65.94,0,0,0,359,226.32a3.24,3.24,0,0,1-1.53-2q4.74,1.09,9.41,2.46l-3.27-3.3c1.25.89,7.13,1.66,7.13,1.66l.6-1.8s-21.93-1.66-32.26.49c-11.78,2.45-24,2.8-35.54,6.13-12.82,3.7-24.31,10.9-35.6,18a7.79,7.79,0,0,0-2.58,2.21C264.76,251.16,265.58,253.72,266.36,254.56Z" transform="translate(1)"/><path d="M443,234.64c-6.37-1.68-5.05-1.63-9.18-2.57-3.2-.74-5.9-1.21-7.83-1.51a123.43,123.43,0,0,1,31.8,13.8c2.54,1.57,4.94,3.18,7.2,4.8a75.91,75.91,0,0,0-17.4-7.2c3.2,1.34,6.62,2.92,10.2,4.8,3.76,2,7.16,4,10.2,6-1.1-.61-2.3-1.22-3.6-1.8a48.7,48.7,0,0,0-6.08-2.24q14.34,7.09,13.88,8.24-.36.89-9.6-1.8a53.05,53.05,0,0,1,10.8,5.4c2.72,1.78,5.19,3.75,5.07,3.94s-6.44-3.29-6.09-3.05,10.9,8.61,16,13.82a53.16,53.16,0,0,1,5.8,7.12c1.94,2.81,3.33,5.27,4.53,7.4s2.21,4.15,2.91,5.57a19,19,0,0,1-1.8-.6A18.33,18.33,0,0,1,498,294c.73.58,1.77,1.45,2.95,2.56,1.63,1.55,6.47,6.33,11.51,16.5a92.25,92.25,0,0,1,7.69,22.5l-4.2-4.8q1.85,4.88,3.6,10.2c1.63,5,3,9.81,4.2,14.4l-2.4-1.8a63.55,63.55,0,0,1,3,9c.53,2.12.92,4.14,1.2,6,.85.28,2.17-1.35,3.27-3a104.52,104.52,0,0,0-.37-19.06,178.58,178.58,0,0,0-3.67-18.2c-7-27-28-50.74-36.77-61-7.69-9-11.54-13.44-17.66-18.19a90.89,90.89,0,0,0-19.94-11.69c-3.1-1.32-6.31-2.32-9.33-3.8A45.24,45.24,0,0,0,421.66,229l4.28-1a63.46,63.46,0,0,0-26.71-1.92l5.35-1.51a63.33,63.33,0,0,0-10.66.54,15,15,0,0,1,3.5-1.6l-13.51,1.15a22.23,22.23,0,0,1,4.78-1.92,67.48,67.48,0,0,0-10.18,1.65l2.7-1.74a20.18,20.18,0,0,0-5.42,2.74,12.84,12.84,0,0,0-7.59-2.69c9.11-3.3,19.1-2.71,28.79-2.46,8.08.21,16.2.15,24.24,1s16.08,2.72,23.23,6.52a17.88,17.88,0,0,1,5.84,4.49,8.2,8.2,0,0,1,1.76,6.94l-.09-.11C449.81,236.35,446.73,235.64,443,234.64Z" transform="translate(1)"/><path d="M231.54,333.84c-2.2,1.18-2.58,1.14-4.78,2.32a15.79,15.79,0,0,0,2.33-2c1-.89,1.86-1.87,2.75-2.84-.65.43-1.07.69-1.41.9l-.53.32a9.39,9.39,0,0,1-1.34.62l6.6-6.6q-2.06,1.38-4.2,3c-2.14,1.62-4.09,3.24-5.86,4.81,0,.25,0,.62,0,1.06-.25,3.34-1.62,5.32-1.3,5.53s1.55-1.36,3.08-2.95A43,43,0,0,1,231.54,333.84Z" transform="translate(1)"/><path d="M475.61,344.94l-1.77-1.25a25.9,25.9,0,0,1,2.94.59c.88.22,1.69.48,2.42.74a4.68,4.68,0,0,1-1.22-1,15.08,15.08,0,0,1,3,.67,14.87,14.87,0,0,1,2.46,1.08l-1.77-1.36c1.1.16,2.29.38,3.54.66s2.54.65,3.66,1a5.58,5.58,0,0,1-.6-.42,4.8,4.8,0,0,1-.71-.77,19.68,19.68,0,0,0,2.37,1.27,18,18,0,0,0,2.6.93l-1.27-1.13c.63.36,1.28.76,1.94,1.19a41.92,41.92,0,0,1,3.68,2.72L495.52,348a40.26,40.26,0,0,1,5.8,5.5l-.78-2.38,2.22,1.22c-.68-1.11-3.73-6-7.81-8.66a14.34,14.34,0,0,0-3.71-1.83,20.13,20.13,0,0,0-4.1-.73,67.51,67.51,0,0,0-8-.38c-1.85,0-2.95.17-5.76.44-2.39.24-5.88.58-10.23,1a44.27,44.27,0,0,1,9.39,1.74C473.63,344.22,474.65,344.57,475.61,344.94Z" transform="translate(1)"/><path d="M467.64,343.33a18.67,18.67,0,0,0-4.9-1c-1.3-.07-2.59,0-3.88-.07a40,40,0,0,1-9-1.87l1.15,1a15.05,15.05,0,0,1-5.89-3.47,39.14,39.14,0,0,0,12.45,2.31,16.36,16.36,0,0,1,6.11,1A24.85,24.85,0,0,1,467.64,343.33Z" transform="translate(1)"/><path d="M397.46,506.6c-1.5.56-6-.34-7.2-2.14a21.7,21.7,0,0,0,3.9,1.5A20.87,20.87,0,0,0,397.46,506.6Z" transform="translate(1)"/><path d="M354.26,503.26a19.49,19.49,0,0,1-9-4.2,20.38,20.38,0,0,1-5.7-22.5c1.56-3.88,3.31-4.18,7.8-11.4a42.92,42.92,0,0,0,3.09-5.56c-.09-.06-1.83,3.23-4.89,7.36-4.25,5.73-5.72,5.91-7.2,9.6a23.13,23.13,0,0,0-1.5,7.23,21.1,21.1,0,0,0,.46,6.67,16.5,16.5,0,0,0,6,9.13A18.49,18.49,0,0,0,354.26,503.26Z" transform="translate(1)"/><path d="M432.26,508.06a18.74,18.74,0,0,0,10.5-2.1c6.81-3.68,8.79-10.53,9.3-12.3a25.87,25.87,0,0,0-.94-15c-.29-.77-.56-1.36-.74-1.75s-.43-.92-.68-1.36a14.94,14.94,0,0,0-.82-1.4,18.35,18.35,0,0,0-3.12-3.63c-2.4-2.2-4.44-3.89-4.8-4.2-1.87-1.58-4.1-4.47-5.32-10.2a27.54,27.54,0,0,0,4.72,8.4c3.06,3.71,5.07,4.06,7.8,7.2a24.32,24.32,0,0,1,5.4,12.6c.35,2.6,1.39,10.23-3.6,16.8-.86,1.12-5.72,7.26-13.26,7.47A14.55,14.55,0,0,1,432.26,508.06Z" transform="translate(1)"/><path d="M524.43,509.67a124,124,0,0,0,4.78-21.38c3.52-26.63-1.24-53.61.25-80.43.43,8.82.55,18,1,26.81.57,11.66,1.14,23.33,1.12,35,0,8.33-.35,16.69-2,24.84Z" transform="translate(1)"/><path d="M531.56,422c2.08,2.67,3.21,4.71,4.8,10.8,1,4,1.09,7.14,1.2,12.6.14,7.86-.7,7.95-.6,16.2.07,6,.52,7,.39,13.4-.05,2.12-.16,4.34-.39,8.8-.25,4.84-.38,7.29-.6,9-.47,3.58-1,4.26-1.8,9.6a30.85,30.85,0,0,0-.6,5.4c.09,3.84,1.26,4.61,1.2,7.8a14.48,14.48,0,0,1-1.8,6.6c-1.37,2.52-2.36,3-5.4,6.6-3.47,4.07-5.32,7.26-5.4,7.2a39.34,39.34,0,0,1,6-9.6s5-6.15,5.4-9.6a7.68,7.68,0,0,0,0-1.47,15.84,15.84,0,0,0-.42-2.37,15.18,15.18,0,0,1-.23-2.76,31.85,31.85,0,0,1,.13-4.11,41,41,0,0,1,.58-4.37c.22-1.19.43-2.06.49-2.32a97.8,97.8,0,0,0,1.8-13.8c.22-3.64,0-4.74,0-12.6-.08-10.73-.12-16.34,0-23.4,0-1.58,0-3.14,0-5.4a60.24,60.24,0,0,0-1.2-12.6A40,40,0,0,0,531.56,422Z" transform="translate(1)"/><path d="M471.91,652.81c5.13-11.15,13.14-20,20.13-30.13,16.53-23.9,23.44-53,30-81.26a19.33,19.33,0,0,0,.42-2.2c-.15,0-3.37,15.48-9.23,33.64-1.78,5.51-3.19,9.39-4.8,13.8,0,0-9.88,27.08-19.2,37.8l-.78.89a115.84,115.84,0,0,0-7.8,10.3c-1.1,1.62-2.23,3.45-3.42,5.61A88.68,88.68,0,0,0,471.91,652.81Z" transform="translate(1)"/><path d="M220.34,539.16a12.67,12.67,0,0,0-1-1.36,6.72,6.72,0,0,0-1.06-.93c-1.11-.71-3.29-.18-3.29-.18-4.11,1-6.64,2.88-10.29,3.64a21.86,21.86,0,0,1-4.1.34c-7,0-13.33-5.23-17.11-8.43A67.38,67.38,0,0,1,168,512.87a69.82,69.82,0,0,1-5.31-12.25,35.26,35.26,0,0,1-1.23-5.25,51.53,51.53,0,0,1-.41-5.17c-.2-11.72-.16-13-.33-16-.13-2.33-.32-4.53-.6-7.8s-.38-3.88-.6-6.6c-.38-4.5-.57-6.75-.6-9.6a47.55,47.55,0,0,1,.89-9.75c.2-.79.39-1.42.39-1.42.13-.46.28-.93.43-1.39.23-.73.38-1.2.41-1.32a24,24,0,0,1,2.08-4.72,10.46,10.46,0,0,1,4.2-4.2,10,10,0,0,1,4.48-1,12.71,12.71,0,0,1,4.73.75c1.22.32,2.69.7,4.49,1.12,2.21.52,3.05.68,3.7.33.12-.07.55-.32.87-.16a.86.86,0,0,1,.35.6.66.66,0,0,0,.16-.46l1.62,1.22c-.12-.42-.25-.86-.41-1.33s-.38-1-.57-1.43a1.35,1.35,0,0,1-.23.71,1.31,1.31,0,0,1-.54.44l-.35-.49a27.19,27.19,0,0,1-6.23-.42c-3.66-.66-4.52-1.57-7.27-1.68a12.34,12.34,0,0,0-7.2,1.8c-1.38.92-3.13,2.62-4.8,7.8a43.74,43.74,0,0,0-1.93,15c.18,8,.7,9.67,1.29,17.55.63,8.51.12,11.71.88,24A47.27,47.27,0,0,0,162,502.36a42.84,42.84,0,0,0,4.81,11s7.38,15,21.59,24.41a26.72,26.72,0,0,0,6,3,22.54,22.54,0,0,0,6,1.2,20.35,20.35,0,0,0,6-.6c5.26-1.36,6.52-4.06,10.07-3.88,6.68.34,6.93,9.62,7.12,14.61,1.25,32.32,1.63,63.19,2,75.46.11,3.35,0,5.66,0,5.66,0,3.35.11,3.81.1,6,0,1.78,0,3.94-.27,6.72-.23,2.62-.78,7.05-.79,7.15h0a88.93,88.93,0,0,0,1.3-14.19c0-.14,0-1,0-2.16,0,0,0-.9,0-1.76,0-3.37.06-7.3.06-7.3.21-9.94-.56-46.23-.61-47.6,0-.85-.06-1.73-.06-1.73l0-.48h0c0-.1-.47-6.75-.8-15.68-.06-1.58-.09-3.12-.09-3.12,0-.5,0-1,0-1.5a106.83,106.83,0,0,0-1.06-13.66,5.67,5.67,0,0,0-1.14-2.89C221.53,540.25,221.08,540.2,220.34,539.16Z" transform="translate(1)"/><path d="M312.76,668.72c-2.5-2.1-4.81-4.42-7.41-6.39a85.74,85.74,0,0,0-8.22-5.22c-3.42-2-6.78-4.17-10.14-6.31-11.3-7.19-22.55-14.87-31.9-24.46a119,119,0,0,1-18.08-24,84.15,84.15,0,0,1-5-10.08,62.06,62.06,0,0,1-4.41-17.94c2.76,17.27,12.05,33,23.73,46a137.43,137.43,0,0,0,15.05,14.4c13.71,11.25,29.48,19.73,43.55,30.51,8.17,6.26,15.81,13.32,24.82,18.28,10.77,5.94,23,8.62,35.26,9.92a173.61,173.61,0,0,0,30.16.56,154.59,154.59,0,0,1-34.47,0c-9.32-1-18.74-2.63-27.15-6.77A99.12,99.12,0,0,1,324.24,678C320.44,675.16,316.36,671.75,312.76,668.72Z" transform="translate(1)"/><path d="M209.21,494.14c.49,1.6,1.21,3.74,2.7,8a56.14,56.14,0,0,0,2.23,5.61c.72,1.55,1.33,2.65,1.49,2.94,3.39,6.25,6.41,12.84,7.53,19.86-1.8-9.58-8.44-18.23-11.84-27.36-2.23-6-3.95-12.1-5.68-18.22a301.93,301.93,0,0,1-8.35-38.87h0l-.1-.68s2.43,11.43,4.84,21.76C202,467.19,205.35,481.46,209.21,494.14Z" transform="translate(1)"/><path d="M329.44,577.46c19,5.09,38.87-4.31,58.47-3.1,6.78.42,13.48,2.11,20.26,1.81s13.55-2.63,20.39-3.59a51.47,51.47,0,0,1,24.66,2.63,13.76,13.76,0,0,1,4.53,3c-2.54-2.11-5.92-3-9.16-3.64a67.33,67.33,0,0,0-26.94,0c-5.48,1.14-6.7,1.6-8.55,2,0,0-1.83.37-3.84.58a48.54,48.54,0,0,1-12.16-.77,82.05,82.05,0,0,0-18.31-1.23c-2.31,0-8.07.9-19.61,2.59a104.33,104.33,0,0,1-14.53,1.42c-2.45,0-4.95,0-7.71-.19A22.48,22.48,0,0,1,329.44,577.46Z" transform="translate(1)"/><path d="M331,330.42l.64-.64s0-.11-.07-.07l-.64.65s0,.1.07.06Z" transform="translate(1)"/><path d="M325.16,341a8,8,0,0,0,1.8-1.2q.33-.3.6-.6a53,53,0,0,1-30,4.2l3.6-.6c-6.85-.65-12.4-1.31-16.2-1.8-6.44-.82-8.86-1.25-13.2-1.2-7.44.09-11.57,1.44-12.6,1.8a32.54,32.54,0,0,0-9,4.8,14.92,14.92,0,0,1,1.2-1.8,14.39,14.39,0,0,1,5.4-4.2,11,11,0,0,1,3.28-.82c13.8-1.7,12.87-2,16.95-2.06a90.58,90.58,0,0,1,15.7,1.12c5.61,1,11.1,2.75,16.78,3.1a34.23,34.23,0,0,0,21.67-6.16c.51-.36,1-.74,1.51-1.12,1.46-1.12,1.87-1.47,2.52-1.93a15.7,15.7,0,0,1,3.19-1.73,36.64,36.64,0,0,1-3,3.6,37.75,37.75,0,0,1-4.8,4.2,15.17,15.17,0,0,1-1.8,1.2A12.72,12.72,0,0,1,325.16,341Z" transform="translate(1)"/><path d="M314,330.73c1.06-.29,2.14-.56,3.22-.81q-4.92.07-9.83-.15c-2.25.06-24.24-1.36-24.24-1.36s1.52,0,2.42-.05c1.14,0,3,0,3,0s-8.76-1.84-14.24-1.18c-20.39,2.47-31.11,22.31-32.51,25,5.63-6.82,14.46-10.36,23.23-11.43s17.66,0,26.45,1,17.73,1.87,26.44.33a35.62,35.62,0,0,0,13.23-4.82c6.43-4.17,7.78-7.22,8-8.53C334.61,329.52,316.56,330.4,314,330.73Z" transform="translate(1)"/><path d="M264.28,330.12l-2.23.86,2.44-1A34,34,0,0,0,254,335.8c2.69-.91,5.52-1.48,8.3-2.17a1.46,1.46,0,0,0,.41-.16,1.11,1.11,0,0,0,.27-.26l.69-.84,1-1.17a.88.88,0,0,0,.29-.7C264.87,330.24,264.41,329.89,264.28,330.12Z" transform="translate(1)"/><path d="M336.72,400.34a13.29,13.29,0,0,1-6-4.17c-4.3-5.06-14.22-9.36-18.38-10.81l-.16-.05a47.42,47.42,0,0,0-8.68-2.36,35.67,35.67,0,0,0-13.77.47,44.39,44.39,0,0,0-6.29,2c-2.89,1.16-5.71,2.56-8.5,4l-18.27,9.06c5.2-3.24,10.25-6.27,15.59-9.28a84.77,84.77,0,0,1,12.19-5.95,38.31,38.31,0,0,1,6.05-1.72,40.57,40.57,0,0,1,20.85,1.93,57.81,57.81,0,0,1,12.1,5.74c3.42,2.16,5.14,3.24,6.84,5.21a33.43,33.43,0,0,0,3.44,3.61A27.93,27.93,0,0,0,336.72,400.34Z" transform="translate(1)"/><path d="M336,401.4a63.59,63.59,0,0,0-8.73-.06,108.83,108.83,0,0,0-11.92,1.54c-9.84,1.7-19.78,3.84-29.73,2.93a78.44,78.44,0,0,1-11.26-2c-5.37-1.31-10.67-2.86-15.91-4.61a72.5,72.5,0,0,0,41.36,7.92C311.92,405.82,323.72,401.2,336,401.4Z" transform="translate(1)"/><path d="M504.73,402.53a32.23,32.23,0,0,1-5.3,3c-7.16,3.19-13.83,2.94-17.76,2.75a65.73,65.73,0,0,1-9.84-1.33c-2.75-.55-5.39-1.23-5.39-1.23-1.91-.48-2.69-.74-5-1.32-1.08-.27-2.52-.64-4.14-1a33,33,0,0,0-5.49-.83c-1.73-.08-3.21,0-3.84,0-1.1.06-1.32.16-2.37.21a20.81,20.81,0,0,1-3.45-.1,19.94,19.94,0,0,1-3.89-.87,22.62,22.62,0,0,0,4.26.41,21.85,21.85,0,0,0,2.54-.15l3.47-.47a22.23,22.23,0,0,1,6.41.24h0a74.87,74.87,0,0,1,8.39,1.66,96.11,96.11,0,0,0,15.48,2.65,63.68,63.68,0,0,0,12.55-.29A59.42,59.42,0,0,0,504.73,402.53Z" transform="translate(1)"/><path d="M508.19,399.53a40.43,40.43,0,0,0-12.63-11.8,34.91,34.91,0,0,0-10.1-3.83c-.37-.08-.74-.15-1.09-.19-.51-.08-1.05-.14-1.63-.2a34.25,34.25,0,0,0-7.48.25,58.1,58.1,0,0,0-7.81,1.61c-.87.23-1.74.49-2.62.77a67.86,67.86,0,0,0-17.69,8.35,32.07,32.07,0,0,1-9.2,4.12c.07-.07,1.16-.58,2-1a83.21,83.21,0,0,0,9.1-5.29,82.22,82.22,0,0,1,11.2-5.83c1.94-.82,3.77-1.48,5.45-2s3.34-1,4.73-1.31a46.18,46.18,0,0,1,5.79-1c.87-.09,1.81-.18,2.85-.23a33.67,33.67,0,0,1,4.63.1l.87.1a28.67,28.67,0,0,1,10.74,3.3l.31.16a30.31,30.31,0,0,1,12.55,13.95Z" transform="translate(1)"/><path d="M515.57,410.75" transform="translate(1)"/><path class="cls-7" d="M471.52,384.51A30.23,30.23,0,0,0,463.6,388a4.37,4.37,0,0,1,2.48-2.35,23.21,23.21,0,0,1,2.72-.73C469.68,384.72,470.65,384.73,471.52,384.51Z" transform="translate(1)"/><path d="M183.72,507.18a18.65,18.65,0,0,1-7.82-2.63,20.81,20.81,0,0,1-6.78-6.67,25.65,25.65,0,0,1-2.76-5.49A31.65,31.65,0,0,1,165,476.78a26,26,0,0,1,1.51-6.17,15.37,15.37,0,0,1,2.76-5,12.46,12.46,0,0,1,4.07-3.2,15.42,15.42,0,0,1,5-1.28c2.31-.32,3-.08,5.2-.61a8.72,8.72,0,0,0,3-1.11,7.63,7.63,0,0,0,2.65-3,6.17,6.17,0,0,1-1.81,2.75,7,7,0,0,1-2.35,1.25,18.6,18.6,0,0,1-4.32.85c-2,.26-2.15.18-3.32.41a15.42,15.42,0,0,0-3.24.9,12.14,12.14,0,0,0-4.91,3.82,19.44,19.44,0,0,0-2.66,5.82,33.24,33.24,0,0,0,.2,19.33c.11.33.13.54.24.86a22.56,22.56,0,0,0,2.2,4.73,23.64,23.64,0,0,0,2.87,3.72,24,24,0,0,0,3.19,2.85A20.07,20.07,0,0,0,183.72,507.18Z" transform="translate(1)"/><path d="M163.31,468.21c-.05,0,0-1.79-.11-4.25-.17-4.15-.59-5.8-.73-10.49a14.74,14.74,0,0,1,.4-4.5,6.88,6.88,0,0,1,2.31-3.8,7.59,7.59,0,0,1,3-1.28,16.6,16.6,0,0,1,9,.65,15.72,15.72,0,0,1,4.48,2.25c1.39,1,1.39,1.43,3.12,2.92a48.89,48.89,0,0,0,4.67,3.34,10.16,10.16,0,0,1-2.14-1c-4.42-2.53-4.38-4.07-7.39-5.81a19,19,0,0,0-9.81-1.9,9.21,9.21,0,0,0-2.13.36,7.76,7.76,0,0,0-3.75,2.23c-.86,1-1.05,2.24-1.23,4.47-.37,4.8.49,6.76.52,12.21A33.28,33.28,0,0,1,163.31,468.21Z" transform="translate(1)"/><path d="M203.14,509.55a68,68,0,0,1-8.67-1.76,44,44,0,0,1-8.56-3c-3-1.5-6.73-3.33-9.79-7.37a19.49,19.49,0,0,1-4.22-11.87,19.74,19.74,0,0,1,.84-5.39A27.79,27.79,0,0,1,181,467.4a37.2,37.2,0,0,1,13.29-7.51,30.53,30.53,0,0,0-6.65,3.11,36,36,0,0,0-9.84,8.59,27.08,27.08,0,0,0-3.64,6.08,18.27,18.27,0,0,0-1.15,3.51,21.29,21.29,0,0,0-.08,8.22,18.66,18.66,0,0,0,4.15,8c1,1.21,3.79,4.26,10.75,7.54A54.82,54.82,0,0,0,203.14,509.55Z" transform="translate(1)"/><path d="M178,513.61c-5.05-2.74-8.76-7.54-11.06-12.8a24.2,24.2,0,0,1-2.36-7.26c.41,1.54,2.23,8,6,12.86a35.34,35.34,0,0,0,4.16,4.51C176.39,512.42,178.09,513.65,178,513.61Z" transform="translate(1)"/></g></svg>