<?xml version="1.0" encoding="utf-8"?>
<!-- Generator: Adobe Illustrator 22.1.0, SVG Export Plug-In . SVG Version: 6.00 Build 0)  -->
<svg version="1.1" id="Layer_1" xmlns="http://www.w3.org/2000/svg" xmlns:xlink="http://www.w3.org/1999/xlink" x="0px" y="0px"
	 viewBox="0 0 865 865" style="enable-background:new 0 0 865 865;" xml:space="preserve">
<style type="text/css">
	.st0{fill:#D68848;stroke:#000000;stroke-width:15;stroke-miterlimit:10;}
	.st1{fill:#1A1A1A;}
	.st2{fill:#FFC8DF;}
	.st3{fill:#A55C7F;}
	.st4{fill:#FFFFFF;}
	.st5{fill:#F2F2F2;}
	.st6{opacity:0.1;}
	.st7{fill:#E7B2AA;}
	.st8{opacity:0.2;fill:#A33A27;enable-background:new    ;}
</style>
<title>Untitled-1</title>
<circle class="st0" cx="432.5" cy="432.5" r="425"/>
<g id="MOUTH_STRIPES">
	<g id="Mouth_-1_Stripes">
		<path class="st1" d="M324.3,426c-5,1.7-9.8,3.9-14.4,6.4c-2,1.1-4,2.3-5.2,4.7c-0.9,2.1-1.1,4.4-0.6,6.7
			c1.8,8.2,12.6,11.7,21.9,15.8c11.2,5.1,21.6,11.7,31,19.7c-1.7-3.1-3.6-6.1-5.7-8.9c-2.3-3.2-4.8-6.1-7.7-8.8
			c-3.5-3.4-7.4-6.2-11.8-8.3c-3-1.4-7.2-3-10.7-7.4c-0.2-0.3-0.5-0.6-0.7-0.9C317.2,439.8,321.8,430.4,324.3,426z"/>
		<path class="st1" d="M277.9,459.9c-2.4,0.6-3.3,5.5-3.6,9.7c-0.1,1.8,0.2,3.6,1,5.2c1.3,2.9,3.6,5.3,6.4,6.8
			c44.1,27.2,69.8,36,69.8,36c6.9,2.5,14.3,5,22.2,7.2c5.5,1.6,10.8,2.9,15.9,4.2c-2.8-1.2-6.7-3.1-11.5-5.3
			c-13.4-6.2-23.8-11.3-25.8-12.3c-20.7-10.2-53.5-32-59.6-36.1c-0.6-0.6-1.7-1.8-2.2-2.4l-2.8-2.9L277.9,459.9z"/>
		<path class="st1" d="M277,502.1c-0.9-0.8-2.2-0.6-3,0.2c-0.4,0.5-0.6,1.1-0.5,1.8c0.6,3.4,1.4,6.7,2.5,9.9
			c0.5,1.9,1.5,3.7,2.8,5.2c1.4,1.2,2.9,2.2,4.6,2.9c40.8,18.9,83.9,34.9,128.9,36.6c-44.4-8.2-86.8-24.6-125.3-48.2L277,502.1z"/>
		<path class="st1" d="M280.2,542.5c5.2-2.2,10.2,4.8,22,10.2c4.5,2,9.1,3.5,13.8,4.7c4.7,1.2,9.4,2.2,14.2,2.8l67.4,10.5
			c-53.8-4.8-80.3-5.2-92.4-3.6c-4.5,0.7-9.2,0.1-13.3-1.7c-9.8-4.7-16.4-17.7-13.3-21.8C279,543.1,279.6,542.7,280.2,542.5z"/>
	</g>
	<g id="Mouth_-1_Stripes-2">
		<path class="st1" d="M561.6,426c5,1.7,9.8,3.9,14.4,6.4c2,1.1,4,2.3,5.2,4.7c0.9,2.1,1.1,4.4,0.6,6.7
			c-1.8,8.2-12.6,11.7-21.9,15.8c-11.2,5.1-21.6,11.7-31,19.7c1.7-3.1,3.6-6.1,5.7-8.9c2.3-3.2,4.8-6.1,7.7-8.8
			c3.5-3.4,7.4-6.2,11.8-8.3c3-1.4,7.2-3,10.7-7.4c0.2-0.3,0.5-0.6,0.7-0.9C568.8,439.8,564.1,430.4,561.6,426z"/>
		<path class="st1" d="M608,459.9c2.4,0.6,3.3,5.5,3.6,9.7c0.1,1.8-0.2,3.6-1,5.2c-1.3,2.9-3.6,5.3-6.4,6.8
			c-44.1,27.2-69.8,36-69.8,36c-6.9,2.5-14.3,5-22.2,7.2c-5.5,1.6-10.8,2.9-15.9,4.2c2.8-1.2,6.7-3.1,11.5-5.3
			c13.4-6.2,23.8-11.3,25.8-12.3c20.7-10.2,53.5-32,59.6-36.1l2.2-2.4l2.8-2.9L608,459.9z"/>
		<path class="st1" d="M609,502.1c0.9-0.8,2.2-0.6,3,0.2c0.4,0.5,0.6,1.1,0.5,1.8c-0.6,3.4-1.4,6.7-2.5,9.9
			c-0.5,1.9-1.5,3.7-2.8,5.2c-1.4,1.2-2.9,2.2-4.6,2.9c-40.8,18.9-84,34.9-128.9,36.6c44.4-8.2,86.8-24.6,125.3-48.2L609,502.1z"/>
		<path class="st1" d="M605.7,542.5c-5.2-2.2-10.2,4.8-22,10.2c-4.5,2-9.1,3.5-13.8,4.7c-4.7,1.2-9.4,2.2-14.2,2.8l-67.3,10.5
			c53.8-4.8,80.3-5.2,92.4-3.6c4.5,0.7,9.2,0.1,13.3-1.7c9.8-4.7,16.4-17.7,13.3-21.8C606.9,543.1,606.3,542.7,605.7,542.5z"/>
	</g>
</g>
<g id="MOUTH">
	<path id="Mouth_-_BG" class="st1" d="M537.5,593.9c0.8-2-0.3-4.3-2.3-5.1c-0.3-0.1-0.5-0.2-0.8-0.2c-60.5-7.9-121.8-8-182.3-0.1
		c-2.5,0.4-4.2,2.6-3.8,5.1c0,0.3,0.1,0.6,0.2,0.9c13.3,36.3,14.9,64.8,13.8,84.5c-1.2,19.6-6.2,50.1,11,72.9
		c2.6,3.6,5.7,6.8,9.4,9.4c16,11,29.2,1,60.3,1.1l0,0c31-0.1,44.3,9.9,60.3-1.1c3.6-2.6,6.8-5.7,9.4-9.4
		c17.2-22.7,12.1-53.3,11-72.9C522.3,659.3,524,630.5,537.5,593.9z"/>
	<path class="st1" d="M355.1,588.2c0,0-12.2,0.9-12.5,5.1s12.1,10.3,12.1,10.3L355.1,588.2z"/>
	<path class="st1" d="M530.5,588.2c0,0,12.2,0.9,12.5,5.1s-12.1,10.3-12.1,10.3L530.5,588.2z"/>
	<path id="Mouth_Inside_BG" class="st2" d="M518.3,667.7c-0.7-9.4,2.2-29.4,16.3-74.3c-12.7-2-26.5-3.7-41.2-4.9
		c-18-1.4-50.5-1.5-50.5-1.5s-32.5,0.1-50.5,1.5c-14.7,1.1-28.5,2.8-41.2,4.9c14.1,45,17,65,16.3,74.3c0,0.5-0.4,5.5-0.9,12.3
		c-0.8,12.3-1.2,18.4-1.1,23.7c0.1,9.4,0.2,16.3,3,25c2.1,6.6,5.2,15.8,14.1,22.4c4.5,3.3,9.8,5.6,15.3,6.6c6.9,1.3,11.3,0,22.5-1.7
		c5.3-0.8,13-1.7,22.4-2.4c9.5,0.7,17.1,1.7,22.4,2.4c11.3,1.6,15.7,2.9,22.5,1.7c5.5-1,10.8-3.3,15.3-6.6
		c8.9-6.7,12-15.8,14.1-22.4c2.8-8.7,2.9-15.7,3-25c0.1-5.3-0.3-11.4-1.1-23.7C518.7,673.1,518.3,668.2,518.3,667.7z"/>
	<path id="Tongue" class="st3" d="M510,644.7c-0.7-1.1-3.1-5.6-6.3-12c0,0-1.7-3.8-3-7.6c-4.7-13.2-5.7-35.2-5.8-36.4
		c-16.5-1-52.3-1.8-52.3-1.8c-18.4,0-36.8,0.6-53.3,1.7c0,1.2-1.1,23.2-5.8,36.4c-1.4,3.9-3,7.6-3,7.6c-3.2,6.4-5.6,10.8-6.3,12
		c-8.3,14.1,2.9,46,10.6,58.1c3,4.7,4.8,7.5,8.4,10c1,0.7,4.3,2.7,7.8,5.4c1.7,1.3,3.1,3,4.2,4.8c0.3,0.7,0.6,1.4,0.6,1.4
		c0.3,1.1,0.4,1.9,0.6,2.7c1.3,4.3,8.2,8.7,32.2,9.8v0.1c0.2,0,1,0.1,2.1,0.1v0.1c2.7,0,4.4-0.1,4.8-0.2V737
		c24-1.1,30.9-5.5,32.2-9.8c0.2-0.8,0.3-1.6,0.6-2.7c0,0,0.2-0.8,0.6-1.4c1-1.9,2.4-3.5,4.2-4.8c3.6-2.7,6.8-4.7,7.8-5.4
		c3.7-2.4,5.5-5.3,8.4-10C507,690.7,518.3,658.8,510,644.7z"/>
	<path class="st4" d="M400.8,587.8c1.1,3.3,2.1,6.6,3.2,9.9c0.3-0.1,7.1-2.1,8.1-7.3c0.2-1,0.1-2-0.1-3l4.4-0.1
		c-0.4,2.2,0.7,4.5,2.6,5.6c2.3,1.3,5.3,0.5,6.6-1.8c0.7-1.2,0.8-2.7,0.3-4.1l4.4-0.1c-0.2,3,1.3,5.5,3.5,6.2
		c1.2,0.4,2.5,0.2,3.6-0.4c2-1.2,3-3.6,2.5-5.9h6.5c-0.4,2.5,0.8,5,3,6.2c1.4,0.6,3,0.6,4.4,0c2.1-1.3,3.1-3.8,2.5-6.2h3
		c-0.8,2.1,0,4.5,1.8,5.8c1.5,1,3.5,1,5.1,0.1c2-1.2,3-3.5,2.5-5.7l6.7,0.2c0,2.6,0.9,5.1,2.5,7c1.5,1.8,3.5,3.1,5.8,3.8
		c0.9-3.5,1.9-6.9,2.8-10.4C457.9,586.4,429.4,586.4,400.8,587.8z"/>
	<path class="st4" d="M351.2,593.4c-2.2,22.4,4,44.9,17.3,63.1c-0.1-9.7,0.5-19.4,1.8-29c1-7,2.3-14,3.4-25.8
		c0.4-4.9,0.7-9,0.8-11.6c-5.1,0.6-10.2,1.3-15.5,2.1C356.3,592.6,353.7,593,351.2,593.4z"/>
	<path class="st4" d="M534.5,593.1c2.3,22.6-3.8,45.2-17.2,63.5c0.1-9.7-0.5-19.4-1.8-29c-1-7-2.3-14-3.4-25.8
		c-0.4-4.9-0.7-9-0.8-11.6L534.5,593.1z"/>
	<path class="st5" d="M403.3,722.8c-4.3-2.9-8.2-6.1-11.8-9.7c-8.4-8.4-14.9-18.6-19-29.8c-3,10.3-4,21-3.2,31.6
		c1.2,14.3,5.5,21.8,8.4,25.8c4,5.5,6.9,6.5,8.4,6.8c6.2,1.3,12.7-3.5,15.8-8.7C406.3,731.7,403.8,724.1,403.3,722.8z"/>
	<path class="st5" d="M481.2,722.8c4.3-2.9,8.2-6.1,11.8-9.7c8.4-8.4,14.9-18.6,19-29.8c3,10.3,4,21,3.2,31.6
		c-1.2,14.3-5.5,21.8-8.4,25.8c-4,5.5-6.9,6.5-8.4,6.8c-6.2,1.3-12.7-3.5-15.8-8.7C478.3,731.7,480.8,724.1,481.2,722.8z"/>
	<path class="st5" d="M412.1,745.4c-1.2-1-2.1-2.3-2.6-3.8c-0.6-2-0.4-4.2,0.6-6.1c0.9,1.7,2.1,3.3,3.5,4.6c1.5,1.4,3.2,2.6,5,3.4
		c-0.2,1.3-1.1,2.3-2.2,2.9C414.9,747,413.2,746.6,412.1,745.4z"/>
	<path class="st5" d="M475,745.4c1.2-1,2.1-2.3,2.6-3.8c0.6-2,0.4-4.2-0.6-6.1c-0.9,1.7-2.1,3.3-3.5,4.6c-1.5,1.4-3.2,2.6-5,3.4
		c0.2,1.3,1.1,2.3,2.2,2.9C472.3,747,474,746.6,475,745.4z"/>
	<polygon class="st5" points="418.6,741.1 424.9,739.8 428,741.1 430.6,739.8 438.2,741.1 442.1,741.1 443.8,739.8 451,741.1 
		455,739.8 458,741.1 461.3,741.1 464.5,741.1 464.5,742.9 467.6,741.1 468.5,742.2 464.8,747.8 422.9,747.8 	"/>
</g>
<g id="MOUTH_SHADOW">
	<g class="st6">
		<path d="M470.6,727.4c0.5-2.1,1.1-4.1,1.7-6.1c0.2-0.9,0.5-1.7,1-2.5c0.7-0.9,1.5-1.6,2.4-2.2l4-2.8c0.8-0.6,1.6-1.1,2.4-1.5
			c0.9-0.4,2-0.7,2.9-1.1c2.3-1,4-2.9,4.8-5.3c-0.8-0.7-1.9-0.6-2.9-0.3c-2.9,0.6-5.8,1.6-8.4,3c-2.6,1.5-4.8,3.7-6.1,6.4
			c-1.3,2.9-1.5,6.1-1.4,9.3"/>
	</g>
	<g class="st6">
		<path d="M418.8,727.4c-0.5-2.1-1.1-4.1-1.7-6.1c-0.2-0.9-0.5-1.7-1-2.5c-0.7-0.9-1.5-1.6-2.4-2.2l-4-2.8c-0.8-0.6-1.6-1.1-2.4-1.5
			c-0.9-0.4-2-0.7-2.9-1.1c-2.3-1-4-2.9-4.8-5.3c0.8-0.7,1.9-0.6,2.9-0.3c2.9,0.6,5.8,1.6,8.4,3c2.6,1.4,4.8,3.7,6.1,6.4
			c1.3,2.9,1.5,6.1,1.4,9.3"/>
	</g>
	<g class="st6">
		<path d="M439.7,584.5l1.2,13.7c0.6,5.2,0.8,10.5,0.5,15.7c-0.4,4.9-1.5,9.7-2,14.5c-0.5,4.1-0.6,8.2-0.7,12.4l-0.6,25.9
			c2.2,2.1,6.1,0.6,7.6-2s1.2-5.9,0.9-8.9c-1.3-12.5-3-25.3-0.8-37.7c0.5-3,1.3-6,1.1-9.1c-0.2-4.6-2.6-8.9-2.5-13.5
			c0.1-3.8,1.9-7.8,0.3-11.3"/>
	</g>
</g>
<g id="NOSE">
	<path class="st1" d="M505.5,450.1L505.5,450.1c0,0,6.5,28.3-5.7,42.8c-5.1,6.1-12.9,9-21.7,12.3c-9.6,3.6-12,2.3-18.3,6.2
		c-10.1,6.2-10.6,13.6-16.1,13.6s-6.1-7.4-16.4-13.6c-5.8-3.5-7.9-2.6-16.8-5.8c-9.7-3.5-17.9-6.5-23.2-12.7
		c-12.2-14.4-5.7-42.9-5.7-42.8l0,0c-2.8,11.4-3,23.3-0.4,34.8c2.2,9.7,3,14.6,7.3,19.4c4,4.5,6.1,3.5,18.3,12
		c9.5,6.7,12.2,10,13.5,12c3.3,4.9,3.3,7.6,5.5,12.2c2.5,5.1,7.3,11.7,17.8,17.6c12.2-6.3,16.3-12.8,17.8-17.6
		c0.8-2.7,1.6-7.7,5.5-13c1.6-2,3.3-3.8,5.2-5.4c3.4-3.2,7-6.1,10.8-8.8c9.8-6.7,11.8-5.3,15.8-9c4.2-3.9,5-9.1,7.3-19.4
		C508.4,473.4,508.3,461.5,505.5,450.1z"/>
	<path class="st7" d="M496.4,491.8l-2.1-1.7c-1.2-1.2-2.5-2.4-3.8-3.5c-2.6-2-5.4-3.7-8.3-5.1c-4.6,3.8-9.8,6.9-15.3,9
		c-7.1,2.7-14.8,4-22.4,3.6l0,0h-1.5l0,0c-13.7,0.6-27.2-3.8-37.8-12.6c-3,1.4-5.8,3.1-8.3,5.1c-1.3,1.1-2.6,2.2-3.8,3.5l-2.1,1.7
		l-1.4,3.3c0.8,2.2,2.1,4.2,3.9,5.8c2.1,1.8,4.7,3,7.5,3.3c0.5,0,1.3,0,2.3,0c4.2,0.2,8.2,1.4,11.8,3.6c7.2,4.7,11.4,13.5,9.3,16.2
		c-0.6,0.8-2.1,1.3-3.3,3.4c-0.5,0.7-0.8,1.5-0.9,2.3c-0.1,1.5,0.8,2.7,2.7,5c0.7,1,1.5,1.9,2.5,2.7c1.2,0.8,2.4,0.8,6.3,0.6
		c4.1-0.2,6.1-0.3,6.8-0.6c3.2-1.6,4.2-5.3,4.6-7v-4.8c0.2-0.4,0.7-0.6,1.1-0.3c0.1,0.1,0.3,0.2,0.3,0.3v4.8c0.4,1.7,1.5,5.5,4.6,7
		c0.6,0.3,2.7,0.4,6.8,0.6c3.8,0.2,5,0.1,6.3-0.6c1-0.8,1.8-1.7,2.5-2.7c1.9-2.3,2.8-3.5,2.7-5c-0.1-0.8-0.4-1.6-0.9-2.3
		c-1.2-2.1-2.7-2.6-3.3-3.4c-2-2.7,2.2-11.6,9.3-16.2c3.6-2.2,7.6-3.4,11.8-3.6c1,0,1.7,0,2.3,0c2.8-0.3,5.4-1.5,7.5-3.3
		c1.8-1.6,3.1-3.5,3.9-5.8L496.4,491.8z"/>
	<polygon class="st1" points="459,583.8 447,564.7 447,551.5 443.2,546.7 439.1,551.7 439.1,564.9 427.3,583.8 	"/>
</g>
<g id="WIDE_STRIPES">
	<path class="st1" d="M313.5,409.6c-9.7,7.6-19.7,14.7-30.2,21.2c-14,8.6-17,9-22.4,12.7c-9,6.1-31.5,36.2-29.1,77.3
		c1.6,27.9,18,55.8,28.8,62.8c5.2,3.2,10.6,6.1,16.2,8.6c5.7,2.5,9.7,3.4,11.8,4.4c9.1,4.2,21.4,8.8,30.2,21.2
		c9.6,13.5,18.2,28.3,18,34.8c-3.9-8.5-8.8-16.5-14.6-23.8c-7.2-8.5-16-15.4-25.9-20.5c-3-1.6-6.9-2.8-14.6-5.4
		c-13.1-4.4-21.5-6.5-24-7.3c-20.6-6.4-41.3-52.8-38-90.3c2.4-28.4,16.4-48.3,21.4-53.6c5.3-5.4,11.2-10.2,17.6-14.3
		c8.4-5.2,14.6-7,21.6-9.7C291.9,422.9,303.1,416.9,313.5,409.6z"/>
	<path id="Stripe_2" class="st1" d="M250.5,419c-5.4,4.4-11.1,8.4-17.1,12c-13.8,8.5-20.3,9.5-29.2,15.9c-9.9,7-15.1,15-20.1,22.5
		c-21.8,33.1-17.1,68.1-17.1,76.7l0,0c0,0,0.1,53.7,46.2,88.6c7.3,5.5,26.5,17,41.2,18.5c5.6,0.5,11.1,1.3,16.5,2.6
		c4.8,1,9.5,2.4,14.1,4c13.9,5.1,23.3,16.9,30.9,26.6c4.8,6.1,16.7,17.6,22.2,35.3c2.3,7.6,5.4,14.3,5.9,19.2
		c-2.4-6-5.3-11.8-8.5-17.4c-6.9-11.6-15.3-22.3-25-31.7c-10.6-10.3-15.8-15.5-23.6-19.1c-16.1-7.5-24.8-1.9-45.3-6.4
		c0,0-15.6-3.4-33.3-14.6c-42.2-26.5-51-82.3-52.1-89.6c-0.4-2.8-7.7-58.2,21.3-95.8c6.2-8,16.6-21.5,33.3-29
		c3.5-1.6,8.7-3.5,18.8-8.1C238.4,425.1,245.7,421.5,250.5,419z"/>
	<path class="st1" d="M573.5,409.6c9.7,7.6,19.8,14.7,30.2,21.2c13.9,8.6,17,9,22.4,12.7c9,6.1,31.5,36.2,29.1,77.3
		c-1.6,27.9-18,55.8-28.8,62.8c-5.2,3.2-10.6,6.1-16.2,8.6c-5.7,2.5-9.7,3.4-11.8,4.4c-9.1,4.2-21.3,8.8-30.2,21.2
		c-9.6,13.5-18.2,28.3-18,34.8c3.8-8.5,8.7-16.5,14.6-23.8c7.2-8.5,16-15.4,25.9-20.5c3-1.6,6.9-2.8,14.6-5.4
		c13.1-4.4,21.5-6.5,24-7.3c20.6-6.4,41.3-52.8,38-90.3c-2.4-28.4-16.4-48.3-21.3-53.6c-5.3-5.4-11.2-10.2-17.6-14.3
		c-8.4-5.2-14.6-7-21.6-9.7C595.1,422.9,583.9,416.9,573.5,409.6z"/>
	<path class="st1" d="M636.5,419c5.5,4.3,11.2,8.3,17.1,12c12.6,8,22.9,9.3,30.2,14.8c9.5,7.2,14.3,15.4,19.1,23.5
		c21.9,37.2,17.1,76.7,17.1,76.7s-0.1,53.7-46.2,88.6c-7.3,5.5-26.5,17-41.2,18.5c-5.6,0.5-11.1,1.3-16.5,2.6c-4.8,1-9.5,2.4-14.1,4
		c-13.9,5.1-23.2,16.9-30.9,26.6c-4.8,6.1-16.7,17.6-22.2,35.3c-2.3,7.6-5.4,14.3-5.9,19.2c2.4-6,5.3-11.8,8.5-17.4
		c6.9-11.6,15.3-22.3,25-31.7c10.6-10.3,15.8-15.5,23.6-19.1c16.1-7.5,24.8-1.9,45.3-6.4c0,0,15.6-3.4,33.3-14.6
		c42.2-26.5,51-82.3,52.1-89.6c0.4-2.8,7.7-58.2-21.3-95.8c-6.2-8-16.6-21.5-33.2-29c-3.5-1.6-8.7-3.5-18.8-8.1
		C648.5,425.1,641.3,421.5,636.5,419z"/>
</g>
<g id="RIGHT_EYE">
	<path class="st1" d="M619.2,265.5c5.8,3.1,7.8,10.3,8.7,16.8c0.4,1.9,0.3,3.8-0.2,5.6c-0.6,1.6-1.6,3-2.9,4.1
		c-9.2,9-23,12.4-31.9,21.9c-0.5-5,4.3-8.6,8-12c3.7-3.3,6.7-7.2,9-11.5c1.2-2,1.9-4.3,2.1-6.6c0.1-3.3-1.6-6.4-1.5-9.7
		c0.3-5,4.3-8.9,9.2-9.1"/>
	<path class="st1" d="M540.5,215.4l9,1c1.2,0,2.4,0.5,3.4,1.3c0.6,0.9,0.9,2,1,3.1c1.2,5.2,7,7.5,12,9.4
		c11.5,4.4,22.5,11.2,29.3,21.5s8.7,24.3,2.4,34.9c-3,5-7.5,8.8-11,13.4c-3.8,5.1-7.4,11.7-13.7,12.3c11.9-11.6,18-29.2,14.4-45.5
		s-17.5-30-34-32.1c-1.6-0.2-3.2-0.3-4.4-1.4c-2.1-1.8-1.6-5-1.7-7.8c-0.1-3.8-1.8-7.4-4.5-10.1"/>
	<path class="st1" d="M560.6,246.7l13,14.2c2.1,2.1,4,4.5,5.4,7.1c3.6,7.4,0.8,16.6-4.4,23c-2.1,2.6-4.7,5-8,5.6
		c6.1-8.6,5.9-20.2-0.5-28.6c-1.4-1.8-3.2-3.4-4.4-5.3c-3.4-5.2-3-12-2.4-18.2"/>
	<path class="st1" d="M529.1,240.9c3.2,2.5,6.2,5.2,9.1,8c2.5,2.2,4.6,4.8,6.2,7.7c1.7,2.9,2.1,6.4,1.1,9.6
		c-0.9,2.6-2.9,4.7-4.2,7.1c-2.5,4.5-2.4,10-1.9,15.1c0.9,9,3.2,17.9,6.7,26.3c-3.8-4.3-7.6-8.6-10.3-13.6l-8.6-14.6
		c0,0-2.6-5.3-2.3-8.2c0.5-4.5,4-7.8,6.4-11.6c4.8-7.7,4.5-18.5-1.4-25.5"/>
	<path class="st1" d="M634.7,302c-1.6,3.7-4.5,6.7-8.2,8.3c-3.7,1.6-7.7,2.2-11.7,1.9c0.7-1,1.7-1.8,2.9-2.3
		c5-2.7,10.1-5.1,15.2-7.4"/>
	<path class="st1" d="M505.5,303.4c0.4-0.2,1,4.6,5.2,8.2c2.7,2.3,4.9,2.5,7.5,5.5c1.1,1.2,1.9,2.6,2.6,4.2c0.6,1.1,0.9,2.4,0.8,3.7
		c0,0.3-0.1,0.6-0.3,0.8c-0.2,0.2-0.5,0.4-0.9,0.5c-0.9,0.4-1.8,0.6-2.8,0.6c-2.8,0-5.1-2.7-5.3-2.9c-1.3-1.6-2.1-3.6-2.3-5.6
		C508.5,309.6,505,303.6,505.5,303.4z"/>
	<path class="st4" d="M545.8,366.6c-3.8,0-7.6-0.6-11.3-1.8c-2.6-0.9-5.2-2-7.7-3.2c-4.9-2.3-9.9-4.3-15-6c-1.8-0.6-3.7-0.9-5.6-0.9
		c-0.8,0-1.6,0.1-2.5,0.2c-0.5,0.1-1.1,0.2-1.6,0.3l3.2-5.8c6.5-2.3,12.7-5.5,18.3-9.5c2.9-2.1,5.6-4.4,8.3-6.8
		c4.5-4,8.4-7.4,15.5-10.6l0.6-0.3c2.1-1,4.3-1.8,6.6-2.3c3.6-0.9,7.3-1.3,11.1-1.3c6,0.1,11.9,0.8,17.8,1.9
		c5.8,1,11.7,2.3,17.5,3.9c-1.9,0.7-3.7,1.5-5.4,2.6c-2.9,1.7-5.5,4-7.5,6.7c-1.6,2.2-2.7,4.6-3.4,7.2c-0.4,1.4-1,2.8-1.6,4.2
		c-1.8,3.7-4.2,7-7.2,9.8c-6.1,6-13.9,9.8-22.3,11.1C551,366.4,548.4,366.6,545.8,366.6z"/>
	<path class="st1" d="M565.7,321.1c5.8,0.1,11.6,0.7,17.3,1.8c3.6,0.6,7.1,1.4,10.7,2.2c-3,1.8-5.6,4.2-7.7,7
		c-1.7,2.4-3,5.1-3.8,7.9c-0.4,1.3-0.9,2.7-1.5,3.9c-1.6,3.4-3.9,6.5-6.7,9.1c-5.7,5.6-13,9.2-20.9,10.3c-2.4,0.4-4.9,0.7-7.4,0.7
		c-3.6,0-7.1-0.5-10.5-1.7c-2.3-0.8-4.7-1.9-7.5-3.1c-4.9-2.4-10.1-4.4-15.3-6c-1.9-0.6-3.8-0.9-5.8-1l0.4-0.8
		c6.4-2.3,12.5-5.5,18-9.5c2.9-2.2,5.8-4.5,8.5-6.9c4.3-3.8,8.1-7.2,14.8-10.2l0.6-0.3c2-0.9,4-1.7,6.1-2.2
		C558.6,321.5,562.1,321.1,565.7,321.1 M565.7,316.2c-3.9,0-7.8,0.4-11.6,1.3c-2.6,0.7-5.2,1.6-7.7,2.8
		c-11.4,5.1-15.2,11.2-24.2,17.6c-5.7,4.1-11.9,7.3-18.5,9.5l-8.2,14.7c2.3-2.4,5.3-4.1,8.6-4.7c0.7-0.1,1.4-0.2,2.1-0.2
		c1.6,0,3.3,0.3,4.8,0.8c10.1,3.1,16.5,7.1,22.6,9.2c3.9,1.3,8,1.9,12.1,1.9c2.7,0,5.5-0.3,8.2-0.7c3.2-0.5,14.6-2.6,23.7-11.8
		c3.2-3,5.8-6.6,7.7-10.5c2-4.5,1.9-7,4.7-10.9c1.8-2.5,4.2-4.5,6.8-6.1c4.3-2.6,9.2-3.9,14.2-3.9c0.5,0,1,0,1.3,0
		c-9.3-3.1-18.9-5.5-28.6-7.2C577.9,316.8,571.8,316.2,565.7,316.2L565.7,316.2z"/>
	<path class="st1" d="M608.5,356.2c0.6,1.5,5.9,0.6,6.2,0.5c2.3-0.4,4.5-1.3,6.5-2.5c6.4-3.5,16.4,2.2,26.8,8.7
		c8,5,12.7,8,18.2,13.8c1.7,1.7,16.1,16.7,13,20.9c-4,5.4-36.8-10-56.5-13.6c-7.2-1.3-14.4-2-14.4-2c-1.7-0.1-5.2-0.4-9.7-0.6
		c-4.1-0.1-7.7-0.1-10.7,0c11.5,0.9,22.7,3.2,33.6,6.8c6.9,2.4,13.5,5.3,20,8.7c4,2,56.3,27.2,61.8,19.5c2.5-3.5-5.1-12.6-13.4-22.7
		c-11.9-14.3-33.6-35.6-46.5-43.1c-2.1-1.2-4.7-8.3-11-9.9c-4-1-7.8,0.2-9.7,0.8c-2.2,0.7-6,1.9-8.1,5.2c-0.5,0.9-0.3,0.9-1,2.2
		C611.2,353.5,608,355,608.5,356.2z"/>
	<path class="st1" d="M619.2,326.1c4.1-4.1,3.1-4.8,6.2-7.3c6.6-5.4,12.1-3.2,16.9-8.5c1.6-1.9,2.8-4.2,3.4-6.6
		c4.4-14.5-9.4-29.7-8.2-30.5c1.5-1,19.1,23.9,16.7,31c-0.8,2.2-1.4,4.5-1.9,6.7c-0.2,1.1-0.5,2.5-0.7,4.2c-0.3,2.8-0.1,5.7,0.4,8.4
		c0.9,5.5,1.6,9.5,4.1,12.3c6.5,7.5,25.9,8.1,28.9,10.6c1.4,1.1,2.7,2.4,3.8,3.8c0.3,0.3,4.9,5.3,14.2,15.2c5,5.3,7.8,8.1,10.4,10.8
		c22.6,23.2,37.3,50,42.4,61.4c0.7,1.7,3.2,7.1,2.8,7.4s-3.7-5.1-4.6-6.5c-10.8-17.5-24.9-30.4-50.9-64c0,0-15.8-18.8-29.8-24
		c-1.1-0.4-2.2-0.7-3.3-0.9c-4.4-0.9-9.3-1.1-15.3-4.7c-9.1-5.5-8.5-11.5-16-14.6c-10.1-4.2-21.3,2.5-22.3,3.1
		c-7.2,4.4-11.6,11.8-13.7,15.3c-2.8,4.7-4.3,8.7-9.2,12.4c-2.2,1.6-6.2,3.9-7.6,2.6s0.3-5.6,1-7.2c0.8-2,5.3-12.1,20.2-21.8
		C612.1,331.4,615,330.3,619.2,326.1z"/>
</g>
<g id="LEFT_EYE">
	<path class="st1" d="M256.4,265.5c-5.8,3.1-7.8,10.3-8.7,16.8c-0.4,1.9-0.3,3.8,0.2,5.6c0.6,1.6,1.6,3,2.9,4.1
		c9.2,9,23,12.4,31.9,21.9c0.5-5-4.3-8.6-8-12c-3.7-3.3-6.7-7.2-9-11.5c-1.2-2-1.9-4.2-2.1-6.6c-0.1-3.3,1.6-6.4,1.5-9.7
		c-0.3-5-4.3-8.9-9.2-9.1"/>
	<path class="st1" d="M335.2,215.4l-9,1c-1.2,0-2.4,0.5-3.3,1.3c-0.6,0.9-0.9,2-1,3.1c-1.2,5.2-7,7.5-12,9.4
		c-11.5,4.4-22.5,11.2-29.3,21.5s-8.7,24.3-2.4,34.9c3,5,7.5,8.8,11,13.4c3.8,5.1,7.4,11.7,13.7,12.3c-11.9-11.6-18-29.2-14.4-45.5
		s17.5-30,34-32.1c1.6-0.2,3.2-0.3,4.4-1.4c2.1-1.8,1.6-5,1.7-7.8c0.1-3.8,1.7-7.4,4.5-10.1"/>
	<path class="st1" d="M315,246.7l-13,14.2c-2.1,2.1-4,4.5-5.4,7.1c-3.6,7.4-0.8,16.6,4.4,23c2.1,2.6,4.7,5,8,5.6
		c-6.1-8.6-5.9-20.2,0.5-28.6c1.5-1.8,3.2-3.4,4.4-5.3c3.4-5.2,3-12,2.4-18.2"/>
	<path class="st1" d="M346.5,240.9c-3.1,2.5-6.2,5.2-9.1,8c-2.5,2.2-4.6,4.8-6.2,7.7c-1.7,2.9-2.1,6.4-1.1,9.6
		c0.9,2.6,2.9,4.7,4.2,7.1c2.5,4.5,2.4,10,1.9,15.1c-0.9,9-3.2,17.9-6.7,26.3c3.8-4.3,7.6-8.6,10.4-13.6l8.6-14.6
		c0,0,2.6-5.3,2.3-8.2c-0.5-4.5-4-7.8-6.4-11.6c-4.9-7.7-4.5-18.5,1.4-25.5"/>
	<path class="st1" d="M240.9,302c1.6,3.7,4.5,6.7,8.2,8.3c3.7,1.6,7.7,2.2,11.7,1.9c-0.7-1-1.7-1.8-2.9-2.3
		c-5-2.7-10.1-5.1-15.2-7.4"/>
	<path class="st1" d="M370.2,303.4c-0.4-0.2-1,4.6-5.2,8.2c-2.7,2.3-4.9,2.5-7.5,5.5c-1.1,1.2-1.9,2.6-2.6,4.2
		c-0.6,1.1-0.9,2.4-0.8,3.7c0,0.3,0.1,0.6,0.3,0.8c0.2,0.2,0.5,0.4,0.9,0.5c0.9,0.4,1.8,0.6,2.8,0.6c2.8,0,5.1-2.7,5.3-2.9
		c1.3-1.6,2.1-3.6,2.3-5.6C367.2,309.6,370.7,303.6,370.2,303.4z"/>
	<path class="st4" d="M329.8,366.6c-2.6,0-5.2-0.3-7.8-0.7c-8.4-1.2-16.2-5.1-22.3-11.1c-3-2.8-5.4-6.1-7.2-9.8
		c-0.6-1.4-1.1-2.8-1.6-4.2c-0.7-2.6-1.9-5-3.4-7.2c-2-2.7-4.6-5-7.5-6.7c-1.7-1-3.5-1.9-5.4-2.6c5.8-1.6,11.7-2.9,17.5-3.9
		c5.8-1.1,11.8-1.7,17.7-1.8c3.7,0,7.5,0.4,11.1,1.3c2.3,0.6,4.5,1.3,6.6,2.3l0.6,0.3c7.1,3.2,11,6.6,15.5,10.6
		c2.6,2.4,5.4,4.7,8.3,6.8c5.6,4,11.8,7.2,18.3,9.5l3.3,5.8c-0.5-0.1-1-0.2-1.6-0.3c-0.8-0.1-1.6-0.2-2.5-0.2
		c-1.9,0-3.8,0.3-5.6,0.9c-5.1,1.7-10.1,3.7-15,6c-2.5,1.2-5.1,2.3-7.7,3.2C337.5,366,333.7,366.6,329.8,366.6z"/>
	<path class="st1" d="M309.9,316.1v5c3.5,0,7.1,0.4,10.5,1.2c2.1,0.5,4.1,1.2,6.1,2.2l0.6,0.3c6.7,3,10.5,6.3,14.8,10.2
		c2.7,2.5,5.5,4.8,8.5,6.9c5.5,4,11.6,7.2,18,9.5l0.4,0.8c-2,0.1-3.9,0.4-5.8,1c-5.2,1.7-10.3,3.7-15.3,6.1
		c-2.8,1.3-5.2,2.4-7.5,3.1c-3.4,1.1-6.9,1.7-10.5,1.7c-2.5,0-4.9-0.2-7.4-0.7c-8.4-1.4-15.7-5-20.9-10.4c-2.8-2.6-5-5.7-6.7-9.1
		c-0.6-1.3-1.1-2.6-1.5-3.9c-0.8-2.8-2.1-5.5-3.8-7.9c-2.1-2.8-4.7-5.2-7.7-7c3.6-0.8,7.1-1.6,10.7-2.2c5.7-1.1,11.5-1.7,17.3-1.8
		L309.9,316.1 M309.8,316.1c-6.1,0.1-12.2,0.7-18.2,1.9c-9.7,1.7-19.2,4.1-28.6,7.2c0.4,0,0.8,0,1.3,0c5,0,9.9,1.3,14.2,3.9
		c2.6,1.5,5,3.6,6.8,6.1c2.9,3.9,2.7,6.4,4.7,10.9c1.9,4,4.5,7.5,7.7,10.5c9.1,9.2,20.5,11.2,23.7,11.8c2.7,0.5,5.4,0.7,8.2,0.7
		c4.1,0,8.2-0.6,12.1-1.9c6.1-2,12.5-6,22.6-9.2c1.6-0.5,3.2-0.8,4.8-0.8c0.7,0,1.4,0.1,2.1,0.2c3.3,0.6,6.3,2.2,8.6,4.7l-8.2-14.7
		c-6.6-2.2-12.9-5.4-18.5-9.5c-8.9-6.4-12.7-12.5-24.2-17.6c-2.4-1.2-5-2.1-7.6-2.7C317.7,316.6,313.8,316.1,309.8,316.1
		L309.8,316.1z"/>
	<path class="st1" d="M267.1,356.2c-0.7,1.5-5.9,0.6-6.2,0.5c-2.3-0.4-4.5-1.3-6.5-2.5c-6.4-3.5-16.4,2.2-26.8,8.7
		c-8,5-12.7,8-18.2,13.8c-1.6,1.7-16.1,16.7-13,20.9c4,5.4,36.8-10,56.5-13.6c7.2-1.3,14.4-2,14.4-2c1.7-0.2,5.2-0.4,9.7-0.6
		c4-0.1,7.7-0.1,10.7,0c-11.5,0.8-22.7,3.2-33.6,6.8c-6.9,2.4-13.5,5.3-20,8.7c-4,2-56.3,27.2-61.8,19.5
		c-2.5-3.5,5.1-12.6,13.4-22.7c11.9-14.3,33.6-35.6,46.5-43.1c2.1-1.2,4.7-8.3,11-9.9c4-1,7.8,0.2,9.7,0.8c2.2,0.7,6,1.9,8.1,5.2
		c0.5,0.9,0.3,0.9,1,2.2C264.4,353.5,267.7,355,267.1,356.2z"/>
	<path class="st1" d="M256.5,326.1c-4.1-4.1-3.1-4.8-6.2-7.3c-6.6-5.4-12.1-3.2-16.9-8.5c-1.7-1.9-2.8-4.2-3.4-6.6
		c-4.4-14.5,9.4-29.7,8.2-30.5c-1.5-1-19.1,23.9-16.7,31c0.8,2.2,1.4,4.5,1.9,6.7c0.2,1.1,0.5,2.5,0.7,4.2c0.3,2.8,0.1,5.7-0.4,8.4
		c-0.9,5.5-1.6,9.5-4.1,12.3c-6.6,7.5-25.9,8.1-28.9,10.6c-1.4,1.1-2.7,2.4-3.8,3.8c-0.3,0.3-4.9,5.3-14.2,15.2
		c-5,5.3-7.8,8.1-10.4,10.8c-22.6,23.2-37.3,50-42.4,61.4c-0.8,1.7-3.2,7.1-2.8,7.4s3.7-5.1,4.5-6.5c10.8-17.5,24.9-30.4,50.9-64
		c0,0,15.8-18.8,29.8-24c1.1-0.4,2.2-0.7,3.3-0.9c4.4-0.9,9.3-1.1,15.3-4.7c9.1-5.5,8.5-11.5,16-14.6c10.1-4.2,21.3,2.5,22.3,3.1
		c7.2,4.4,11.6,11.8,13.7,15.3c2.8,4.7,4.3,8.7,9.2,12.4c2.2,1.6,6.2,3.9,7.6,2.6s-0.3-5.6-1-7.2c-0.8-2-5.3-12.1-20.2-21.8
		C263.5,331.4,260.6,330.3,256.5,326.1z"/>
</g>
<g id="Left_E">
	<path class="st1" d="M427.8,151c-1.3,6.4-1.7,13-1.2,19.5c0.3,4.6,1.1,8.9-2,10.5s-7.6,0.2-8.9-0.3c-9.2-3.5-22.5-0.8-49.1,4.8
		c-6,1.3-12.1,2.8-53.7,17.7s-46.5,17.2-51.7,20.3c-26.5,15.5-40.3,34.4-40.3,34.3c-0.5-0.5,30.2-50.8,82-70
		c17.2-6.4,34.9-11.3,52.9-14.8c12.5-2.2,19.8-2.6,32.3-5.9C401.9,163.4,415.2,158,427.8,151z"/>
	<path class="st1" d="M430.5,127.5c-0.1,4.6-0.5,9.6-1,14.7c-0.3,3.4-1.6,8.1-2,11.3c-0.3,0.7-3.9,9.3-12.5,10.8
		c-2.8,0.5-5.8,0.2-8.5-0.9c4.2-3.6,6-8.4,4.8-12.4c-1.1-3.3-4-5-5.3-5.8c-5.2-3.2-11.1-2-15-1.5c-15,2-27.8,7.5-33,9.8
		c-7,3.1-16.1,7.4-26.5,13.2c5.1-8.3,12.1-15.3,20.3-20.5c13.6-8.5,27.7-10,34.7-10.8c9.2-1,11.3,0.2,20.8-1.2
		C415.2,132.9,423.1,130.7,430.5,127.5z"/>
	<path class="st1" d="M433.1,82.5c-1,6.4-1.3,12.9-1,19.5c0.2,4.6,0.8,8.9-1.5,10.5s-5.8,0-6.7-0.3c-11.4-4.6-49.9,2-77.1,12.8
		c-33.5,13.4-49.6,33.1-51.2,31.2c-1.9-2.1,15.1-31.5,46.2-43.8c23.6-9.3,39.5-2.5,68.8-16.2C418.6,92.5,426.1,87.9,433.1,82.5z"/>
	<path class="st1" d="M367.5,206.6c8.6,2.2,16.3-1.2,18,1.8c3.8,6.6,0.2,12.4,5.2,19.4c2.9,4,1.8,3.8,3.8,7.7
		c2.3,4.8,0.7,17.3-0.5,21.1c12.3-29.3,11.8-38.5,8.5-41c-1-0.7-3.1-1.7-4.7-4.2c-2.6-4.4-0.3-8.3-1.7-10.4
		C394.6,198.7,388.4,198.2,367.5,206.6z"/>
</g>
<g id="Right_E">
	<path class="st1" d="M444.9,151c1.3,6.4,1.7,12.9,1.3,19.5c-0.3,4.6-1.1,8.9,2,10.5s7.6,0.2,8.9-0.3c9.2-3.5,22.5-0.8,49.1,4.8
		c6,1.3,12.1,2.8,53.7,17.7s46.4,17.3,51.7,20.3c26.5,15.5,40.3,34.4,40.3,34.3c0.5-0.5-30.2-50.8-82-70
		c-17.2-6.4-34.9-11.3-52.9-14.8c-12.5-2.2-19.8-2.6-32.3-5.9C470.8,163.4,457.4,158,444.9,151z"/>
	<path class="st1" d="M442.1,127.5c0.1,4.6,0.5,9.6,1,14.7c0.3,3.4,1.6,8.1,2,11.3c0.3,0.7,3.9,9.3,12.5,10.8
		c2.8,0.5,5.8,0.2,8.5-0.9c-4.2-3.6-6-8.4-4.8-12.4c1.1-3.3,4-5,5.3-5.8c5.2-3.2,11.1-2,15-1.5c15,2,27.8,7.5,33,9.8
		c7,3.1,16.1,7.4,26.5,13.2c-5.1-8.3-12.1-15.3-20.3-20.5c-13.6-8.5-27.7-10-34.7-10.8c-9.2-1-11.3,0.2-20.8-1.2
		C457.4,132.9,449.6,130.7,442.1,127.5z"/>
	<path class="st1" d="M439.5,82.5c1,6.4,1.3,12.9,1,19.5c-0.2,4.6-0.8,8.9,1.5,10.5s5.8,0,6.7-0.3c11.4-4.6,49.9,2,77.1,12.8
		c33.5,13.4,49.6,33.1,51.2,31.2c1.9-2.1-15.1-31.5-46.2-43.8c-23.6-9.3-39.5-2.5-68.8-16.2C454,92.5,446.5,87.9,439.5,82.5z"/>
	<path class="st1" d="M502.5,206.6c-8.6,2.2-16.3-1.2-18,1.8c-3.8,6.6-0.2,12.4-5.2,19.4c-2.9,4-1.8,3.8-3.8,7.7
		c-2.3,4.8-0.7,17.3,0.5,21.1c-12.3-29.3-11.8-38.5-8.5-41c1-0.7,3.1-1.7,4.7-4.2c2.6-4.4,0.3-8.3,1.7-10.4
		C475.4,198.7,481.6,198.2,502.5,206.6z"/>
</g>
<g id="Wrinkles">
	<path class="st8" d="M374.8,359.3c3.8-0.6,7.7-0.8,11.5-0.6c22.3,1.4,37.3,17.5,42.4,23.5C414.7,367.4,395.2,359,374.8,359.3z"/>
	<path class="st8" d="M437.6,440.1c1.1-20-5.6-31.5-9.1-36.3c-18-24.9-62.6-31.8-107.8-10.8c43.3-19.1,86.6-12.6,105.7,12.2
		C430.3,410.3,437.1,421.3,437.6,440.1z"/>
	<path class="st8" d="M452.7,432.3c-1.9-22.4,8.4-43.8,26.7-55c21.2-13,43.5-6.4,47.1-5.3c-4.8-1-25.1-4.8-44.8,7.2
		C453.6,396.5,452.7,430,452.7,432.3z"/>
	<path class="st8" d="M409.9,438.5c-1.1-8.2-4.2-16.1-8.9-22.9c-15.4-22-42.8-20.4-46.8-20.6c5.5,0.5,25.9,0,41.5,17.1
		C402.6,419.7,407.4,428.7,409.9,438.5z"/>
	<path class="st8" d="M483.5,446.2c-3.6-23.2,7.1-46.2,26.8-57.7c17.5-10.2,39.4-9.9,57.2,0.8c-2.6-1.2-28.8-12.7-54.4,2
		C493.9,402.3,482.5,423.5,483.5,446.2z"/>
	<path class="st8" d="M371.5,347.3c8.8-1.6,17.8-1.8,26.6-0.5c13.8,2.1,23.5,7.2,23.5,7.3c-7.9-3.7-16.4-5.9-25.2-6.5
		c-7.8-0.4-15.6,0.7-23,3.2L371.5,347.3z"/>
	<path class="st8" d="M500.8,359.3c-3.8-0.6-7.6-0.8-11.5-0.6c-22.3,1.4-37.3,17.5-42.4,23.5C460.9,367.4,480.5,359,500.8,359.3z"/>
	<path class="st8" d="M504.2,347.3c-8.8-1.6-17.8-1.8-26.6-0.5c-13.8,2.1-23.5,7.2-23.5,7.3c7.9-3.7,16.4-5.9,25.2-6.5
		c7.8-0.4,15.6,0.7,23,3.2L504.2,347.3z"/>
</g>
</svg>
