<svg id="ENEIV-Au" xmlns="http://www.w3.org/2000/svg" xmlns:xlink="http://www.w3.org/1999/xlink" viewBox="0 0 188.1 51.2"><defs><style>.cls-1{font-size:45px;font-family:TimesNewRomanPSMT, Times New Roman;letter-spacing:0.1em;}.cls-2{letter-spacing:0.08em;}.cls-3{fill:url(#linear-gradient);}</style><linearGradient id="linear-gradient" x1="26.07" y1="98.04" x2="177.56" y2="98.04" gradientUnits="userSpaceOnUse"><stop offset="0" stop-color="#fa9917"/><stop offset="1" stop-color="#c66d1e"/></linearGradient></defs><title>ENEIV-Au</title><text class="cls-1" transform="translate(15.71 37.4)">ENEI<tspan class="cls-2" x="120.46" y="0">V</tspan><tspan x="156.64" y="0"> </tspan></text><path class="cls-3" d="M34.55,84.43V96.21H41.1c1.7,0,2.84-.26,3.41-.77a5,5,0,0,0,1.27-3.56h.82v10.37h-.82a11.42,11.42,0,0,0-.61-2.79,2.74,2.74,0,0,0-1.3-1.21,6.66,6.66,0,0,0-2.77-.44H34.55v9.82a9,9,0,0,0,.18,2.41,1.4,1.4,0,0,0,.62.68A3.72,3.72,0,0,0,37,111h5a13.91,13.91,0,0,0,3.67-.35,5.69,5.69,0,0,0,2.2-1.38,17.45,17.45,0,0,0,2.79-4.11h.88L49,112.6h-23v-.82h1.06a4.15,4.15,0,0,0,2-.5,1.86,1.86,0,0,0,.95-1.06,10.16,10.16,0,0,0,.26-2.88V88c0-1.89-.19-3.06-.58-3.5a3.4,3.4,0,0,0-2.63-.88H26.07V82.8H49l.33,6.53h-.85a10.38,10.38,0,0,0-1-3.23,3.49,3.49,0,0,0-1.66-1.34,10,10,0,0,0-3.1-.33Z" transform="translate(-9.44 -75.2)"/><path class="cls-3" d="M56.54,82.8h8.09l18.22,22.35V88c0-1.84-.21-3-.62-3.43a3.24,3.24,0,0,0-2.57-.93h-1V82.8H89v.81H87.94a3,3,0,0,0-2.68,1.15A6.72,6.72,0,0,0,84.78,88v25.11H84l-19.64-24v18.34c0,1.83.19,3,.59,3.43a3.28,3.28,0,0,0,2.57.92h1v.82H58.19v-.82h1a3.06,3.06,0,0,0,2.7-1.14,6.72,6.72,0,0,0,.48-3.21V86.71a13.63,13.63,0,0,0-2-2,7.25,7.25,0,0,0-2-.9,7.11,7.11,0,0,0-1.94-.2Z" transform="translate(-9.44 -75.2)"/><path class="cls-3" d="M103.54,84.43V96.21h6.55c1.7,0,2.83-.26,3.4-.77a5,5,0,0,0,1.28-3.56h.81v10.37h-.81a11.26,11.26,0,0,0-.62-2.79,2.68,2.68,0,0,0-1.29-1.21,6.69,6.69,0,0,0-2.77-.44h-6.55v9.82a9,9,0,0,0,.18,2.41,1.38,1.38,0,0,0,.61.68A3.72,3.72,0,0,0,106,111h5a13.86,13.86,0,0,0,3.67-.35,5.55,5.55,0,0,0,2.2-1.38,16.86,16.86,0,0,0,2.79-4.11h.88L118,112.6h-23v-.82h1a4.12,4.12,0,0,0,2-.5,1.88,1.88,0,0,0,1-1.06,10.29,10.29,0,0,0,.25-2.88V88c0-1.89-.19-3.06-.57-3.5a3.44,3.44,0,0,0-2.64-.88h-1V82.8h23l.33,6.53h-.86a10.38,10.38,0,0,0-1-3.23,3.44,3.44,0,0,0-1.66-1.34,9.93,9.93,0,0,0-3.1-.33Z" transform="translate(-9.44 -75.2)"/><path class="cls-3" d="M140,111.78v.82H127.24v-.82h1.06a3.2,3.2,0,0,0,2.68-1.07c.35-.47.53-1.6.53-3.39V88.08a9.83,9.83,0,0,0-.29-3,2,2,0,0,0-.9-1,4.2,4.2,0,0,0-2-.53h-1.06V82.8H140v.81h-1.08a3.16,3.16,0,0,0-2.66,1.08c-.36.47-.55,1.6-.55,3.39v19.24a9.83,9.83,0,0,0,.29,3,2,2,0,0,0,.92,1,4.06,4.06,0,0,0,2,.52Z" transform="translate(-9.44 -75.2)"/><path class="cls-3" d="M177.56,82.8v.81a4.86,4.86,0,0,0-2.4,1,9,9,0,0,0-2.06,3.29l-10.4,25.36h-.81L150.73,87.59a14.69,14.69,0,0,0-1.21-2.42,4,4,0,0,0-1.35-1.06,6.37,6.37,0,0,0-2.17-.5V82.8h12.18v.81a5.56,5.56,0,0,0-2.68.71,1.6,1.6,0,0,0-.62,1.29,10,10,0,0,0,1,3.43l7.58,17.47,7-17.25a11.66,11.66,0,0,0,1-3.54,1.7,1.7,0,0,0-.64-1.22,4.26,4.26,0,0,0-2.15-.82l-.38-.07V82.8Z" transform="translate(-9.44 -75.2)"/></svg>