<svg id="ENEIV-Ag" xmlns="http://www.w3.org/2000/svg" xmlns:xlink="http://www.w3.org/1999/xlink" viewBox="0 0 40.96 199.44"><defs><style>.cls-1{font-size:36px;font-family:TimesNewRomanPSMT, Times New Roman;letter-spacing:0.1em;}.cls-2{letter-spacing:0.08em;}.cls-3{letter-spacing:0.1em;}.cls-4{fill:url(#linear-gradient);}.cls-5{fill:url(#linear-gradient-6);}</style><linearGradient id="linear-gradient" x1="1.1" y1="93.7" x2="122.29" y2="93.7" gradientTransform="translate(2.56 199.88) rotate(-90)" gradientUnits="userSpaceOnUse"><stop offset="0" stop-color="#f2f2f2"/><stop offset="1" stop-color="#b3b3b3"/></linearGradient><linearGradient id="linear-gradient-6" x1="18.02" y1="0" x2="18.02" y2="75" gradientTransform="matrix(1, 0, 0, 1, 0, 0)" xlink:href="#linear-gradient"/></defs><title>ENEIV-Ag</title><text class="cls-1" transform="translate(29.92 198.52) rotate(-90)">ENEI<tspan class="cls-2" x="96.37" y="0">V</tspan><tspan class="cls-3" x="125.31" y="0"> </tspan></text><path class="cls-4" d="M85.37,192h9.42v-5.24a4.29,4.29,0,0,0-.62-2.73,3.94,3.94,0,0,0-2.84-1v-.65h8.29V183a9.62,9.62,0,0,0-2.23.49,2.29,2.29,0,0,0-1,1,5.39,5.39,0,0,0-.35,2.22V192h7.86a6.79,6.79,0,0,0,1.92-.15,1.08,1.08,0,0,0,.55-.49,3,3,0,0,0,.2-1.33V186a10.86,10.86,0,0,0-.28-2.93,4.41,4.41,0,0,0-1.11-1.76,13.29,13.29,0,0,0-3.28-2.23v-.71l6,2.06v18.37h-.65v-.84a3.3,3.3,0,0,0-.4-1.6,1.49,1.49,0,0,0-.85-.77,8.45,8.45,0,0,0-2.3-.2H88.21a5,5,0,0,0-2.79.46,2.71,2.71,0,0,0-.7,2.11v.84h-.65V180.41l5.22-.26v.68a8.3,8.3,0,0,0-2.59.82A2.81,2.81,0,0,0,85.63,183a8.16,8.16,0,0,0-.26,2.48Z" transform="translate(-77.98 -1)"/><path class="cls-4" d="M84.07,174.4v-6.47l17.87-14.57H88.2a4.78,4.78,0,0,0-2.74.49,2.59,2.59,0,0,0-.74,2.06v.83h-.65v-8.3h.65v.84a2.42,2.42,0,0,0,.91,2.15,5.35,5.35,0,0,0,2.57.38h20.09v.64l-19.2,15.71h14.68a4.92,4.92,0,0,0,2.74-.47,2.62,2.62,0,0,0,.74-2.06v-.84h.65v8.29h-.65v-.82a2.43,2.43,0,0,0-.91-2.16,5.31,5.31,0,0,0-2.57-.39H87.2a10.72,10.72,0,0,0-1.6,1.57,5.61,5.61,0,0,0-.72,1.58,5.37,5.37,0,0,0-.16,1.54Z" transform="translate(-77.98 -1)"/><path class="cls-4" d="M85.37,136.81h9.42v-5.24a4.29,4.29,0,0,0-.62-2.73,3.94,3.94,0,0,0-2.84-1v-.65h8.29v.65a9,9,0,0,0-2.23.5,2.21,2.21,0,0,0-1,1,5.39,5.39,0,0,0-.35,2.22v5.24h7.86a7.42,7.42,0,0,0,1.92-.14,1.15,1.15,0,0,0,.55-.5,3,3,0,0,0,.2-1.33v-4.05a10.86,10.86,0,0,0-.28-2.93,4.41,4.41,0,0,0-1.11-1.76,13.57,13.57,0,0,0-3.28-2.23v-.7l6,2v18.37h-.65v-.84a3.33,3.33,0,0,0-.4-1.6,1.49,1.49,0,0,0-.85-.77,8.45,8.45,0,0,0-2.3-.2H88.21a5,5,0,0,0-2.79.46,2.71,2.71,0,0,0-.7,2.11v.84h-.65V125.22l5.22-.26v.68a8.3,8.3,0,0,0-2.59.82,2.81,2.81,0,0,0-1.07,1.33,8.16,8.16,0,0,0-.26,2.48Z" transform="translate(-77.98 -1)"/><path class="cls-4" d="M107.25,107.63h.65v10.21h-.65V117a2.55,2.55,0,0,0-.86-2.14,5.23,5.23,0,0,0-2.71-.43H88.29a8,8,0,0,0-2.4.23,1.61,1.61,0,0,0-.75.72,3.37,3.37,0,0,0-.42,1.62v.84h-.65V107.63h.65v.86a2.52,2.52,0,0,0,.86,2.13,5.2,5.2,0,0,0,2.71.44h15.39a7.91,7.91,0,0,0,2.39-.23,1.54,1.54,0,0,0,.76-.74,3.24,3.24,0,0,0,.42-1.6Z" transform="translate(-77.98 -1)"/><path class="cls-4" d="M84.07,77.59h.65a3.8,3.8,0,0,0,.81,1.92,7.26,7.26,0,0,0,2.63,1.65l20.29,8.32v.65L87.9,99.06A11,11,0,0,0,86,100a3.31,3.31,0,0,0-.85,1.08,5.21,5.21,0,0,0-.39,1.73h-.65V93.1h.65a4.36,4.36,0,0,0,.56,2.14,1.27,1.27,0,0,0,1,.49,7.94,7.94,0,0,0,2.74-.81l14-6.06-13.8-5.62a9,9,0,0,0-2.83-.83,1.32,1.32,0,0,0-1,.51,3.35,3.35,0,0,0-.66,1.72c0,.06,0,.16,0,.3h-.65Z" transform="translate(-77.98 -1)"/><rect id="Line" class="cls-5" x="17.52" width="1" height="75"/></svg>