<?xml version="1.0" encoding="utf-8"?>
<!-- Generator: Adobe Illustrator 22.1.0, SVG Export Plug-In . SVG Version: 6.00 Build 0)  -->
<svg version="1.1" id="Tiger" xmlns="http://www.w3.org/2000/svg" xmlns:xlink="http://www.w3.org/1999/xlink" x="0px" y="0px"
	 viewBox="0 0 30.3 30.3" style="enable-background:new 0 0 30.3 30.3;" xml:space="preserve">
<style type="text/css">
	.st0{fill:#D68848;stroke:#000000;stroke-width:0.525;stroke-miterlimit:10;}
	.st1{fill:#1A1A1A;}
	.st2{fill:#FFC8DF;}
	.st3{fill:#A55C7F;}
	.st4{fill:#FFFFFF;}
	.st5{fill:#F2F2F2;}
	.st6{opacity:0.1;}
	.st7{fill:#E7B2AA;}
	.st8{opacity:0.2;fill:#A33A27;enable-background:new    ;}
</style>
<title>Untitled-1</title>
<circle class="st0" cx="15.1" cy="15.1" r="14.9"/>
<g id="MOUTH_STRIPES_1_">
	<g id="Mouth_-1_Stripes_1_">
		<path class="st1" d="M11.4,14.9c-0.2,0.1-0.3,0.1-0.5,0.2c-0.1,0-0.1,0.1-0.2,0.2c0,0.1,0,0.2,0,0.2c0.1,0.3,0.4,0.4,0.8,0.6
			c0.4,0.2,0.8,0.4,1.1,0.7c-0.1-0.1-0.1-0.2-0.2-0.3c-0.1-0.1-0.2-0.2-0.3-0.3c-0.1-0.1-0.3-0.2-0.4-0.3c-0.1-0.1-0.3-0.1-0.4-0.3
			c0,0,0,0,0,0C11.1,15.4,11.3,15.1,11.4,14.9z"/>
		<path class="st1" d="M9.7,16.1c-0.1,0-0.1,0.2-0.1,0.3c0,0.1,0,0.1,0,0.2c0,0.1,0.1,0.2,0.2,0.2c1.5,1,2.4,1.3,2.4,1.3
			c0.2,0.1,0.5,0.2,0.8,0.3c0.2,0.1,0.4,0.1,0.6,0.1c-0.1,0-0.2-0.1-0.4-0.2c-0.5-0.2-0.8-0.4-0.9-0.4c-0.7-0.4-1.9-1.1-2.1-1.3
			c0,0-0.1-0.1-0.1-0.1l-0.1-0.1L9.7,16.1z"/>
		<path class="st1" d="M9.7,17.6c0,0-0.1,0-0.1,0c0,0,0,0,0,0.1c0,0.1,0.1,0.2,0.1,0.3c0,0.1,0.1,0.1,0.1,0.2c0,0,0.1,0.1,0.2,0.1
			c1.4,0.7,2.9,1.2,4.5,1.3c-1.6-0.3-3-0.9-4.4-1.7L9.7,17.6z"/>
		<path class="st1" d="M9.8,19c0.2-0.1,0.4,0.2,0.8,0.4c0.2,0.1,0.3,0.1,0.5,0.2c0.2,0,0.3,0.1,0.5,0.1l2.4,0.4
			c-1.9-0.2-2.8-0.2-3.2-0.1c-0.2,0-0.3,0-0.5-0.1C9.9,19.6,9.7,19.2,9.8,19C9.8,19,9.8,19,9.8,19z"/>
	</g>
	<g id="Mouth_-1_Stripes-2_1_">
		<path class="st1" d="M19.7,14.9c0.2,0.1,0.3,0.1,0.5,0.2c0.1,0,0.1,0.1,0.2,0.2c0,0.1,0,0.2,0,0.2c-0.1,0.3-0.4,0.4-0.8,0.6
			c-0.4,0.2-0.8,0.4-1.1,0.7c0.1-0.1,0.1-0.2,0.2-0.3c0.1-0.1,0.2-0.2,0.3-0.3c0.1-0.1,0.3-0.2,0.4-0.3c0.1-0.1,0.3-0.1,0.4-0.3
			c0,0,0,0,0,0C19.9,15.4,19.8,15.1,19.7,14.9z"/>
		<path class="st1" d="M21.3,16.1c0.1,0,0.1,0.2,0.1,0.3c0,0.1,0,0.1,0,0.2c0,0.1-0.1,0.2-0.2,0.2c-1.5,1-2.4,1.3-2.4,1.3
			c-0.2,0.1-0.5,0.2-0.8,0.3c-0.2,0.1-0.4,0.1-0.6,0.1c0.1,0,0.2-0.1,0.4-0.2c0.5-0.2,0.8-0.4,0.9-0.4c0.7-0.4,1.9-1.1,2.1-1.3
			l0.1-0.1l0.1-0.1L21.3,16.1z"/>
		<path class="st1" d="M21.3,17.6c0,0,0.1,0,0.1,0c0,0,0,0,0,0.1c0,0.1-0.1,0.2-0.1,0.3c0,0.1-0.1,0.1-0.1,0.2c0,0-0.1,0.1-0.2,0.1
			c-1.4,0.7-2.9,1.2-4.5,1.3c1.6-0.3,3-0.9,4.4-1.7L21.3,17.6z"/>
		<path class="st1" d="M21.2,19c-0.2-0.1-0.4,0.2-0.8,0.4c-0.2,0.1-0.3,0.1-0.5,0.2c-0.2,0-0.3,0.1-0.5,0.1L17.1,20
			c1.9-0.2,2.8-0.2,3.2-0.1c0.2,0,0.3,0,0.5-0.1C21.1,19.6,21.4,19.2,21.2,19C21.3,19,21.2,19,21.2,19z"/>
	</g>
</g>
<g id="MOUTH_1_">
	<path id="Mouth_-_BG_1_" class="st1" d="M18.8,20.8c0-0.1,0-0.2-0.1-0.2c0,0,0,0,0,0c-2.1-0.3-4.3-0.3-6.4,0
		c-0.1,0-0.1,0.1-0.1,0.2c0,0,0,0,0,0c0.5,1.3,0.5,2.3,0.5,3c0,0.7-0.2,1.8,0.4,2.6c0.1,0.1,0.2,0.2,0.3,0.3c0.6,0.4,1,0,2.1,0l0,0
		c1.1,0,1.6,0.3,2.1,0c0.1-0.1,0.2-0.2,0.3-0.3c0.6-0.8,0.4-1.9,0.4-2.6C18.3,23.1,18.4,22.1,18.8,20.8z"/>
	<path class="st1" d="M12.4,20.6c0,0-0.4,0-0.4,0.2s0.4,0.4,0.4,0.4L12.4,20.6z"/>
	<path class="st1" d="M18.6,20.6c0,0,0.4,0,0.4,0.2s-0.4,0.4-0.4,0.4L18.6,20.6z"/>
	<path id="Mouth_Inside_BG_1_" class="st2" d="M18.2,23.4c0-0.3,0.1-1,0.6-2.6c-0.4-0.1-0.9-0.1-1.4-0.2c-0.6,0-1.8-0.1-1.8-0.1
		s-1.1,0-1.8,0.1c-0.5,0-1,0.1-1.4,0.2c0.5,1.6,0.6,2.3,0.6,2.6c0,0,0,0.2,0,0.4c0,0.4,0,0.6,0,0.8c0,0.3,0,0.6,0.1,0.9
		c0.1,0.2,0.2,0.6,0.5,0.8c0.2,0.1,0.3,0.2,0.5,0.2c0.2,0,0.4,0,0.8-0.1c0.2,0,0.5-0.1,0.8-0.1c0.3,0,0.6,0.1,0.8,0.1
		c0.4,0.1,0.5,0.1,0.8,0.1c0.2,0,0.4-0.1,0.5-0.2c0.3-0.2,0.4-0.6,0.5-0.8c0.1-0.3,0.1-0.5,0.1-0.9c0-0.2,0-0.4,0-0.8
		C18.2,23.6,18.2,23.4,18.2,23.4z"/>
	<path id="Tongue_1_" class="st3" d="M17.9,22.6c0,0-0.1-0.2-0.2-0.4c0,0-0.1-0.1-0.1-0.3c-0.2-0.5-0.2-1.2-0.2-1.3
		c-0.6,0-1.8-0.1-1.8-0.1c-0.6,0-1.3,0-1.9,0.1c0,0,0,0.8-0.2,1.3c0,0.1-0.1,0.3-0.1,0.3c-0.1,0.2-0.2,0.4-0.2,0.4
		c-0.3,0.5,0.1,1.6,0.4,2c0.1,0.2,0.2,0.3,0.3,0.3c0,0,0.1,0.1,0.3,0.2c0.1,0,0.1,0.1,0.1,0.2c0,0,0,0,0,0c0,0,0,0.1,0,0.1
		c0,0.1,0.3,0.3,1.1,0.3v0c0,0,0,0,0.1,0v0c0.1,0,0.2,0,0.2,0v0c0.8,0,1.1-0.2,1.1-0.3c0,0,0-0.1,0-0.1c0,0,0,0,0,0
		c0-0.1,0.1-0.1,0.1-0.2c0.1-0.1,0.2-0.2,0.3-0.2c0.1-0.1,0.2-0.2,0.3-0.4C17.8,24.2,18.2,23.1,17.9,22.6z"/>
	<path class="st4" d="M14,20.6c0,0.1,0.1,0.2,0.1,0.3c0,0,0.2-0.1,0.3-0.3c0,0,0-0.1,0-0.1l0.2,0c0,0.1,0,0.2,0.1,0.2
		c0.1,0,0.2,0,0.2-0.1c0,0,0-0.1,0-0.1l0.2,0c0,0.1,0,0.2,0.1,0.2c0,0,0.1,0,0.1,0c0.1,0,0.1-0.1,0.1-0.2h0.2c0,0.1,0,0.2,0.1,0.2
		c0,0,0.1,0,0.2,0c0.1,0,0.1-0.1,0.1-0.2h0.1c0,0.1,0,0.2,0.1,0.2c0.1,0,0.1,0,0.2,0c0.1,0,0.1-0.1,0.1-0.2l0.2,0
		c0,0.1,0,0.2,0.1,0.2c0.1,0.1,0.1,0.1,0.2,0.1c0-0.1,0.1-0.2,0.1-0.4C16,20.5,15,20.5,14,20.6z"/>
	<path class="st4" d="M12.3,20.8c-0.1,0.8,0.1,1.6,0.6,2.2c0-0.3,0-0.7,0.1-1c0-0.2,0.1-0.5,0.1-0.9c0-0.2,0-0.3,0-0.4
		c-0.2,0-0.4,0-0.5,0.1C12.5,20.8,12.4,20.8,12.3,20.8z"/>
	<path class="st4" d="M18.7,20.8c0.1,0.8-0.1,1.6-0.6,2.2c0-0.3,0-0.7-0.1-1c0-0.2-0.1-0.5-0.1-0.9c0-0.2,0-0.3,0-0.4L18.7,20.8z"/>
	<path class="st5" d="M14.1,25.3c-0.1-0.1-0.3-0.2-0.4-0.3c-0.3-0.3-0.5-0.7-0.7-1c-0.1,0.4-0.1,0.7-0.1,1.1c0,0.5,0.2,0.8,0.3,0.9
		c0.1,0.2,0.2,0.2,0.3,0.2c0.2,0,0.4-0.1,0.6-0.3C14.2,25.6,14.1,25.4,14.1,25.3z"/>
	<path class="st5" d="M16.9,25.3c0.1-0.1,0.3-0.2,0.4-0.3c0.3-0.3,0.5-0.7,0.7-1c0.1,0.4,0.1,0.7,0.1,1.1c0,0.5-0.2,0.8-0.3,0.9
		c-0.1,0.2-0.2,0.2-0.3,0.2c-0.2,0-0.4-0.1-0.6-0.3C16.8,25.6,16.8,25.4,16.9,25.3z"/>
	<path class="st5" d="M14.4,26.1c0,0-0.1-0.1-0.1-0.1c0-0.1,0-0.1,0-0.2c0,0.1,0.1,0.1,0.1,0.2c0.1,0,0.1,0.1,0.2,0.1
		c0,0,0,0.1-0.1,0.1C14.5,26.2,14.5,26.1,14.4,26.1z"/>
	<path class="st5" d="M16.6,26.1c0,0,0.1-0.1,0.1-0.1c0-0.1,0-0.1,0-0.2c0,0.1-0.1,0.1-0.1,0.2c-0.1,0-0.1,0.1-0.2,0.1
		c0,0,0,0.1,0.1,0.1C16.5,26.2,16.6,26.1,16.6,26.1z"/>
	<polygon class="st5" points="14.7,26 14.9,25.9 15,26 15.1,25.9 15.3,26 15.5,26 15.5,25.9 15.8,26 15.9,25.9 16,26 16.2,26 
		16.3,26 16.3,26 16.4,26 16.4,26 16.3,26.2 14.8,26.2 	"/>
</g>
<g id="MOUTH_SHADOW_1_">
	<g class="st6">
		<path d="M16.5,25.5c0-0.1,0-0.1,0.1-0.2c0,0,0-0.1,0-0.1c0,0,0.1-0.1,0.1-0.1l0.1-0.1c0,0,0.1,0,0.1-0.1c0,0,0.1,0,0.1,0
			c0.1,0,0.1-0.1,0.2-0.2c0,0-0.1,0-0.1,0c-0.1,0-0.2,0.1-0.3,0.1c-0.1,0.1-0.2,0.1-0.2,0.2c0,0.1-0.1,0.2,0,0.3"/>
	</g>
	<g class="st6">
		<path d="M14.7,25.5c0-0.1,0-0.1-0.1-0.2c0,0,0-0.1,0-0.1c0,0-0.1-0.1-0.1-0.1L14.4,25c0,0-0.1,0-0.1-0.1c0,0-0.1,0-0.1,0
			c-0.1,0-0.1-0.1-0.2-0.2c0,0,0.1,0,0.1,0c0.1,0,0.2,0.1,0.3,0.1c0.1,0.1,0.2,0.1,0.2,0.2c0,0.1,0.1,0.2,0,0.3"/>
	</g>
	<g class="st6">
		<path d="M15.4,20.5l0,0.5c0,0.2,0,0.4,0,0.5c0,0.2-0.1,0.3-0.1,0.5c0,0.1,0,0.3,0,0.4l0,0.9c0.1,0.1,0.2,0,0.3-0.1
			c0.1-0.1,0-0.2,0-0.3c0-0.4-0.1-0.9,0-1.3c0-0.1,0-0.2,0-0.3c0-0.2-0.1-0.3-0.1-0.5c0-0.1,0.1-0.3,0-0.4"/>
	</g>
</g>
<g id="NOSE_1_">
	<path class="st1" d="M17.7,15.8L17.7,15.8c0,0,0.2,1-0.2,1.5c-0.2,0.2-0.5,0.3-0.8,0.4c-0.3,0.1-0.4,0.1-0.6,0.2
		c-0.4,0.2-0.4,0.5-0.6,0.5s-0.2-0.3-0.6-0.5c-0.2-0.1-0.3-0.1-0.6-0.2c-0.3-0.1-0.6-0.2-0.8-0.4c-0.4-0.5-0.2-1.5-0.2-1.5l0,0
		c-0.1,0.4-0.1,0.8,0,1.2c0.1,0.3,0.1,0.5,0.3,0.7c0.1,0.2,0.2,0.1,0.6,0.4c0.3,0.2,0.4,0.4,0.5,0.4c0.1,0.2,0.1,0.3,0.2,0.4
		c0.1,0.2,0.3,0.4,0.6,0.6c0.4-0.2,0.6-0.4,0.6-0.6c0-0.1,0.1-0.3,0.2-0.5c0.1-0.1,0.1-0.1,0.2-0.2c0.1-0.1,0.2-0.2,0.4-0.3
		c0.3-0.2,0.4-0.2,0.6-0.3c0.1-0.1,0.2-0.3,0.3-0.7C17.8,16.6,17.8,16.2,17.7,15.8z"/>
	<path class="st7" d="M17.4,17.2L17.4,17.2c-0.1-0.1-0.2-0.1-0.2-0.2c-0.1-0.1-0.2-0.1-0.3-0.2c-0.2,0.1-0.3,0.2-0.5,0.3
		c-0.3,0.1-0.5,0.1-0.8,0.1l0,0h-0.1l0,0c-0.5,0-1-0.1-1.3-0.4c-0.1,0-0.2,0.1-0.3,0.2c0,0-0.1,0.1-0.1,0.1l-0.1,0.1l-0.1,0.1
		c0,0.1,0.1,0.1,0.1,0.2c0.1,0.1,0.2,0.1,0.3,0.1c0,0,0,0,0.1,0c0.1,0,0.3,0,0.4,0.1c0.3,0.2,0.4,0.5,0.3,0.6c0,0-0.1,0-0.1,0.1
		c0,0,0,0.1,0,0.1c0,0.1,0,0.1,0.1,0.2c0,0,0.1,0.1,0.1,0.1c0,0,0.1,0,0.2,0c0.1,0,0.2,0,0.2,0c0.1-0.1,0.1-0.2,0.2-0.2v-0.2
		c0,0,0,0,0,0c0,0,0,0,0,0v0.2c0,0.1,0.1,0.2,0.2,0.2c0,0,0.1,0,0.2,0c0.1,0,0.2,0,0.2,0c0,0,0.1-0.1,0.1-0.1
		c0.1-0.1,0.1-0.1,0.1-0.2c0,0,0-0.1,0-0.1c0-0.1-0.1-0.1-0.1-0.1c-0.1-0.1,0.1-0.4,0.3-0.6c0.1-0.1,0.3-0.1,0.4-0.1
		c0,0,0.1,0,0.1,0c0.1,0,0.2-0.1,0.3-0.1c0.1-0.1,0.1-0.1,0.1-0.2L17.4,17.2z"/>
	<polygon class="st1" points="16.1,20.4 15.7,19.8 15.7,19.3 15.5,19.1 15.4,19.3 15.4,19.8 15,20.4 	"/>
</g>
<g id="WIDE_STRIPES_1_">
	<path class="st1" d="M11,14.3c-0.3,0.3-0.7,0.5-1.1,0.7c-0.5,0.3-0.6,0.3-0.8,0.4c-0.3,0.2-1.1,1.3-1,2.7c0.1,1,0.6,2,1,2.2
		c0.2,0.1,0.4,0.2,0.6,0.3c0.2,0.1,0.3,0.1,0.4,0.2c0.3,0.1,0.7,0.3,1.1,0.7c0.3,0.5,0.6,1,0.6,1.2c-0.1-0.3-0.3-0.6-0.5-0.8
		c-0.3-0.3-0.6-0.5-0.9-0.7c-0.1-0.1-0.2-0.1-0.5-0.2C9.4,21,9.1,20.9,9,20.9c-0.7-0.2-1.4-1.8-1.3-3.2c0.1-1,0.6-1.7,0.7-1.9
		c0.2-0.2,0.4-0.4,0.6-0.5c0.3-0.2,0.5-0.2,0.8-0.3C10.2,14.8,10.6,14.6,11,14.3z"/>
	<path id="Stripe_2_1_" class="st1" d="M8.8,14.7c-0.2,0.2-0.4,0.3-0.6,0.4c-0.5,0.3-0.7,0.3-1,0.6c-0.3,0.2-0.5,0.5-0.7,0.8
		c-0.8,1.2-0.6,2.4-0.6,2.7l0,0c0,0,0,1.9,1.6,3.1c0.3,0.2,0.9,0.6,1.4,0.6c0.2,0,0.4,0,0.6,0.1c0.2,0,0.3,0.1,0.5,0.1
		c0.5,0.2,0.8,0.6,1.1,0.9c0.2,0.2,0.6,0.6,0.8,1.2c0.1,0.3,0.2,0.5,0.2,0.7c-0.1-0.2-0.2-0.4-0.3-0.6c-0.2-0.4-0.5-0.8-0.9-1.1
		c-0.4-0.4-0.6-0.5-0.8-0.7c-0.6-0.3-0.9-0.1-1.6-0.2c0,0-0.5-0.1-1.2-0.5c-1.5-0.9-1.8-2.9-1.8-3.1c0-0.1-0.3-2,0.7-3.4
		c0.2-0.3,0.6-0.8,1.2-1C7.5,15.3,7.7,15.2,8,15C8.4,14.9,8.6,14.8,8.8,14.7z"/>
	<path class="st1" d="M20.1,14.3c0.3,0.3,0.7,0.5,1.1,0.7c0.5,0.3,0.6,0.3,0.8,0.4c0.3,0.2,1.1,1.3,1,2.7c-0.1,1-0.6,2-1,2.2
		c-0.2,0.1-0.4,0.2-0.6,0.3c-0.2,0.1-0.3,0.1-0.4,0.2c-0.3,0.1-0.7,0.3-1.1,0.7c-0.3,0.5-0.6,1-0.6,1.2c0.1-0.3,0.3-0.6,0.5-0.8
		c0.3-0.3,0.6-0.5,0.9-0.7c0.1-0.1,0.2-0.1,0.5-0.2c0.5-0.2,0.8-0.2,0.8-0.3c0.7-0.2,1.4-1.8,1.3-3.2c-0.1-1-0.6-1.7-0.7-1.9
		c-0.2-0.2-0.4-0.4-0.6-0.5c-0.3-0.2-0.5-0.2-0.8-0.3C20.8,14.8,20.4,14.6,20.1,14.3z"/>
	<path class="st1" d="M22.3,14.7c0.2,0.2,0.4,0.3,0.6,0.4c0.4,0.3,0.8,0.3,1.1,0.5c0.3,0.3,0.5,0.5,0.7,0.8c0.8,1.3,0.6,2.7,0.6,2.7
		s0,1.9-1.6,3.1c-0.3,0.2-0.9,0.6-1.4,0.6c-0.2,0-0.4,0-0.6,0.1c-0.2,0-0.3,0.1-0.5,0.1c-0.5,0.2-0.8,0.6-1.1,0.9
		c-0.2,0.2-0.6,0.6-0.8,1.2c-0.1,0.3-0.2,0.5-0.2,0.7c0.1-0.2,0.2-0.4,0.3-0.6c0.2-0.4,0.5-0.8,0.9-1.1c0.4-0.4,0.6-0.5,0.8-0.7
		c0.6-0.3,0.9-0.1,1.6-0.2c0,0,0.5-0.1,1.2-0.5c1.5-0.9,1.8-2.9,1.8-3.1c0-0.1,0.3-2-0.7-3.4c-0.2-0.3-0.6-0.8-1.2-1
		c-0.1-0.1-0.3-0.1-0.7-0.3C22.7,14.9,22.5,14.8,22.3,14.7z"/>
</g>
<g id="RIGHT_EYE_1_">
	<path class="st1" d="M21.7,9.3C21.9,9.4,22,9.7,22,9.9c0,0.1,0,0.1,0,0.2c0,0.1-0.1,0.1-0.1,0.1c-0.3,0.3-0.8,0.4-1.1,0.8
		c0-0.2,0.2-0.3,0.3-0.4c0.1-0.1,0.2-0.3,0.3-0.4c0-0.1,0.1-0.1,0.1-0.2c0-0.1-0.1-0.2-0.1-0.3C21.4,9.4,21.5,9.3,21.7,9.3"/>
	<path class="st1" d="M18.9,7.6l0.3,0c0,0,0.1,0,0.1,0c0,0,0,0.1,0,0.1c0,0.2,0.2,0.3,0.4,0.3c0.4,0.2,0.8,0.4,1,0.8
		s0.3,0.9,0.1,1.2c-0.1,0.2-0.3,0.3-0.4,0.5c-0.1,0.2-0.3,0.4-0.5,0.4c0.4-0.4,0.6-1,0.5-1.6c-0.1-0.6-0.6-1-1.2-1.1
		c-0.1,0-0.1,0-0.2,0c-0.1-0.1-0.1-0.2-0.1-0.3C19.2,7.8,19.1,7.6,18.9,7.6"/>
	<path class="st1" d="M19.6,8.6l0.5,0.5c0.1,0.1,0.1,0.2,0.2,0.2c0.1,0.3,0,0.6-0.2,0.8c-0.1,0.1-0.2,0.2-0.3,0.2
		c0.2-0.3,0.2-0.7,0-1c-0.1-0.1-0.1-0.1-0.2-0.2C19.6,9,19.6,8.8,19.6,8.6"/>
	<path class="st1" d="M18.5,8.4c0.1,0.1,0.2,0.2,0.3,0.3C18.9,8.8,19,8.9,19.1,9c0.1,0.1,0.1,0.2,0,0.3c0,0.1-0.1,0.2-0.1,0.2
		c-0.1,0.2-0.1,0.4-0.1,0.5c0,0.3,0.1,0.6,0.2,0.9c-0.1-0.1-0.3-0.3-0.4-0.5L18.5,10c0,0-0.1-0.2-0.1-0.3c0-0.2,0.1-0.3,0.2-0.4
		C18.8,9.1,18.8,8.7,18.5,8.4"/>
	<path class="st1" d="M22.2,10.6c-0.1,0.1-0.2,0.2-0.3,0.3c-0.1,0.1-0.3,0.1-0.4,0.1c0,0,0.1-0.1,0.1-0.1
		C21.8,10.8,22,10.7,22.2,10.6"/>
	<path class="st1" d="M17.7,10.6c0,0,0,0.2,0.2,0.3c0.1,0.1,0.2,0.1,0.3,0.2c0,0,0.1,0.1,0.1,0.1c0,0,0,0.1,0,0.1c0,0,0,0,0,0
		c0,0,0,0,0,0c0,0-0.1,0-0.1,0c-0.1,0-0.2-0.1-0.2-0.1c0-0.1-0.1-0.1-0.1-0.2C17.8,10.8,17.7,10.6,17.7,10.6z"/>
	<path class="st4" d="M19.1,12.8c-0.1,0-0.3,0-0.4-0.1c-0.1,0-0.2-0.1-0.3-0.1c-0.2-0.1-0.3-0.2-0.5-0.2c-0.1,0-0.1,0-0.2,0
		c0,0-0.1,0-0.1,0c0,0,0,0-0.1,0l0.1-0.2c0.2-0.1,0.4-0.2,0.6-0.3c0.1-0.1,0.2-0.2,0.3-0.2c0.2-0.1,0.3-0.3,0.5-0.4l0,0
		c0.1,0,0.2-0.1,0.2-0.1c0.1,0,0.3,0,0.4,0c0.2,0,0.4,0,0.6,0.1c0.2,0,0.4,0.1,0.6,0.1c-0.1,0-0.1,0.1-0.2,0.1
		c-0.1,0.1-0.2,0.1-0.3,0.2c-0.1,0.1-0.1,0.2-0.1,0.3c0,0.1,0,0.1-0.1,0.1c-0.1,0.1-0.1,0.2-0.3,0.3c-0.2,0.2-0.5,0.3-0.8,0.4
		C19.3,12.8,19.2,12.8,19.1,12.8z"/>
	<path class="st1" d="M19.8,11.3c0.2,0,0.4,0,0.6,0.1c0.1,0,0.2,0,0.4,0.1c-0.1,0.1-0.2,0.1-0.3,0.2c-0.1,0.1-0.1,0.2-0.1,0.3
		c0,0,0,0.1-0.1,0.1c-0.1,0.1-0.1,0.2-0.2,0.3c-0.2,0.2-0.5,0.3-0.7,0.4c-0.1,0-0.2,0-0.3,0c-0.1,0-0.2,0-0.4-0.1
		c-0.1,0-0.2-0.1-0.3-0.1c-0.2-0.1-0.4-0.2-0.5-0.2c-0.1,0-0.1,0-0.2,0l0,0c0.2-0.1,0.4-0.2,0.6-0.3c0.1-0.1,0.2-0.2,0.3-0.2
		c0.2-0.1,0.3-0.3,0.5-0.4l0,0c0.1,0,0.1-0.1,0.2-0.1C19.6,11.3,19.7,11.3,19.8,11.3 M19.8,11.1c-0.1,0-0.3,0-0.4,0
		c-0.1,0-0.2,0.1-0.3,0.1c-0.4,0.2-0.5,0.4-0.8,0.6c-0.2,0.1-0.4,0.3-0.6,0.3l-0.3,0.5c0.1-0.1,0.2-0.1,0.3-0.2c0,0,0,0,0.1,0
		c0.1,0,0.1,0,0.2,0c0.4,0.1,0.6,0.2,0.8,0.3c0.1,0,0.3,0.1,0.4,0.1c0.1,0,0.2,0,0.3,0c0.1,0,0.5-0.1,0.8-0.4
		c0.1-0.1,0.2-0.2,0.3-0.4c0.1-0.2,0.1-0.2,0.2-0.4c0.1-0.1,0.1-0.2,0.2-0.2c0.2-0.1,0.3-0.1,0.5-0.1c0,0,0,0,0,0
		c-0.3-0.1-0.7-0.2-1-0.3C20.2,11.1,20,11.1,19.8,11.1L19.8,11.1z"/>
	<path class="st1" d="M21.3,12.5c0,0.1,0.2,0,0.2,0c0.1,0,0.2,0,0.2-0.1c0.2-0.1,0.6,0.1,0.9,0.3c0.3,0.2,0.4,0.3,0.6,0.5
		c0.1,0.1,0.6,0.6,0.5,0.7c-0.1,0.2-1.3-0.3-2-0.5c-0.3,0-0.5-0.1-0.5-0.1c-0.1,0-0.2,0-0.3,0c-0.1,0-0.3,0-0.4,0
		c0.4,0,0.8,0.1,1.2,0.2c0.2,0.1,0.5,0.2,0.7,0.3c0.1,0.1,2,1,2.2,0.7c0.1-0.1-0.2-0.4-0.5-0.8c-0.4-0.5-1.2-1.2-1.6-1.5
		c-0.1,0-0.2-0.3-0.4-0.3c-0.1,0-0.3,0-0.3,0c-0.1,0-0.2,0.1-0.3,0.2c0,0,0,0,0,0.1C21.4,12.4,21.3,12.4,21.3,12.5z"/>
	<path class="st1" d="M21.7,11.4c0.1-0.1,0.1-0.2,0.2-0.3c0.2-0.2,0.4-0.1,0.6-0.3c0.1-0.1,0.1-0.1,0.1-0.2c0.2-0.5-0.3-1-0.3-1.1
		c0.1,0,0.7,0.8,0.6,1.1c0,0.1,0,0.2-0.1,0.2c0,0,0,0.1,0,0.1c0,0.1,0,0.2,0,0.3c0,0.2,0.1,0.3,0.1,0.4c0.2,0.3,0.9,0.3,1,0.4
		c0,0,0.1,0.1,0.1,0.1c0,0,0.2,0.2,0.5,0.5c0.2,0.2,0.3,0.3,0.4,0.4c0.8,0.8,1.3,1.8,1.5,2.1c0,0.1,0.1,0.2,0.1,0.3
		c0,0-0.1-0.2-0.2-0.2c-0.4-0.6-0.9-1.1-1.8-2.2c0,0-0.6-0.7-1-0.8c0,0-0.1,0-0.1,0c-0.2,0-0.3,0-0.5-0.2c-0.3-0.2-0.3-0.4-0.6-0.5
		c-0.4-0.1-0.7,0.1-0.8,0.1c-0.3,0.2-0.4,0.4-0.5,0.5c-0.1,0.2-0.2,0.3-0.3,0.4c-0.1,0.1-0.2,0.1-0.3,0.1s0-0.2,0-0.3
		c0-0.1,0.2-0.4,0.7-0.8C21.4,11.6,21.5,11.6,21.7,11.4z"/>
</g>
<g id="LEFT_EYE">
	<path class="st1" d="M9,9.3C8.8,9.4,8.7,9.7,8.7,9.9c0,0.1,0,0.1,0,0.2c0,0.1,0.1,0.1,0.1,0.1c0.3,0.3,0.8,0.4,1.1,0.8
		c0-0.2-0.1-0.3-0.3-0.4c-0.1-0.1-0.2-0.3-0.3-0.4c0-0.1-0.1-0.1-0.1-0.2c0-0.1,0.1-0.2,0.1-0.3C9.3,9.4,9.1,9.3,9,9.3"/>
	<path class="st1" d="M11.7,7.6l-0.3,0c0,0-0.1,0-0.1,0c0,0,0,0.1,0,0.1c0,0.2-0.2,0.3-0.4,0.3c-0.4,0.2-0.8,0.4-1,0.8
		C9.6,9.2,9.5,9.7,9.7,10c0.1,0.2,0.3,0.3,0.4,0.5c0.1,0.2,0.3,0.4,0.5,0.4c-0.4-0.4-0.6-1-0.5-1.6s0.6-1,1.2-1.1c0.1,0,0.1,0,0.2,0
		c0.1-0.1,0.1-0.2,0.1-0.3C11.5,7.8,11.6,7.6,11.7,7.6"/>
	<path class="st1" d="M11,8.6l-0.5,0.5c-0.1,0.1-0.1,0.2-0.2,0.2c-0.1,0.3,0,0.6,0.2,0.8c0.1,0.1,0.2,0.2,0.3,0.2
		c-0.2-0.3-0.2-0.7,0-1C10.9,9.3,11,9.3,11,9.2C11.1,9,11.1,8.8,11,8.6"/>
	<path class="st1" d="M12.1,8.4c-0.1,0.1-0.2,0.2-0.3,0.3c-0.1,0.1-0.2,0.2-0.2,0.3c-0.1,0.1-0.1,0.2,0,0.3c0,0.1,0.1,0.2,0.1,0.2
		c0.1,0.2,0.1,0.4,0.1,0.5c0,0.3-0.1,0.6-0.2,0.9c0.1-0.1,0.3-0.3,0.4-0.5l0.3-0.5c0,0,0.1-0.2,0.1-0.3c0-0.2-0.1-0.3-0.2-0.4
		C11.9,9.1,11.9,8.7,12.1,8.4"/>
	<path class="st1" d="M8.4,10.6c0.1,0.1,0.2,0.2,0.3,0.3c0.1,0.1,0.3,0.1,0.4,0.1c0,0-0.1-0.1-0.1-0.1C8.9,10.8,8.7,10.7,8.4,10.6"
		/>
	<path class="st1" d="M13,10.6c0,0,0,0.2-0.2,0.3c-0.1,0.1-0.2,0.1-0.3,0.2c0,0-0.1,0.1-0.1,0.1c0,0,0,0.1,0,0.1c0,0,0,0,0,0
		c0,0,0,0,0,0c0,0,0.1,0,0.1,0c0.1,0,0.2-0.1,0.2-0.1c0-0.1,0.1-0.1,0.1-0.2C12.9,10.8,13,10.6,13,10.6z"/>
	<path class="st4" d="M11.6,12.8c-0.1,0-0.2,0-0.3,0c-0.3,0-0.6-0.2-0.8-0.4c-0.1-0.1-0.2-0.2-0.3-0.3c0,0,0-0.1-0.1-0.1
		c0-0.1-0.1-0.2-0.1-0.3c-0.1-0.1-0.2-0.2-0.3-0.2c-0.1,0-0.1-0.1-0.2-0.1c0.2-0.1,0.4-0.1,0.6-0.1c0.2,0,0.4-0.1,0.6-0.1
		c0.1,0,0.3,0,0.4,0c0.1,0,0.2,0,0.2,0.1l0,0c0.2,0.1,0.4,0.2,0.5,0.4c0.1,0.1,0.2,0.2,0.3,0.2c0.2,0.1,0.4,0.3,0.6,0.3l0.1,0.2
		c0,0,0,0-0.1,0c0,0-0.1,0-0.1,0c-0.1,0-0.1,0-0.2,0c-0.2,0.1-0.4,0.1-0.5,0.2c-0.1,0-0.2,0.1-0.3,0.1
		C11.8,12.8,11.7,12.8,11.6,12.8z"/>
	<path class="st1" d="M10.9,11.1v0.2c0.1,0,0.2,0,0.4,0c0.1,0,0.1,0,0.2,0.1l0,0c0.2,0.1,0.4,0.2,0.5,0.4c0.1,0.1,0.2,0.2,0.3,0.2
		c0.2,0.1,0.4,0.3,0.6,0.3l0,0c-0.1,0-0.1,0-0.2,0c-0.2,0.1-0.4,0.1-0.5,0.2c-0.1,0-0.2,0.1-0.3,0.1c-0.1,0-0.2,0.1-0.4,0.1
		c-0.1,0-0.2,0-0.3,0c-0.3,0-0.5-0.2-0.7-0.4c-0.1-0.1-0.2-0.2-0.2-0.3c0,0,0-0.1-0.1-0.1c0-0.1-0.1-0.2-0.1-0.3
		c-0.1-0.1-0.2-0.2-0.3-0.2c0.1,0,0.2-0.1,0.4-0.1c0.2,0,0.4-0.1,0.6-0.1L10.9,11.1 M10.9,11.1c-0.2,0-0.4,0-0.6,0.1
		c-0.3,0.1-0.7,0.1-1,0.3c0,0,0,0,0,0c0.2,0,0.3,0,0.5,0.1c0.1,0.1,0.2,0.1,0.2,0.2c0.1,0.1,0.1,0.2,0.2,0.4
		c0.1,0.1,0.2,0.3,0.3,0.4c0.3,0.3,0.7,0.4,0.8,0.4c0.1,0,0.2,0,0.3,0c0.1,0,0.3,0,0.4-0.1c0.2-0.1,0.4-0.2,0.8-0.3
		c0.1,0,0.1,0,0.2,0c0,0,0,0,0.1,0c0.1,0,0.2,0.1,0.3,0.2L13,12.2c-0.2-0.1-0.5-0.2-0.6-0.3c-0.3-0.2-0.4-0.4-0.8-0.6
		c-0.1,0-0.2-0.1-0.3-0.1C11.1,11.1,11,11.1,10.9,11.1L10.9,11.1z"/>
	<path class="st1" d="M9.4,12.5c0,0.1-0.2,0-0.2,0c-0.1,0-0.2,0-0.2-0.1c-0.2-0.1-0.6,0.1-0.9,0.3c-0.3,0.2-0.4,0.3-0.6,0.5
		c-0.1,0.1-0.6,0.6-0.5,0.7c0.1,0.2,1.3-0.3,2-0.5c0.3,0,0.5-0.1,0.5-0.1c0.1,0,0.2,0,0.3,0c0.1,0,0.3,0,0.4,0
		c-0.4,0-0.8,0.1-1.2,0.2c-0.2,0.1-0.5,0.2-0.7,0.3c-0.1,0.1-2,1-2.2,0.7c-0.1-0.1,0.2-0.4,0.5-0.8c0.4-0.5,1.2-1.2,1.6-1.5
		c0.1,0,0.2-0.3,0.4-0.3c0.1,0,0.3,0,0.3,0c0.1,0,0.2,0.1,0.3,0.2c0,0,0,0,0,0.1C9.3,12.4,9.4,12.4,9.4,12.5z"/>
	<path class="st1" d="M9,11.4c-0.1-0.1-0.1-0.2-0.2-0.3c-0.2-0.2-0.4-0.1-0.6-0.3c-0.1-0.1-0.1-0.1-0.1-0.2c-0.2-0.5,0.3-1,0.3-1.1
		c-0.1,0-0.7,0.8-0.6,1.1c0,0.1,0,0.2,0.1,0.2c0,0,0,0.1,0,0.1c0,0.1,0,0.2,0,0.3c0,0.2-0.1,0.3-0.1,0.4c-0.2,0.3-0.9,0.3-1,0.4
		c0,0-0.1,0.1-0.1,0.1c0,0-0.2,0.2-0.5,0.5c-0.2,0.2-0.3,0.3-0.4,0.4c-0.8,0.8-1.3,1.8-1.5,2.1c0,0.1-0.1,0.2-0.1,0.3
		c0,0,0.1-0.2,0.2-0.2c0.4-0.6,0.9-1.1,1.8-2.2c0,0,0.6-0.7,1-0.8c0,0,0.1,0,0.1,0c0.2,0,0.3,0,0.5-0.2c0.3-0.2,0.3-0.4,0.6-0.5
		c0.4-0.1,0.7,0.1,0.8,0.1c0.3,0.2,0.4,0.4,0.5,0.5c0.1,0.2,0.2,0.3,0.3,0.4c0.1,0.1,0.2,0.1,0.3,0.1c0.1,0,0-0.2,0-0.3
		c0-0.1-0.2-0.4-0.7-0.8C9.2,11.6,9.1,11.6,9,11.4z"/>
</g>
<g id="Left_E">
	<path class="st1" d="M15,5.3c0,0.2-0.1,0.5,0,0.7c0,0.2,0,0.3-0.1,0.4c-0.1,0.1-0.3,0-0.3,0c-0.3-0.1-0.8,0-1.7,0.2
		c-0.2,0-0.4,0.1-1.9,0.6S9.3,7.7,9.2,7.8C8.2,8.4,7.7,9,7.7,9c0,0,1.1-1.8,2.9-2.4c0.6-0.2,1.2-0.4,1.9-0.5C12.9,6,13.2,6,13.6,5.9
		C14.1,5.7,14.5,5.5,15,5.3z"/>
	<path class="st1" d="M15.1,4.5c0,0.2,0,0.3,0,0.5C15,5.1,15,5.3,15,5.4c0,0-0.1,0.3-0.4,0.4c-0.1,0-0.2,0-0.3,0
		c0.1-0.1,0.2-0.3,0.2-0.4c0-0.1-0.1-0.2-0.2-0.2C14,5,13.8,5,13.7,5c-0.5,0.1-1,0.3-1.2,0.3c-0.2,0.1-0.6,0.3-0.9,0.5
		c0.2-0.3,0.4-0.5,0.7-0.7c0.5-0.3,1-0.4,1.2-0.4c0.3,0,0.4,0,0.7,0C14.5,4.7,14.8,4.6,15.1,4.5z"/>
	<path class="st1" d="M15.2,2.9c0,0.2,0,0.5,0,0.7c0,0.2,0,0.3-0.1,0.4c-0.1,0.1-0.2,0-0.2,0c-0.4-0.2-1.7,0.1-2.7,0.4
		c-1.2,0.5-1.7,1.2-1.8,1.1C10.3,5.4,10.9,4.4,12,4c0.8-0.3,1.4-0.1,2.4-0.6C14.7,3.2,14.9,3.1,15.2,2.9z"/>
	<path class="st1" d="M12.9,7.2c0.3,0.1,0.6,0,0.6,0.1c0.1,0.2,0,0.4,0.2,0.7c0.1,0.1,0.1,0.1,0.1,0.3c0.1,0.2,0,0.6,0,0.7
		c0.4-1,0.4-1.3,0.3-1.4c0,0-0.1-0.1-0.2-0.1c-0.1-0.2,0-0.3-0.1-0.4C13.8,7,13.6,6.9,12.9,7.2z"/>
</g>
<g id="Right_E">
	<path class="st1" d="M15.6,5.3c0,0.2,0.1,0.5,0,0.7c0,0.2,0,0.3,0.1,0.4s0.3,0,0.3,0c0.3-0.1,0.8,0,1.7,0.2c0.2,0,0.4,0.1,1.9,0.6
		c1.5,0.5,1.6,0.6,1.8,0.7C22.3,8.4,22.8,9,22.8,9c0,0-1.1-1.8-2.9-2.4c-0.6-0.2-1.2-0.4-1.9-0.5C17.7,6,17.4,6,17,5.9
		C16.5,5.7,16,5.5,15.6,5.3z"/>
	<path class="st1" d="M15.5,4.5c0,0.2,0,0.3,0,0.5c0,0.1,0.1,0.3,0.1,0.4c0,0,0.1,0.3,0.4,0.4c0.1,0,0.2,0,0.3,0
		c-0.1-0.1-0.2-0.3-0.2-0.4c0-0.1,0.1-0.2,0.2-0.2C16.5,5,16.7,5,16.9,5c0.5,0.1,1,0.3,1.2,0.3c0.2,0.1,0.6,0.3,0.9,0.5
		c-0.2-0.3-0.4-0.5-0.7-0.7c-0.5-0.3-1-0.4-1.2-0.4c-0.3,0-0.4,0-0.7,0C16,4.7,15.7,4.6,15.5,4.5z"/>
	<path class="st1" d="M15.4,2.9c0,0.2,0,0.5,0,0.7c0,0.2,0,0.3,0.1,0.4c0.1,0.1,0.2,0,0.2,0c0.4-0.2,1.7,0.1,2.7,0.4
		c1.2,0.5,1.7,1.2,1.8,1.1c0.1-0.1-0.5-1.1-1.6-1.5c-0.8-0.3-1.4-0.1-2.4-0.6C15.9,3.2,15.6,3.1,15.4,2.9z"/>
	<path class="st1" d="M17.6,7.2c-0.3,0.1-0.6,0-0.6,0.1c-0.1,0.2,0,0.4-0.2,0.7c-0.1,0.1-0.1,0.1-0.1,0.3c-0.1,0.2,0,0.6,0,0.7
		c-0.4-1-0.4-1.3-0.3-1.4c0,0,0.1-0.1,0.2-0.1c0.1-0.2,0-0.3,0.1-0.4C16.7,7,16.9,6.9,17.6,7.2z"/>
</g>
<g id="Wrinkles">
	<path class="st8" d="M13.1,12.6c0.1,0,0.3,0,0.4,0c0.8,0.1,1.3,0.6,1.5,0.8C14.5,12.9,13.8,12.6,13.1,12.6z"/>
	<path class="st8" d="M15.3,15.4c0-0.7-0.2-1.1-0.3-1.3c-0.6-0.9-2.2-1.1-3.8-0.4c1.5-0.7,3-0.4,3.7,0.4
		C15.1,14.4,15.3,14.8,15.3,15.4z"/>
	<path class="st8" d="M15.9,15.1c-0.1-0.8,0.3-1.5,0.9-1.9c0.7-0.5,1.5-0.2,1.6-0.2c-0.2,0-0.9-0.2-1.6,0.3
		C15.9,13.9,15.9,15.1,15.9,15.1z"/>
	<path class="st8" d="M14.4,15.4c0-0.3-0.1-0.6-0.3-0.8c-0.5-0.8-1.5-0.7-1.6-0.7c0.2,0,0.9,0,1.5,0.6C14.1,14.7,14.3,15,14.4,15.4z
		"/>
	<path class="st8" d="M16.9,15.6c-0.1-0.8,0.2-1.6,0.9-2c0.6-0.4,1.4-0.3,2,0c-0.1,0-1-0.4-1.9,0.1C17.3,14.1,16.9,14.8,16.9,15.6z"
		/>
	<path class="st8" d="M13,12.2c0.3-0.1,0.6-0.1,0.9,0c0.5,0.1,0.8,0.3,0.8,0.3c-0.3-0.1-0.6-0.2-0.9-0.2c-0.3,0-0.5,0-0.8,0.1
		L13,12.2z"/>
	<path class="st8" d="M17.5,12.6c-0.1,0-0.3,0-0.4,0c-0.8,0.1-1.3,0.6-1.5,0.8C16.1,12.9,16.8,12.6,17.5,12.6z"/>
	<path class="st8" d="M17.7,12.2c-0.3-0.1-0.6-0.1-0.9,0c-0.5,0.1-0.8,0.3-0.8,0.3c0.3-0.1,0.6-0.2,0.9-0.2c0.3,0,0.5,0,0.8,0.1
		L17.7,12.2z"/>
</g>
</svg>
