<svg id="Layer_1" data-name="Layer 1" xmlns="http://www.w3.org/2000/svg" viewBox="0 0 415 50"><defs><style>.cls-1{fill:#ff1e55;}.cls-2{fill:#fff;}.cls-3{fill:#ffae00;}.cls-4{fill:#ec6c00;}.cls-5{fill:#ffefb4;}.cls-6{fill:#fed305;}.cls-7{fill:#ff26be;}.cls-8{fill:#2e001f;}.cls-9{fill:#ffd9f2;}.cls-10{fill:#261300;}.cls-11{fill:#ff7c00;}.cls-12{fill:#001d26;}.cls-13{fill:#00c8ff;}.cls-14{fill:#250012;}.cls-15{fill:#ff408c;}</style></defs><title>tools-1</title><g id="inVision"><g id="Artboard-2"><g id="invision-2" data-name="invision"><path id="Shape" class="cls-1" d="M50,0H0V50H50Z"/><path id="Shape-2" data-name="Shape" class="cls-2" d="M16.71,15.73a3,3,0,1,0-3.05-3,3,3,0,0,0,3.05,3M10.38,31.85a10.29,10.29,0,0,0-.27,2.26c0,2.65,1.43,4.41,4.49,4.41,2.53,0,4.59-1.5,6.06-3.93l-.9,3.62h5l2.88-11.53c.72-2.92,2.11-4.44,4.22-4.44A2.51,2.51,0,0,1,34.58,25a5.34,5.34,0,0,1-.22,1.62l-1.48,5.3a7.79,7.79,0,0,0-.32,2.25c0,2.51,1.49,4.35,4.58,4.35,2.65,0,4.77-1.7,5.93-5.79l-2-.76c-1,2.74-1.84,3.23-2.52,3.23s-1-.45-1-1.35a6.17,6.17,0,0,1,.22-1.39l1.44-5.16a11.44,11.44,0,0,0,.5-3.28c0-3.86-2.34-5.88-5.17-5.88-2.65,0-5.35,2.39-6.69,4.91l1-4.52H21.15l-1.07,4h3.59l-2.21,8.86c-1.74,3.86-4.93,3.93-5.33,3.84-.66-.15-1.08-.4-1.08-1.26a8.61,8.61,0,0,1,.31-2.05l3.37-13.37H10.2l-1.08,4h3.55l-2.29,9.36"/></g></g></g><g id="Studio"><g id="Artboard-2-2" data-name="Artboard-2"><g id="invision-studio"><rect id="Rectangle-6" class="cls-1" x="60" width="50" height="50"/><rect id="Rectangle" class="cls-2" x="98.67" y="38.5" width="3.79" height="3.79"/><path id="S" class="cls-2" d="M81.77,36.84v-.56H85v.56c.13,1.49,1.43,2.72,3.9,2.72,2.26,0,3.57-1,3.57-2.61,0-1.32-.92-2-2.8-2.47l-2.86-.69c-2.35-.54-4.43-1.92-4.43-4.85,0-3.44,3-5.39,6.52-5.39s6.43,2,6.48,5.3v.65h-3l0-.65c-.1-1.18-1.26-2.63-3.5-2.63-2,0-3.32.89-3.32,2.47,0,1.14.82,1.93,2.45,2.31l2.88.7c2.66.61,4.74,1.88,4.74,5,0,3.51-2.82,5.57-7,5.57C83.61,42.24,82,39.33,81.77,36.84Z"/></g></g></g><g id="Sketch"><g id="Artboard-2-3" data-name="Artboard-2"><g id="sketch-2" data-name="sketch"><g id="Base"><polygon id="Polygon" class="cls-3" points="145 47.62 120 18.57 130.83 3.9 145 2.38 159.17 3.9 170 18.57 145 47.62"/></g><g id="Bottom-Back"><polygon id="Polygon-2" data-name="Polygon" class="cls-4" points="145 47.62 120 18.57 170 18.57 145 47.62"/></g><g id="Bottom-Mid"><polygon id="Polygon-3" data-name="Polygon" class="cls-3" points="145 47.62 130.12 18.57 159.88 18.57 145 47.62"/></g><g id="Top-Mid"><polygon id="Polygon-4" data-name="Polygon" class="cls-5" points="145 2.38 130.12 18.57 159.88 18.57 145 2.38"/></g><g id="Top-Side-Left"><polygon id="Polygon-5" data-name="Polygon" class="cls-3" points="130.83 3.9 125.26 11.29 120 18.57 130.22 18.57 130.83 3.9"/></g><g id="Top-Side-Right"><polygon id="Polygon-6" data-name="Polygon" class="cls-3" points="159.17 3.9 164.74 11.29 170 18.57 159.78 18.57 159.17 3.9"/></g><g id="Top-Left"><polygon id="Polygon-7" data-name="Polygon" class="cls-6" points="130.83 3.9 130.12 18.57 145 2.38 130.83 3.9"/></g><g id="Top-Right"><polygon id="Polygon-8" data-name="Polygon" class="cls-6" points="159.17 3.9 159.88 18.57 145 2.38 159.17 3.9"/></g></g></g></g><g id="AdobeXD"><path class="cls-7" d="M230,50H180V0h50Z"/><path class="cls-8" d="M227.9,47.86H182.08V2.14H227.9Z"/><path class="cls-9" d="M199.77,23.4l5.83,11.49c.11.17.05.35-.12.35h-3.63a.41.41,0,0,1-.43-.28c-1.34-2.82-2.69-5.64-4.09-8.68h0c-1.25,2.87-2.62,5.88-4,8.7a.39.39,0,0,1-.37.23h-3.44c-.21,0-.23-.17-.12-.3l5.7-11.15-5.52-11.28a.17.17,0,0,1,.13-.3h3.58a.33.33,0,0,1,.38.23c1.31,2.83,2.64,5.73,3.89,8.57h0c1.21-2.82,2.55-5.74,3.84-8.54.1-.18.16-.28.37-.28h3.36c.16,0,.23.13.12.3Zm6.86,3.48c0-5,3.22-8.87,8.35-8.87a7.6,7.6,0,0,1,1.08,0V12.39a.21.21,0,0,1,.21-.21h3.29c.17,0,.21.06.21.17V32a16.24,16.24,0,0,0,.1,2.09c0,.13,0,.17-.16.23a12.11,12.11,0,0,1-5.34,1.24C209.85,35.56,206.63,32.69,206.63,26.88Zm9.43-5.47a3.06,3.06,0,0,0-1.21-.21c-2.62,0-4.45,2.07-4.45,5.51,0,3.93,1.87,5.51,4.23,5.51a3.8,3.8,0,0,0,1.43-.23Z"/></g><g id="AdobeIL"><path class="cls-10" d="M247.08,2.14h45.84V47.86H247.08Z"/><path class="cls-11" d="M245,0V50h50V0Zm2.08,2.14h45.84V47.86H247.08Z"/><path class="cls-11" d="M262.35,28.31l-1.64,6.41c0,.17-.11.22-.31.22h-3.07c-.2,0-.25-.07-.2-.32L263,13.38a6.79,6.79,0,0,0,.21-1.78c0-.15.06-.21.17-.21h4.37c.15,0,.21,0,.25.21l6.63,23.06c0,.17,0,.28-.17.28H271c-.17,0-.27,0-.31-.2L269,28.31Zm5.8-3.46c-.59-2.37-2-7.54-2.48-10h-.05c-.43,2.5-1.54,6.73-2.41,10ZM277.52,13a2.13,2.13,0,1,1,4.25,0,2,2,0,0,1-2.17,2.18A2,2,0,0,1,277.52,13Zm.25,4.85c0-.17.06-.26.25-.26h3.27c.17,0,.25.07.25.26V34.68c0,.17,0,.26-.25.26h-3.23c-.21,0-.27-.11-.27-.28V17.82Z"/></g><g id="AdobePS"><path class="cls-12" d="M307.08,2.14h45.84V47.86H307.08Z"/><path class="cls-13" d="M305,0V50h50V0Zm2.08,2.14h45.84V47.86H307.08Zm10,9.57c0-.15.3-.26.46-.26,1.33-.06,3.31-.1,5.38-.1,5.77,0,8,3.24,8,7.41,0,5.43-3.84,7.76-8.54,7.76-.8,0-1.07-.05-1.63-.05v8.21c0,.17-.06.26-.25.26h-3.19c-.16,0-.25-.07-.25-.26v-23Zm3.71,11.35c.48,0,.86,0,1.69,0,2.44,0,4.73-.88,4.73-4.28,0-2.71-1.65-4.08-4.42-4.08-.83,0-1.62,0-2,.07v8.25Zm17.92-2.55c-1.65,0-2.21.86-2.21,1.56s.38,1.31,2.58,2.48c3.27,1.63,4.29,3.19,4.29,5.47,0,3.42-2.54,5.26-6,5.26a9,9,0,0,1-4.28-.92c-.14-.07-.16-.17-.16-.34V30.88c0-.22.1-.28.25-.17A7.63,7.63,0,0,0,337.4,32c1.64,0,2.33-.71,2.33-1.67,0-.77-.48-1.45-2.58-2.56-3-1.46-4.19-2.93-4.19-5.39,0-2.76,2.1-5,5.75-5a9.39,9.39,0,0,1,3.73.6.47.47,0,0,1,.21.42v2.93c0,.17-.11.28-.32.21a7,7,0,0,0-3.62-1Z"/></g><g id="AdobeID"><path class="cls-14" d="M367.11,2.14h45.83V47.86H367.11Z"/><path class="cls-15" d="M365,0V50h50V0Zm2.08,2.14h45.84V47.86H367.08Zm16.2,32.51c0,.22,0,.29-.27.29h-3.2c-.21,0-.28-.11-.28-.29V11.71c0-.21.1-.28.28-.28H383c.17,0,.24.07.24.25ZM387,26.38c0-5.11,3.29-9.1,8.54-9.1a9.75,9.75,0,0,1,1.1,0V11.64a.2.2,0,0,1,.21-.21h3.39c.17,0,.21.07.21.18v20a17.05,17.05,0,0,0,.1,2.15c0,.14,0,.17-.18.24a12.28,12.28,0,0,1-5.47,1.27c-4.6,0-7.9-2.92-7.9-8.88Zm9.64-5.61a3,3,0,0,0-1.23-.21c-2.68,0-4.56,2.12-4.56,5.64,0,4,1.91,5.64,4.32,5.64a4.05,4.05,0,0,0,1.47-.24V20.77Z"/></g></svg>