<svg id="Layer_1" data-name="Layer 1" xmlns="http://www.w3.org/2000/svg" viewBox="0 0 497.64 50"><defs><style>.cls-1{fill:#efcca3;}.cls-2{fill:#ccac8d;}.cls-3{fill:#fff;}.cls-4{fill:#56332b;}.cls-5{fill:#442823;}.cls-6{fill:#7f4a41;}.cls-7{fill:#331712;}.cls-8{fill:#cd6799;}.cls-9{fill:#f5f5f5;}.cls-10{fill:#744c9e;}.cls-11{fill:#61dafb;}.cls-12{fill:#112b49;}.cls-13{fill:#764abc;}</style></defs><title>tool-2</title><path class="cls-1" d="M68.37,15.6c-.13-2.79.26-5.26-1-7.35C64.31,3,56.7,0,41.48,0V.44h0V0C26.25,0,18.26,3,15.21,8.31,14,10.47,14.14,12.88,14,15.67c-.13,2.22-1.15,4.57-.7,7.1.51,3.3.7,6.6,1.2,9.64.38,2.48,3.81,4.57,4.13,6.92.88,6.47,7.61,9.45,22.83,9.45v.51h.07v-.51c15.22,0,21.69-3,22.51-9.45.32-2.41,3.49-4.44,3.87-6.92.51-3,.7-6.34,1.21-9.64C69.51,20.24,68.5,17.83,68.37,15.6Z" transform="translate(-0.36 0)"/><path class="cls-2" d="M41.22,17.89c2.73.06,4.63,1.77,6.41,3.36,2.09,1.84,5.64,3.11,7.1,4.69s3.37,3.18,4.06,5.65a29.24,29.24,0,0,1,.89,6.47c0,.83.45.63,1.71,0,3-1.46,6.28-5.39,6.28-5.39-.38,2.47-3.61,4.69-3.93,7-.76,6.47-7,9.58-22.58,9.58h.32" transform="translate(-0.36 0)"/><path class="cls-2" d="M51.24,12.94c.58,2,2.61,8.63-1.33,6.41,0,0,1.65.95,2.67,4.56S56.26,28,56.26,28a9.56,9.56,0,0,0,7.42-1.9c2.66-2.28,3.11-6.34,2-9.45s-3.17-4-6.15-4.63S50.55,10.72,51.24,12.94Z" transform="translate(-0.36 0)"/><circle cx="58.43" cy="20.17" r="5.58"/><circle class="cls-3" cx="56.97" cy="17.7" r="1.46"/><path class="cls-1" d="M50.29,19.92A43.7,43.7,0,0,1,58,26.71c2.73,3.36,2.67,4,2.67,4l-2,.89s-2.79-5.26-6.22-7.23-3.87-3.62-3.87-3.62Z" transform="translate(-0.36 0)"/><path class="cls-2" d="M41.41,17.89c-2.73.06-4.76,1.77-6.59,3.36-2.1,1.84-5.78,3.11-7.24,4.69s-3.42,3.18-4.12,5.65a30.32,30.32,0,0,0-.95,6.47c0,.83.13.89-1.71,0-3-1.4-6.28-5.39-6.28-5.39.38,2.47,3.61,4.69,3.93,7,.89,6.47,7.17,9.58,22.71,9.58h.32" transform="translate(-0.36 0)"/><path class="cls-4" d="M56.13,28.61a18.75,18.75,0,0,0-14.72-7.23h-.06a18.75,18.75,0,0,0-14.72,7.23c-3.17,3.87-2.92,5.39-2.92,9.07,0,13.32,4.7,9.52,7.81,11.16s6.47,1.08,9.83,1.08h.06c3.43,0,6.66.45,9.83-1.14s7.81,2.35,7.81-11C59.11,34.13,59.3,32.48,56.13,28.61Z" transform="translate(-0.36 0)"/><path class="cls-5" d="M41.1,24.68s-.45,6.15-1.34,7.35l1.65-.38Z" transform="translate(-0.36 0)"/><path class="cls-5" d="M41.54,24.68S42,30.83,42.87,32l-1.65-.38Z" transform="translate(-0.36 0)"/><path class="cls-4" d="M36.21,23.22c-.63-1.46,1.65-3.81,5.27-3.87s5.9,2.34,5.26,3.87-2.92,2-5.26,2S36.85,24.74,36.21,23.22Z" transform="translate(-0.36 0)"/><path d="M41.48,24.68c0-.26,2.15-.32,3.29-1.08,0,0-2.34.76-2.85.44a1.49,1.49,0,0,1-.63-1,2,2,0,0,1-.58,1c-.44.26-3.1-.44-3.1-.44a25.28,25.28,0,0,1,3.55,1.08c0,.19-.06.82-.06,1.26,0,1.59,0,5.52.25,5.84.38.57.25-4.25.25-5.84C41.54,25.44,41.54,24.93,41.48,24.68Z" transform="translate(-0.36 0)"/><path class="cls-6" d="M41.6,33.18a10,10,0,0,1,4.7,2C44.65,33.3,42.68,32,41.6,32s-3.55,1.4-5.26,3.43A10.36,10.36,0,0,1,41.6,33.18Z" transform="translate(-0.36 0)"/><path class="cls-5" d="M41.16,44.4a27.38,27.38,0,0,1-6.92-1.33c-.44-.13-.88.19-1.33.07A17.87,17.87,0,0,1,23.71,37v.64c0,13.32,4.7,9.58,7.81,11.16s6.47,1.08,9.83,1.08h.06c3.43,0,6.66.44,9.83-1.14s7.81,2.28,7.81-11a11.33,11.33,0,0,1,.06-1.46c-1.84,3-5.2,5.33-9.39,6.72-.38.13-1.27-.19-1.65-.12A20.77,20.77,0,0,1,41.16,44.4Z" transform="translate(-0.36 0)"/><path class="cls-5" d="M35.13,37.24s-1.58,4.75-.51,6.85l-1.45-.64S34.24,38.63,35.13,37.24Z" transform="translate(-0.36 0)"/><path class="cls-5" d="M47.69,37.24s1.59,4.75.51,6.85l1.46-.64S48.52,38.63,47.69,37.24Z" transform="translate(-0.36 0)"/><path class="cls-2" d="M31.07,12.94c-.57,2-2.6,8.63,1.33,6.41,0,0-1.64.95-2.66,4.56S26.06,28,26.06,28a9.56,9.56,0,0,1-7.42-1.9c-2.66-2.28-3.11-6.34-2-9.45s3.17-4,6.16-4.63S31.71,10.72,31.07,12.94Z" transform="translate(-0.36 0)"/><path d="M41.41,32c1.72,0,7,3.68,7.11,8.19V40c0-4.69-4.32-8.43-7.11-8.43s-7.1,3.8-7.1,8.43v.26C34.37,35.71,39.7,32,41.41,32Z" transform="translate(-0.36 0)"/><ellipse class="cls-7" cx="42.56" cy="22.33" rx="0.51" ry="0.95" transform="translate(-4.59 11.33) rotate(-14.46)"/><ellipse class="cls-7" cx="39.82" cy="22.33" rx="0.95" ry="0.51" transform="translate(6.33 53.75) rotate(-72.76)"/><circle cx="23.48" cy="20.17" r="5.58"/><circle class="cls-3" cx="24.94" cy="17.7" r="1.46"/><path class="cls-6" d="M43.06,20.24c0-.07-1.46.63-1.84.69s-1.84-.76-1.84-.69h3.68Z" transform="translate(-0.36 0)"/><path class="cls-1" d="M32,19.92a43.7,43.7,0,0,0-7.74,6.79c-2.73,3.36-2.66,4-2.66,4l2,.89s2.79-5.26,6.22-7.23,3.87-3.62,3.87-3.62Z" transform="translate(-0.36 0)"/><path class="cls-2" d="M21,9.77s-1.72,4.69-5.52,6.66C15.47,16.43,21.43,15.73,21,9.77Z" transform="translate(-0.36 0)"/><path class="cls-2" d="M61,9.77s1.72,4.69,5.52,6.66C66.53,16.43,60.57,15.73,61,9.77Z" transform="translate(-0.36 0)"/><path class="cls-2" d="M50.17,18.52s-3.75-3.93-8.76-4.06h.13c-5.08.13-8.75,4.06-8.75,4.06a15.13,15.13,0,0,1,8.75-3h0A16.35,16.35,0,0,1,50.17,18.52Z" transform="translate(-0.36 0)"/><path class="cls-2" d="M45.79,10.28s-1.9-2.67-4.44-2.73h.13c-1.91.06-4.38,2.73-4.38,2.73a6.55,6.55,0,0,1,4.38-2h0A6.54,6.54,0,0,1,45.79,10.28Z" transform="translate(-0.36 0)"/><path class="cls-2" d="M23.84,29.75s-3,1.46-5.14.57h-.06C16.74,29.24,15.78,26,15.78,26A6.13,6.13,0,0,0,23.84,29.75Z" transform="translate(-0.36 0)"/><path class="cls-2" d="M58.6,29.75s3,1.46,5.14.57h0C66.28,29.24,66.66,26,66.66,26A6.13,6.13,0,0,1,58.6,29.75Z" transform="translate(-0.36 0)"/><path class="cls-2" d="M27.27,9.45a14.47,14.47,0,0,1,6.53.32c2.73,1,.51,4.44,1.08,4.63s1.33-2.41,6.41-2.16,5.7,2.54,6.4,2.16-.7-6.34,7-5c0,0-8.06-2.16-7.68,3.68,0,0-4.63-3.55-11.1-.38C36,12.75,37.61,7.29,27.27,9.45Z" transform="translate(-0.36 0)"/><path class="cls-2" d="M55.37,9.45c.12,0,.19.07.25.07S55.56,9.45,55.37,9.45Z" transform="translate(-0.36 0)"/><path class="cls-2" d="M55.37,9.45Z" transform="translate(-0.36 0)"/><path class="cls-2" d="M25.05,1.65s-6.85,8.63-7.87,11.92S15.4,30.7,14.52,32.67L11.34,19.09,17.18,5Z" transform="translate(-0.36 0)"/><path class="cls-2" d="M57.27,1.65s6.85,8.63,7.87,11.92,1.77,17.13,2.66,19.1L71,19.09,65.14,5Z" transform="translate(-0.36 0)"/><path class="cls-4" d="M57,1.65s7.36,6.15,9.52,13.26,1.27,15.73,2.92,16.81c2.34,1.52,5-7.55,5.9-8.5,1.39-1.53,6-5.39,6.34-6.09S72.24,5.84,68,3.74C62.85,1.33,56.51,1.14,57,1.65Z" transform="translate(-0.36 0)"/><path class="cls-5" d="M63.23,5.46s8.69,11.1,8.57,24.92l3.49-7.1A52.22,52.22,0,0,0,63.23,5.46Z" transform="translate(-0.36 0)"/><path class="cls-4" d="M25.05,1.65S17.69,7.8,15.53,14.91s-1.27,15.73-2.92,16.81c-2.34,1.52-5-7.55-5.9-8.5-1.39-1.53-6-5.39-6.34-6.09S9.76,5.84,14,3.74C19.15,1.33,25.49,1.14,25.05,1.65Z" transform="translate(-0.36 0)"/><path class="cls-5" d="M18.77,5.46s-8.69,11.1-8.57,24.92l-3.42-7.1A50.12,50.12,0,0,1,18.77,5.46Z" transform="translate(-0.36 0)"/><path class="cls-2" d="M14.07,30.64s.64,3.42,1.65,4.5.32-.82.32-.82-1.08-.57-.89-4.95S14.07,30.64,14.07,30.64Z" transform="translate(-0.36 0)"/><path class="cls-2" d="M68.18,30.64s-.63,3.42-1.65,4.5-.31-.82-.31-.82,1.07-.57.88-4.95S68.18,30.64,68.18,30.64Z" transform="translate(-0.36 0)"/><circle class="cls-5" cx="34.45" cy="28.04" r="0.51"/><circle class="cls-5" cx="31.53" cy="31.08" r="0.51"/><circle class="cls-5" cx="30.58" cy="28.04" r="0.51"/><circle class="cls-5" cx="46.82" cy="28.04" r="0.51"/><circle class="cls-5" cx="49.74" cy="31.08" r="0.51"/><circle class="cls-5" cx="50.69" cy="28.04" r="0.51"/><path class="cls-8" d="M149.07,28.74a14.07,14.07,0,0,0-6,1.4A12.67,12.67,0,0,1,141.68,27a8.33,8.33,0,0,1-.12-2.63,23.45,23.45,0,0,1,.79-2.83c0-.13-.14-.7-1.48-.71s-2.5.26-2.63.61a13.87,13.87,0,0,0-.56,2c-.24,1.22-2.68,5.57-4.08,7.85a8.7,8.7,0,0,1-.93-2.29,8.35,8.35,0,0,1-.12-2.63,22,22,0,0,1,.79-2.84c0-.12-.15-.7-1.49-.71s-2.49.26-2.63.61-.28,1.18-.56,2-3.53,8.06-4.38,9.93c-.44,1-.82,1.73-1.08,2.26h0l0,.09c-.23.45-.37.7-.37.7h0c-.18.33-.38.63-.47.63a4,4,0,0,1,0-2.07c.49-2.52,1.65-6.44,1.63-6.57s.22-.76-.75-1.11a1.23,1.23,0,0,0-1.38.23c-.08,0-.14.21-.14.21s1.06-4.41-2-4.41c-1.92,0-4.57,2.11-5.89,4l-4.48,2.44c-.72.41-1.46.81-2.16,1.18,0,0-.09-.11-.14-.15-3.73-4-10.62-6.8-10.33-12.15.11-1.94.78-7.06,13.24-13.27,10.25-5.05,18.41-3.65,19.82-.55,2,4.44-4.37,12.67-15,13.86-4.05.45-6.17-1.11-6.7-1.69s-.65-.65-.85-.53-.13.74,0,1.05a6.24,6.24,0,0,0,3.82,3c2,.63,6.69,1,12.42-1.23,6.42-2.48,11.44-9.39,10-15.17S122.2-1.69,113,1.59c-5.48,1.94-11.42,5-15.7,9-5.08,4.75-5.88,8.88-5.55,10.6,1.18,6.14,9.64,10.14,13,13.1l-.46.25c-1.7.84-8.15,4.22-9.76,7.78-1.83,4.05.29,6.94,1.69,7.33a10.41,10.41,0,0,0,11.22-4.54,11.24,11.24,0,0,0,1-10.36.18.18,0,0,0,0-.07l1.33-.78c.86-.51,1.71-1,2.44-1.38a16.32,16.32,0,0,0-.86,4.43c-.18,2.29.76,5.26,2,6.43a2.19,2.19,0,0,0,1.6.53c1.44,0,2.09-1.2,2.8-2.61.88-1.73,1.67-3.74,1.67-3.74s-1,5.43,1.69,5.43c1,0,2-1.26,2.4-1.91h0a.6.6,0,0,0,.08-.12,2.21,2.21,0,0,1,.16-.25v0c.38-.68,1.26-2.23,2.56-4.8,1.69-3.31,3.3-7.45,3.3-7.45a21.67,21.67,0,0,0,.65,2.69,24.58,24.58,0,0,0,1.39,3.12c-.39.55-.63.85-.63.85h0c-.32.42-.66.87-1,1.31a37.54,37.54,0,0,0-3.13,3.92,1.08,1.08,0,0,0,.29,1.44,2.72,2.72,0,0,0,1.64.26,7.11,7.11,0,0,0,2.44-.56,8.24,8.24,0,0,0,2.11-1.1,4.72,4.72,0,0,0,2-4.16,8.25,8.25,0,0,0-.76-2.93l.35-.51a55.26,55.26,0,0,0,3.65-6.31,21.67,21.67,0,0,0,.65,2.69,17.56,17.56,0,0,0,1.18,2.68,11.61,11.61,0,0,0-3.56,4.59c-.76,2.22-.17,3.21,1,3.45a3.39,3.39,0,0,0,1.78-.37,8.24,8.24,0,0,0,2.26-1.16c1.3-1,2.55-2.3,2.48-4.11a8,8,0,0,0-.56-2.44,12.74,12.74,0,0,1,6.47-.74c5.79.68,6.94,4.3,6.72,5.82a3.89,3.89,0,0,1-1.84,2.61c-.4.25-.54.34-.5.52s.24.26.58.21a4.53,4.53,0,0,0,3.16-4C158.51,32.62,155.1,28.71,149.07,28.74ZM104.36,43.82c-1.93,2.09-4.61,2.89-5.76,2.22s-.76-3.82,1.6-6a31.26,31.26,0,0,1,4.52-3.38l1.2-.71.13-.08h0l.29-.18A8.3,8.3,0,0,1,104.36,43.82Zm14-9.52c-.67,1.63-2.07,5.81-2.92,5.57s-1.18-3.36-.15-6.49a14.74,14.74,0,0,1,2.28-4.17c1.05-1.17,2.2-1.56,2.48-1.09S118.78,33.27,118.36,34.3Zm11.56,5.52c-.28.15-.55.25-.67.18s.12-.25.12-.25,1.45-1.56,2-2.26c.33-.42.72-.9,1.13-1.45v.16C132.52,38.06,130.72,39.31,129.92,39.82Zm8.91-2c-.2-.14-.17-.63.53-2.15a8,8,0,0,1,2-2.56,3.58,3.58,0,0,1,.2,1.12A3.69,3.69,0,0,1,138.83,37.79Z" transform="translate(-0.36 0)"/><path class="cls-9" d="M180.85,38.88c2.11-2.52,2.36-5.13.72-10-1-3.07-2.75-5.43-1.49-7.33s4.21-.06,1.83,2.65l.47.33c2.86.33,4.27-3.58,2.13-4.7-5.63-2.94-10.55,2.71-8.38,9.25.93,2.78,2.24,5.71,1.18,8-.91,2-2.67,3.19-3.85,3.23-2.46.13-.83-5.52,2-6.93.25-.13.6-.29.27-.7A6.2,6.2,0,0,0,169,36.23C165.58,42.79,175.53,45.21,180.85,38.88Z" transform="translate(-0.36 0)"/><path class="cls-9" d="M242.32,19.59c.8,2,2,4,1.3,5.69-.6,1.49-1.39,2.12-2.26,2.26-1.22.21-.89-3.62,1.2-4.76.19-.1.46-.6.21-.89a4.75,4.75,0,0,0-4.94,2.79c-2.34,4.91,5.29,6.25,9,1.43,1.49-1.92,1.55-3.83.12-7.28-.91-2.2-2.29-3.83-1.42-5.28s3.16-.21,1.49,1.84l.37.21c2.17.12,3.06-2.77,1.41-3.5C244.47,10.24,240.39,14.94,242.32,19.59Z" transform="translate(-0.36 0)"/><path class="cls-9" d="M214.67,14.36c-1.51-1.2-5.76.8-7,3.78-1.51,3.79-3.74,9.32-5.94,11.74s-2.54.58-2.31-.89c.53-3.46,3.91-11.47,5.75-13.72-.68-1-5.15-.87-8.26,3.95-1.16,1.82-3.81,7.89-6.75,12.67-.64,1-1.44.31-.82-2.11a114.74,114.74,0,0,1,5.44-16.52,113.08,113.08,0,0,1,20.12-2.38c.76-.21,1.28-.89,0-.93a135.15,135.15,0,0,0-19.17,1.28c1.33-2.65,2.75-4.76,4.2-5.65-1.57-1-4.76-.6-6.58,2.09A36.08,36.08,0,0,0,191,11.89a70.51,70.51,0,0,0-11.57,2.51c-2.27.87-2,3.62-.64,3.1a93,93,0,0,1,11.09-3.18,88.17,88.17,0,0,0-5.42,16.51c-1.28,7.24,3.21,7.2,5.4,4.35,2.38-3.13,7.35-14.12,8.12-15.28.22-.39.53-.18.37.17-5.55,11.07-5.07,15.35-.58,14.4,2-.43,5.53-3.91,6.44-5.71.18-.43.58-.39.49-.21-3.52,9.13-8,16.52-11,18.84-2.73,2.09-4.76-2.45,4.91-8.94,1.43-1,.76-2.3-.85-1.85h0c-5,.79-19.27,5.32-25.54,9.67-.47.33-.91.6-.89,1.28,0,.4.7.25,1,0,8.11-4.86,14.75-6.76,22.37-8.36a.42.42,0,0,0,.33,0c.35-.08.33.11.1.25a11.18,11.18,0,0,1-1.16.6c-5.13,2-8.23,6.44-7.14,8.69.93,2,6,1.25,8.34,0,5.84-3.16,10.08-9.37,13-17.94C210.73,23.21,213.92,14.61,214.67,14.36Z" transform="translate(-0.36 0)"/><path class="cls-9" d="M248.59,31.89c-9.5-1.25-30,.41-39,2.81-2.7.7-1.95,2.13-.58,1.86l.62-.14c7.43-1.45,25.45-2.71,36-.71C246.83,35.94,250.62,32.16,248.59,31.89Z" transform="translate(-0.36 0)"/><path class="cls-9" d="M217.32,30.77c2.64-1.33,6.58-9.52,9.16-14,.19-.33.52-.06.34.16-6.54,11.26-3.77,12.57-1.18,12.4,3.45-.21,6.64-5.17,7.34-6.29.29-.44.46-.08.29.23-.16.51-.76,1.42-1.32,2.67-.79,1.75,0,2.44.72,2.75,1.08.52,4,.18,4.47-1.62-2.94-.06,4.1-13.92,4.82-14.77-2-1.14-5,.1-6.39,2.83-3,5.86-5.44,10.58-7,10.66-3,.17,3.48-13.06,4.54-13.47-.64-.93-4.76-.54-7.06,3-.83,1.28-5.88,10.22-7.12,11.69-2.19,2.61-2.36.38-1.74-2.23a30.36,30.36,0,0,1,1-3.29,15.33,15.33,0,0,1,3.95-5.36C228.55,9,232.22,3.28,230.77,1c-1.29-2-5.57-1.12-8.32,3-5.07,7.6-9.75,18-10.35,22.77S215,31.93,217.32,30.77ZM220,16.84c.22-.52.37-.66.76-1.53h0c2.28-5,5.13-10.29,7.1-12.75,1.22-1.28,2.94.46-.16,5.22a48.53,48.53,0,0,1-6.15,7.67v0c-.58.65-1.1,1.18-1.33,1.49S219.88,17.13,220,16.84Z" transform="translate(-0.36 0)"/><circle class="cls-9" cx="284.64" cy="25.03" r="24.97"/><path class="cls-10" d="M285,0a25,25,0,1,0,25,25A25,25,0,0,0,285,0ZM265.4,25.23l19.34,19.34A19.6,19.6,0,0,1,265.4,25.23Zm24,18.85-23.5-23.5a19.6,19.6,0,0,1,35-7.15l-2.71,2.39A16,16,0,0,0,270,19.52L290.45,40a16,16,0,0,0,10.09-11.21H292V25h12.57A19.62,19.62,0,0,1,289.39,44.08Z" transform="translate(-0.36 0)"/><path class="cls-11" d="M375.07,25c0-3.72-4.66-7.25-11.8-9.43,1.65-7.28.92-13.07-2.31-14.93A5,5,0,0,0,358.4,0V2.56a2.69,2.69,0,0,1,1.3.3c1.56.89,2.23,4.29,1.71,8.66a34.15,34.15,0,0,1-.59,3.37,56.18,56.18,0,0,0-7.26-1.25,56.36,56.36,0,0,0-4.76-5.72c3.73-3.47,7.23-5.37,9.61-5.37V0h0c-3.15,0-7.27,2.24-11.43,6.13C342.81,2.27,338.69.05,335.54.05V2.6c2.37,0,5.89,1.89,9.62,5.33a53.56,53.56,0,0,0-4.73,5.71,54.51,54.51,0,0,0-7.28,1.26,32.75,32.75,0,0,1-.59-3.32c-.54-4.37.12-7.77,1.67-8.67a2.49,2.49,0,0,1,1.31-.3V.06h0A5,5,0,0,0,333,.7c-3.22,1.85-3.94,7.63-2.28,14.89-7.12,2.19-11.75,5.71-11.75,9.42s4.66,7.24,11.8,9.43c-1.65,7.27-.92,13.07,2.31,14.92a5.05,5.05,0,0,0,2.57.64c3.15,0,7.27-2.24,11.44-6.13,4.16,3.86,8.28,6.08,11.43,6.08a5.08,5.08,0,0,0,2.59-.64c3.21-1.85,3.93-7.63,2.27-14.89C370.44,32.24,375.07,28.71,375.07,25Zm-14.9-7.64c-.42,1.48-.95,3-1.54,4.52-.47-.91-1-1.83-1.5-2.74s-1.09-1.81-1.65-2.68C357.11,16.71,358.67,17,360.17,17.37Zm-5.24,12.19q-1.33,2.32-2.76,4.37c-1.7.15-3.43.23-5.17.23s-3.46-.08-5.15-.22c-1-1.36-1.88-2.81-2.77-4.35s-1.66-3-2.38-4.55c.71-1.53,1.51-3.07,2.37-4.57s1.81-3,2.76-4.37c1.7-.15,3.43-.23,5.17-.23s3.46.08,5.15.22c1,1.36,1.88,2.82,2.77,4.35s1.66,3,2.38,4.55C356.58,26.53,355.79,28.06,354.93,29.56Zm3.7-1.49c.62,1.54,1.14,3.07,1.58,4.56-1.5.36-3.08.67-4.72.91.56-.88,1.12-1.78,1.65-2.71S358.16,29,358.63,28.07ZM347,40.28a45.68,45.68,0,0,1-3.18-3.66c1,.05,2.08.08,3.15.08s2.14,0,3.18-.08A41.84,41.84,0,0,1,347,40.28Zm-8.51-6.74c-1.63-.24-3.19-.53-4.69-.9.42-1.48.95-3,1.54-4.52.47.91,1,1.83,1.5,2.75S338,32.67,338.51,33.54ZM347,9.73q1.59,1.65,3.18,3.66c-1-.05-2.09-.08-3.15-.08s-2.14,0-3.18.08A43.36,43.36,0,0,1,347,9.73Zm-8.47,6.74c-.56.88-1.12,1.78-1.65,2.71s-1,1.83-1.49,2.75c-.62-1.54-1.14-3.07-1.58-4.56C335.28,17,336.86,16.71,338.5,16.47ZM328.14,30.8c-4.05-1.73-6.67-4-6.67-5.79s2.62-4.08,6.67-5.8c1-.42,2.06-.8,3.17-1.15a55.29,55.29,0,0,0,2.57,7A56.07,56.07,0,0,0,331.34,32C330.21,31.61,329.14,31.22,328.14,30.8Zm6.16,16.35c-1.56-.89-2.23-4.29-1.71-8.66a34.15,34.15,0,0,1,.59-3.37,54.52,54.52,0,0,0,7.26,1.25,56.36,56.36,0,0,0,4.76,5.72c-3.73,3.47-7.23,5.37-9.61,5.37A2.76,2.76,0,0,1,334.3,47.15Zm27.14-8.72c.54,4.37-.12,7.77-1.67,8.67a2.49,2.49,0,0,1-1.31.3c-2.37,0-5.89-1.89-9.62-5.33a53.56,53.56,0,0,0,4.73-5.71,54.51,54.51,0,0,0,7.28-1.26A31.66,31.66,0,0,1,361.44,38.43Zm4.41-7.63c-1,.42-2.06.8-3.17,1.15a53.89,53.89,0,0,0-2.58-7,53,53,0,0,0,2.54-6.93c1.14.35,2.21.74,3.22,1.16,4.05,1.73,6.67,4,6.67,5.8S369.9,29.08,365.85,30.8Z" transform="translate(-0.36 0)"/><path class="cls-11" d="M335.53.05Z" transform="translate(-0.36 0)"/><circle class="cls-11" cx="346.63" cy="25.01" r="5.23"/><path class="cls-11" d="M358.39,0Z" transform="translate(-0.36 0)"/><path class="cls-12" d="M479.29,34.87h5.4l-8.61-22.36h-6l-8.62,22.36h5.4l1.41-3.79h8.14L475,26.89h-5.36l3.48-9.62Zm17.8-16.56a1.3,1.3,0,1,0-2.5.7,22.44,22.44,0,1,1-7.3-11.25A3.26,3.26,0,0,0,487.05,9a3.13,3.13,0,1,0,3.13-3.12,3.32,3.32,0,0,0-1,.14,24.94,24.94,0,1,0,7.87,12.32Z" transform="translate(-0.36 0)"/><path class="cls-13" d="M421.16,34.92a3.77,3.77,0,0,0-.4-7.51h-.14A3.76,3.76,0,0,0,417,31.3a3.82,3.82,0,0,0,1.08,2.48c-2.28,4.49-5.77,7.77-11,10.52a18.12,18.12,0,0,1-10.93,2.08,9.32,9.32,0,0,1-6.84-4A9.86,9.86,0,0,1,388.79,32a15.55,15.55,0,0,1,4.56-5.36c-.27-.88-.67-2.35-.88-3.42-9.71,7-8.71,16.55-5.76,21,2.21,3.35,6.7,5.43,11.66,5.43a16.23,16.23,0,0,0,4-.47,25.72,25.72,0,0,0,18.77-14.34ZM433,26.61c-5.1-6-12.6-9.25-21.18-9.25H410.7a3.66,3.66,0,0,0-3.28-2h-.13a3.76,3.76,0,0,0,.13,7.51h.13a3.79,3.79,0,0,0,3.29-2.28H412a25.56,25.56,0,0,1,14.28,4.35,18,18,0,0,1,7.1,8.58,9.28,9.28,0,0,1-.13,7.91,9.85,9.85,0,0,1-9.18,5.5,17.21,17.21,0,0,1-6.57-1.41c-.74.67-2.08,1.74-3,2.41A20.76,20.76,0,0,0,423.17,50c6.43,0,11.19-3.55,13-7.1C438.12,39,438,32.31,433,26.61Zm-34,9.45a3.77,3.77,0,0,0,3.75,3.62h.14a3.76,3.76,0,0,0-.14-7.51h-.13a1.08,1.08,0,0,0-.47.07,24.57,24.57,0,0,1-3.49-14.88,18,18,0,0,1,4-10.39c1.94-2.48,5.69-3.69,8.24-3.75,7.11-.14,10.12,8.71,10.32,12.26.87.2,2.35.67,3.35,1C423.64,5.63,416.94,0,410.5,0c-6,0-11.59,4.36-13.8,10.79-3.09,8.58-1.08,16.82,2.68,23.33a2.94,2.94,0,0,0-.47,1.94Z" transform="translate(-0.36 0)"/></svg>