<svg id="Layer_1" data-name="Layer 1" xmlns="http://www.w3.org/2000/svg" xmlns:xlink="http://www.w3.org/1999/xlink" viewBox="0 0 307.31 50"><defs><style>.cls-1{fill:none;}.cls-2{fill:#e535ab;}.cls-3{fill:#689f63;}.cls-4{fill:#f5f5f5;}.cls-5{clip-path:url(#clip-path);}.cls-6{fill:url(#linear-gradient);}.cls-7{clip-path:url(#clip-path-2);}.cls-8{fill:url(#linear-gradient-2);}.cls-9{clip-path:url(#clip-path-3);}.cls-10{fill:url(#linear-gradient-3);}.cls-11{fill:#47848f;}.cls-12{fill:#facb01;}.cls-13{fill:#4fb5e1;}.cls-14{fill:#f05751;}.cls-15{fill:#0681b6;}.cls-16{fill:#cd4739;}</style><clipPath id="clip-path" transform="translate(0.25 0)"><path class="cls-1" d="M198.84,11.55,191.07,16a.94.94,0,0,0-.47.81v9a1,1,0,0,0,.47.82l7.77,4.49a1,1,0,0,0,.94,0l7.78-4.49a.94.94,0,0,0,.46-.82v-9a.92.92,0,0,0-.47-.81l-7.77-4.49a1,1,0,0,0-.47-.12,1,1,0,0,0-.47.12"/></clipPath><linearGradient id="linear-gradient" x1="0.37" y1="50.34" x2="0.59" y2="50.34" gradientTransform="matrix(-50.75, 103.54, 103.54, 50.75, -4988.03, -2583.46)" gradientUnits="userSpaceOnUse"><stop offset="0.3" stop-color="#3e863d"/><stop offset="0.5" stop-color="#55934f"/><stop offset="0.8" stop-color="#5aad45"/></linearGradient><clipPath id="clip-path-2" transform="translate(0.25 0)"><path class="cls-1" d="M190.79,26.4a1,1,0,0,0,.28.25l6.67,3.85,1.11.64a1,1,0,0,0,.54.12,1.13,1.13,0,0,0,.18,0l8.2-15a.76.76,0,0,0-.22-.17l-5.09-2.94-2.69-1.55a1,1,0,0,0-.24-.1Z"/></clipPath><linearGradient id="linear-gradient-2" x1="1.35" y1="51.68" x2="1.5" y2="51.68" gradientTransform="matrix(142.41, -105.22, -105.22, -142.41, 5434.1, 7530.84)" gradientUnits="userSpaceOnUse"><stop offset="0.57" stop-color="#3e863d"/><stop offset="0.72" stop-color="#619857"/><stop offset="1" stop-color="#76ac64"/></linearGradient><clipPath id="clip-path-3" transform="translate(0.25 0)"><path class="cls-1" d="M199.22,11.43a.89.89,0,0,0-.38.12L191.09,16l8.36,15.22a.76.76,0,0,0,.33-.11l7.78-4.49A1,1,0,0,0,208,26l-8.52-14.55a.62.62,0,0,0-.19,0h-.08"/></clipPath><linearGradient id="linear-gradient-3" x1="1.29" y1="52.03" x2="1.42" y2="52.03" gradientTransform="matrix(129.89, 0, 0, -129.89, 23.85, 6779.53)" gradientUnits="userSpaceOnUse"><stop offset="0.16" stop-color="#6bbf47"/><stop offset="0.38" stop-color="#79b461"/><stop offset="0.47" stop-color="#75ac64"/><stop offset="0.7" stop-color="#659e5a"/><stop offset="0.9" stop-color="#3e863d"/></linearGradient></defs><title>tools-3</title><rect class="cls-2" x="-7.34" y="18.81" width="40.9" height="2.12" transform="translate(-10.4 21.29) rotate(-60)"/><rect class="cls-2" x="1.8" y="34.22" width="40.9" height="2.12"/><rect class="cls-2" x="12.05" y="28.59" width="2.12" height="23.62" transform="translate(-28.18 31.55) rotate(-60)"/><rect class="cls-2" x="29.82" y="-2.19" width="2.12" height="23.62" transform="translate(7.36 31.55) rotate(-60)"/><rect class="cls-2" x="1.31" y="8.55" width="23.62" height="2.12" transform="translate(-2.8 7.85) rotate(-30)"/><rect class="cls-2" x="29.84" y="-0.58" width="2.12" height="40.9" transform="translate(-5.55 18.11) rotate(-30)"/><rect class="cls-2" x="3.42" y="13.19" width="2.12" height="23.62"/><rect class="cls-2" x="38.96" y="13.19" width="2.12" height="23.62"/><rect class="cls-2" x="20.61" y="39.46" width="20.54" height="1.85" transform="translate(-15.81 20.85) rotate(-30)"/><path class="cls-2" d="M43.64,37.5A4.46,4.46,0,1,1,42,31.41a4.46,4.46,0,0,1,1.63,6.09" transform="translate(0.25 0)"/><path class="cls-2" d="M8.07,17a4.46,4.46,0,1,1-1.63-6.09A4.46,4.46,0,0,1,8.07,17" transform="translate(0.25 0)"/><path class="cls-2" d="M.36,37.5a4.46,4.46,0,1,1,6.09,1.63A4.46,4.46,0,0,1,.36,37.5" transform="translate(0.25 0)"/><path class="cls-2" d="M35.93,17A4.46,4.46,0,1,1,42,18.59,4.46,4.46,0,0,1,35.93,17" transform="translate(0.25 0)"/><path class="cls-2" d="M22,50a4.46,4.46,0,1,1,4.46-4.46A4.46,4.46,0,0,1,22,50" transform="translate(0.25 0)"/><path class="cls-2" d="M22,8.91a4.46,4.46,0,1,1,4.46-4.45A4.46,4.46,0,0,1,22,8.91" transform="translate(0.25 0)"/><path class="cls-3" d="M209.53,50a1.49,1.49,0,0,1-.77-.21l-2.46-1.45c-.37-.21-.19-.28-.07-.32a5.16,5.16,0,0,0,1.11-.51.21.21,0,0,1,.19,0l1.89,1.12a.24.24,0,0,0,.23,0L217,44.39a.23.23,0,0,0,.11-.2V35.68a.23.23,0,0,0-.11-.2l-7.37-4.25a.2.2,0,0,0-.23,0l-7.37,4.25a.24.24,0,0,0-.12.2v8.51a.21.21,0,0,0,.12.19l2,1.17c1.09.55,1.76-.1,1.76-.75V36.41a.22.22,0,0,1,.22-.22H207a.21.21,0,0,1,.21.22v8.4a2,2,0,0,1-2.18,2.3,3.17,3.17,0,0,1-1.7-.46l-1.93-1.12a1.55,1.55,0,0,1-.78-1.34V35.68a1.55,1.55,0,0,1,.78-1.34l7.38-4.26a1.58,1.58,0,0,1,1.55,0l7.37,4.26a1.56,1.56,0,0,1,.77,1.34v8.51a1.56,1.56,0,0,1-.77,1.34l-7.37,4.26a1.55,1.55,0,0,1-.78.21" transform="translate(0.25 0)"/><path class="cls-3" d="M211.81,44.14c-3.23,0-3.9-1.48-3.9-2.73a.21.21,0,0,1,.21-.21h.95a.21.21,0,0,1,.21.18c.15,1,.57,1.46,2.53,1.46,1.55,0,2.21-.35,2.21-1.17,0-.48-.19-.83-2.6-1.07-2-.19-3.27-.64-3.27-2.25S209.41,36,211.51,36c2.36,0,3.53.82,3.68,2.58a.27.27,0,0,1-.06.17.24.24,0,0,1-.16.07h-1a.22.22,0,0,1-.2-.17c-.23-1-.79-1.35-2.31-1.35-1.69,0-1.89.59-1.89,1s.23.69,2.52,1,3.34.73,3.34,2.32-1.34,2.53-3.67,2.53m9-9H221a.21.21,0,0,0,.24-.22c0-.22-.15-.22-.24-.22h-.25Zm-.3-.69H221c.18,0,.55,0,.55.42a.37.37,0,0,1-.3.39c.22,0,.24.16.27.36a1.21,1.21,0,0,0,.08.42h-.34c0-.07-.06-.48-.06-.5s0-.14-.17-.14h-.27V36h-.31Zm-.66.79A1.19,1.19,0,1,0,221,34a1.19,1.19,0,0,0-1.19,1.19m2.61,0A1.42,1.42,0,1,1,221,33.8a1.42,1.42,0,0,1,1.42,1.42" transform="translate(0.25 0)"/><path class="cls-4" d="M186.7,16.71a1,1,0,0,0-.47-.82l-7.82-4.5a1.06,1.06,0,0,0-.43-.12h-.08a1.06,1.06,0,0,0-.43.12l-7.82,4.5a1,1,0,0,0-.47.82l0,12.12a.45.45,0,0,0,.23.4.44.44,0,0,0,.47,0l4.65-2.66a1,1,0,0,0,.47-.82V20.09a.93.93,0,0,1,.47-.81l2-1.14a.9.9,0,0,1,.47-.13.88.88,0,0,1,.47.13l2,1.14a.93.93,0,0,1,.47.81v5.66a.94.94,0,0,0,.48.82L186,29.23a.44.44,0,0,0,.47,0,.48.48,0,0,0,.24-.41ZM223.59,23a.24.24,0,0,1-.12.2l-2.69,1.55a.24.24,0,0,1-.23,0l-2.69-1.55a.24.24,0,0,1-.12-.2v-3.1a.26.26,0,0,1,.12-.21l2.68-1.55a.25.25,0,0,1,.24,0l2.69,1.55a.26.26,0,0,1,.12.21Zm.72-23a.49.49,0,0,0-.47,0,.49.49,0,0,0-.23.41v12a.3.3,0,0,1-.17.28.32.32,0,0,1-.33,0l-2-1.12a1,1,0,0,0-.95,0l-7.82,4.51a1,1,0,0,0-.47.82v9a1,1,0,0,0,.47.82l7.82,4.52a1,1,0,0,0,.95,0L229,26.8a1,1,0,0,0,.47-.82V3.48a.94.94,0,0,0-.49-.82Zm26,19.78a1,1,0,0,0,.47-.82V16.83a.94.94,0,0,0-.47-.81l-7.77-4.51a1,1,0,0,0-1,0L233.82,16a.94.94,0,0,0-.48.82v9a1,1,0,0,0,.48.82l7.77,4.43a.94.94,0,0,0,.92,0l4.7-2.61a.46.46,0,0,0,.24-.41.47.47,0,0,0-.23-.41l-7.87-4.51a.47.47,0,0,1-.24-.41V19.93a.46.46,0,0,1,.24-.41l2.45-1.41a.44.44,0,0,1,.47,0l2.45,1.41a.47.47,0,0,1,.23.41v2.22a.46.46,0,0,0,.24.41.44.44,0,0,0,.47,0Z" transform="translate(0.25 0)"/><path class="cls-3" d="M242,19.41a.19.19,0,0,1,.18,0l1.5.87a.17.17,0,0,1,.09.16v1.73a.19.19,0,0,1-.09.16l-1.5.86a.19.19,0,0,1-.18,0l-1.5-.86a.22.22,0,0,1-.09-.16V20.44a.17.17,0,0,1,.09-.16Z" transform="translate(0.25 0)"/><g class="cls-5"><path class="cls-6" d="M215.88,15.28,194,4.54,182.74,27.45l21.91,10.74Z" transform="translate(0.25 0)"/></g><g class="cls-7"><path class="cls-8" d="M181.32,18.45l15.47,20.94,20.46-15.12L201.78,3.34Z" transform="translate(0.25 0)"/></g><g class="cls-9"><path class="cls-10" d="M191.09,11.43V31.25H208V11.43Z" transform="translate(0.25 0)"/></g><g id="layer1"><g id="g8"><g id="g14"><path id="path16" class="cls-11" d="M277.21,10.75c-6.53-1.19-11.7.05-13.76,3.62-1.54,2.66-1.1,6.19,1.07,10a.67.67,0,0,0,.91.25.68.68,0,0,0,.25-.92c-1.95-3.39-2.33-6.44-1.07-8.62,1.71-3,6.32-4.07,12.36-3a.68.68,0,0,0,.78-.54.67.67,0,0,0-.54-.78Zm-9.3,18.16a42,42,0,0,0,10,7.89c9.48,5.47,19.57,6.94,24.54,3.54a.66.66,0,0,0,.18-.93.67.67,0,0,0-.93-.17c-4.45,3-14,1.64-23.12-3.6A40.48,40.48,0,0,1,268.91,28a.67.67,0,0,0-1,.9Z" transform="translate(0.25 0)"/><path id="path18" class="cls-11" d="M300.86,28.1c4.28-5.06,5.77-10.14,3.72-13.7-1.52-2.62-4.71-4-9-4.05a.67.67,0,1,0,0,1.34c3.82.05,6.58,1.24,7.81,3.38,1.71,3,.38,7.49-3.57,12.16a.67.67,0,1,0,1,.87ZM289.86,11a42,42,0,0,0-11.94,4.73c-9.78,5.65-16.16,14-15.28,20a.67.67,0,0,0,1.33-.19c-.79-5.37,5.26-13.26,14.62-18.67a40.81,40.81,0,0,1,11.55-4.58.67.67,0,1,0-.28-1.31Z" transform="translate(0.25 0)"/><path id="path20" class="cls-11" d="M274,39.91c2.24,6.24,5.9,10.09,10,10.09,3,0,5.78-2,8-5.65a.68.68,0,0,0-.23-.92.67.67,0,0,0-.92.23c-1.95,3.24-4.34,5-6.8,5-3.42,0-6.68-3.43-8.75-9.2a.67.67,0,0,0-.85-.41.68.68,0,0,0-.41.86Zm20.43-1.22a42,42,0,0,0,1.78-12.42c0-11.1-3.88-20.67-9.41-23.13a.67.67,0,1,0-.55,1.23c4.94,2.19,8.62,11.27,8.62,21.9a41,41,0,0,1-1.71,12,.66.66,0,0,0,.43.84.67.67,0,0,0,.84-.44Z" transform="translate(0.25 0)"/><path id="path22" class="cls-11" d="M307.06,38a3.21,3.21,0,1,0-3.2,3.21,3.21,3.21,0,0,0,3.2-3.21Zm-1.34,0a1.87,1.87,0,1,1-1.86-1.87A1.87,1.87,0,0,1,305.72,38Z" transform="translate(0.25 0)"/><path id="path24" class="cls-11" d="M264.14,41.24a3.21,3.21,0,1,0-3.2-3.21,3.21,3.21,0,0,0,3.2,3.21Zm0-1.34A1.87,1.87,0,1,1,266,38a1.87,1.87,0,0,1-1.87,1.87Z" transform="translate(0.25 0)"/><path id="path26" class="cls-11" d="M284,6.41a3.21,3.21,0,1,0-3.2-3.2,3.21,3.21,0,0,0,3.2,3.2Zm0-1.34a1.87,1.87,0,1,1,1.87-1.86A1.86,1.86,0,0,1,284,5.07Z" transform="translate(0.25 0)"/><path id="path28" class="cls-11" d="M284.51,28.54a2.32,2.32,0,1,1,1.78-2.76,2.32,2.32,0,0,1-1.78,2.76Z" transform="translate(0.25 0)"/></g></g></g><path class="cls-12" d="M130,34.84A13.29,13.29,0,0,1,125.79,25a13.78,13.78,0,0,1,4.06-9.84A5.53,5.53,0,0,0,122,7.34,25.47,25.47,0,0,0,114.85,25a24.89,24.89,0,0,0,7.35,17.66,5.48,5.48,0,0,0,7.81,0A5.78,5.78,0,0,0,130,34.84Z" transform="translate(0.25 0)"/><path class="cls-13" d="M130,15.16a13.31,13.31,0,0,1,9.84-4.22A13.81,13.81,0,0,1,149.7,15a5.52,5.52,0,1,0,7.81-7.81A25.44,25.44,0,0,0,139.85,0,24.92,24.92,0,0,0,122.2,7.34a5.48,5.48,0,0,0,0,7.82A5.77,5.77,0,0,0,130,15.16Z" transform="translate(0.25 0)"/><path class="cls-14" d="M149.7,34.84a13.32,13.32,0,0,1-9.85,4.22A13.8,13.8,0,0,1,130,35a5.52,5.52,0,1,0-7.81,7.81A25.43,25.43,0,0,0,139.85,50a24.92,24.92,0,0,0,17.66-7.34,5.48,5.48,0,0,0,0-7.82A5.77,5.77,0,0,0,149.7,34.84Z" transform="translate(0.25 0)"/><circle class="cls-15" cx="126.35" cy="11.25" r="5.47"/><circle class="cls-16" cx="126.35" cy="38.75" r="5.47"/><path d="M72.28,45.24A21.43,21.43,0,0,0,86,45.15L79.55,28.32,72.28,45.24Z" transform="translate(0.25 0)"/><path d="M58.62,19.06a21.25,21.25,0,0,0,10,24.56L58.68,19.2l-.06-.14Z" transform="translate(0.25 0)"/><path d="M69.45,17.69l-.91,0c-2,0-1.77,2-1.77,2l7.07,17.74,4.75-11.36-2.65-6.75c-1.07-1.79-3.66-1.77-3.66-1.77V16.6H87.15l0,1-1.55.1A1.45,1.45,0,0,0,84,19.57L90.49,36.8,92.34,32c3.28-7.43,1.26-12.94,1.26-12.94-3.29-6.75.86-7.72.86-7.72a7,7,0,0,1,.75-.07,21.26,21.26,0,0,0-35.74,5.4l10-.1,0,1.09Z" transform="translate(0.25 0)"/><path d="M102.9,25A23.9,23.9,0,1,1,79,1.1,23.93,23.93,0,0,1,102.9,25ZM79,0a25,25,0,1,0,25,25A25,25,0,0,0,79,0Z" transform="translate(0.25 0)"/><path d="M100.28,25.07a21.43,21.43,0,0,0-1-6.34l-9.5,24.66a21.26,21.26,0,0,0,10.46-18.32Z" transform="translate(0.25 0)"/></svg>