<svg id="Layer_1" data-name="Layer 1" xmlns="http://www.w3.org/2000/svg" viewBox="0 0 497.64 50"><defs><style>.cls-1{fill:#efcca3;}.cls-2{fill:#ccac8d;}.cls-3{fill:#fff;}.cls-4{fill:#56332b;}.cls-5{fill:#442823;}.cls-6{fill:#7f4a41;}.cls-7{fill:#331712;}.cls-8{fill:#cd6799;}.cls-9{fill:#f5f5f5;}.cls-10{fill:#744c9e;}.cls-11{fill:#61dafb;}.cls-12{fill:#21537c;}.cls-13{fill:#764abc;}.cls-14{fill:#dd3735;}.cls-15{fill:#dd3a0a;}</style></defs><title>tool-2B</title><path class="cls-1" d="M68.37,15.6c-.13-2.79.26-5.26-1-7.35C64.31,3,56.7,0,41.48,0V.44h0V0C26.25,0,18.26,3,15.21,8.31,14,10.47,14.14,12.88,14,15.67c-.13,2.22-1.15,4.57-.7,7.1.51,3.3.7,6.6,1.2,9.64.38,2.48,3.81,4.57,4.13,6.92.88,6.47,7.61,9.45,22.83,9.45v.51h.07v-.51c15.22,0,21.69-3,22.51-9.45.32-2.41,3.49-4.44,3.87-6.92.51-3,.7-6.34,1.21-9.64C69.51,20.24,68.5,17.83,68.37,15.6Z" transform="translate(-0.36)"/><path class="cls-2" d="M41.22,17.89c2.73.06,4.63,1.77,6.41,3.36,2.09,1.84,5.64,3.11,7.1,4.69s3.37,3.18,4.06,5.65a29.24,29.24,0,0,1,.89,6.47c0,.83.45.63,1.71,0,3-1.46,6.28-5.39,6.28-5.39-.38,2.47-3.61,4.69-3.93,7-.76,6.47-7,9.58-22.58,9.58h.32" transform="translate(-0.36)"/><path class="cls-2" d="M51.24,12.94c.58,2,2.61,8.63-1.33,6.41,0,0,1.65.95,2.67,4.56S56.26,28,56.26,28a9.56,9.56,0,0,0,7.42-1.9c2.66-2.28,3.11-6.34,2-9.45s-3.17-4-6.15-4.63S50.55,10.72,51.24,12.94Z" transform="translate(-0.36)"/><circle cx="58.43" cy="20.17" r="5.58"/><circle class="cls-3" cx="56.97" cy="17.7" r="1.46"/><path class="cls-1" d="M50.29,19.92A43.7,43.7,0,0,1,58,26.71c2.73,3.36,2.67,4,2.67,4l-2,.89s-2.79-5.26-6.22-7.23-3.87-3.62-3.87-3.62Z" transform="translate(-0.36)"/><path class="cls-2" d="M41.41,17.89c-2.73.06-4.76,1.77-6.59,3.36-2.1,1.84-5.78,3.11-7.24,4.69s-3.42,3.18-4.12,5.65a30.32,30.32,0,0,0-.95,6.47c0,.83.13.89-1.71,0-3-1.4-6.28-5.39-6.28-5.39.38,2.47,3.61,4.69,3.93,7,.89,6.47,7.17,9.58,22.71,9.58h.32" transform="translate(-0.36)"/><path class="cls-4" d="M56.13,28.61a18.75,18.75,0,0,0-14.72-7.23h-.06a18.75,18.75,0,0,0-14.72,7.23c-3.17,3.87-2.92,5.39-2.92,9.07,0,13.32,4.7,9.52,7.81,11.16s6.47,1.08,9.83,1.08h.06c3.43,0,6.66.45,9.83-1.14s7.81,2.35,7.81-11C59.11,34.13,59.3,32.48,56.13,28.61Z" transform="translate(-0.36)"/><path class="cls-5" d="M41.1,24.68s-.45,6.15-1.34,7.35l1.65-.38Z" transform="translate(-0.36)"/><path class="cls-5" d="M41.54,24.68S42,30.83,42.87,32l-1.65-.38Z" transform="translate(-0.36)"/><path class="cls-4" d="M36.21,23.22c-.63-1.46,1.65-3.81,5.27-3.87s5.9,2.34,5.26,3.87-2.92,2-5.26,2S36.85,24.74,36.21,23.22Z" transform="translate(-0.36)"/><path d="M41.48,24.68c0-.26,2.15-.32,3.29-1.08,0,0-2.34.76-2.85.44a1.49,1.49,0,0,1-.63-1,2,2,0,0,1-.58,1c-.44.26-3.1-.44-3.1-.44a25.28,25.28,0,0,1,3.55,1.08c0,.19-.06.82-.06,1.26,0,1.59,0,5.52.25,5.84.38.57.25-4.25.25-5.84C41.54,25.44,41.54,24.93,41.48,24.68Z" transform="translate(-0.36)"/><path class="cls-6" d="M41.6,33.18a10,10,0,0,1,4.7,2C44.65,33.3,42.68,32,41.6,32s-3.55,1.4-5.26,3.43A10.36,10.36,0,0,1,41.6,33.18Z" transform="translate(-0.36)"/><path class="cls-5" d="M41.16,44.4a27.38,27.38,0,0,1-6.92-1.33c-.44-.13-.88.19-1.33.07A17.87,17.87,0,0,1,23.71,37v.64c0,13.32,4.7,9.58,7.81,11.16s6.47,1.08,9.83,1.08h.06c3.43,0,6.66.44,9.83-1.14s7.81,2.28,7.81-11a11.33,11.33,0,0,1,.06-1.46c-1.84,3-5.2,5.33-9.39,6.72-.38.13-1.27-.19-1.65-.12A20.77,20.77,0,0,1,41.16,44.4Z" transform="translate(-0.36)"/><path class="cls-5" d="M35.13,37.24s-1.58,4.75-.51,6.85l-1.45-.64S34.24,38.63,35.13,37.24Z" transform="translate(-0.36)"/><path class="cls-5" d="M47.69,37.24s1.59,4.75.51,6.85l1.46-.64S48.52,38.63,47.69,37.24Z" transform="translate(-0.36)"/><path class="cls-2" d="M31.07,12.94c-.57,2-2.6,8.63,1.33,6.41,0,0-1.64.95-2.66,4.56S26.06,28,26.06,28a9.56,9.56,0,0,1-7.42-1.9c-2.66-2.28-3.11-6.34-2-9.45s3.17-4,6.16-4.63S31.71,10.72,31.07,12.94Z" transform="translate(-0.36)"/><path d="M41.41,32c1.72,0,7,3.68,7.11,8.19V40c0-4.69-4.32-8.43-7.11-8.43s-7.1,3.8-7.1,8.43v.26C34.37,35.71,39.7,32,41.41,32Z" transform="translate(-0.36)"/><ellipse class="cls-7" cx="42.56" cy="22.33" rx="0.51" ry="0.95" transform="translate(-4.59 11.33) rotate(-14.46)"/><ellipse class="cls-7" cx="39.82" cy="22.33" rx="0.95" ry="0.51" transform="translate(6.33 53.75) rotate(-72.76)"/><circle cx="23.48" cy="20.17" r="5.58"/><circle class="cls-3" cx="24.94" cy="17.7" r="1.46"/><path class="cls-6" d="M43.06,20.24c0-.07-1.46.63-1.84.69s-1.84-.76-1.84-.69h3.68Z" transform="translate(-0.36)"/><path class="cls-1" d="M32,19.92a43.7,43.7,0,0,0-7.74,6.79c-2.73,3.36-2.66,4-2.66,4l2,.89s2.79-5.26,6.22-7.23,3.87-3.62,3.87-3.62Z" transform="translate(-0.36)"/><path class="cls-2" d="M21,9.77s-1.72,4.69-5.52,6.66C15.47,16.43,21.43,15.73,21,9.77Z" transform="translate(-0.36)"/><path class="cls-2" d="M61,9.77s1.72,4.69,5.52,6.66C66.53,16.43,60.57,15.73,61,9.77Z" transform="translate(-0.36)"/><path class="cls-2" d="M50.17,18.52s-3.75-3.93-8.76-4.06h.13c-5.08.13-8.75,4.06-8.75,4.06a15.13,15.13,0,0,1,8.75-3h0A16.35,16.35,0,0,1,50.17,18.52Z" transform="translate(-0.36)"/><path class="cls-2" d="M45.79,10.28s-1.9-2.67-4.44-2.73h.13c-1.91.06-4.38,2.73-4.38,2.73a6.55,6.55,0,0,1,4.38-2h0A6.54,6.54,0,0,1,45.79,10.28Z" transform="translate(-0.36)"/><path class="cls-2" d="M23.84,29.75s-3,1.46-5.14.57h-.06C16.74,29.24,15.78,26,15.78,26A6.13,6.13,0,0,0,23.84,29.75Z" transform="translate(-0.36)"/><path class="cls-2" d="M58.6,29.75s3,1.46,5.14.57h0C66.28,29.24,66.66,26,66.66,26A6.13,6.13,0,0,1,58.6,29.75Z" transform="translate(-0.36)"/><path class="cls-2" d="M27.27,9.45a14.47,14.47,0,0,1,6.53.32c2.73,1,.51,4.44,1.08,4.63s1.33-2.41,6.41-2.16,5.7,2.54,6.4,2.16-.7-6.34,7-5c0,0-8.06-2.16-7.68,3.68,0,0-4.63-3.55-11.1-.38C36,12.75,37.61,7.29,27.27,9.45Z" transform="translate(-0.36)"/><path class="cls-2" d="M55.37,9.45c.12,0,.19.07.25.07S55.56,9.45,55.37,9.45Z" transform="translate(-0.36)"/><path class="cls-2" d="M55.37,9.45Z" transform="translate(-0.36)"/><path class="cls-2" d="M25.05,1.65s-6.85,8.63-7.87,11.92S15.4,30.7,14.52,32.67L11.34,19.09,17.18,5Z" transform="translate(-0.36)"/><path class="cls-2" d="M57.27,1.65s6.85,8.63,7.87,11.92,1.77,17.13,2.66,19.1L71,19.09,65.14,5Z" transform="translate(-0.36)"/><path class="cls-4" d="M57,1.65s7.36,6.15,9.52,13.26,1.27,15.73,2.92,16.81c2.34,1.52,5-7.55,5.9-8.5,1.39-1.53,6-5.39,6.34-6.09S72.24,5.84,68,3.74C62.85,1.33,56.51,1.14,57,1.65Z" transform="translate(-0.36)"/><path class="cls-5" d="M63.23,5.46s8.69,11.1,8.57,24.92l3.49-7.1A52.22,52.22,0,0,0,63.23,5.46Z" transform="translate(-0.36)"/><path class="cls-4" d="M25.05,1.65S17.69,7.8,15.53,14.91s-1.27,15.73-2.92,16.81c-2.34,1.52-5-7.55-5.9-8.5-1.39-1.53-6-5.39-6.34-6.09S9.76,5.84,14,3.74C19.15,1.33,25.49,1.14,25.05,1.65Z" transform="translate(-0.36)"/><path class="cls-5" d="M18.77,5.46s-8.69,11.1-8.57,24.92l-3.42-7.1A50.12,50.12,0,0,1,18.77,5.46Z" transform="translate(-0.36)"/><path class="cls-2" d="M14.07,30.64s.64,3.42,1.65,4.5.32-.82.32-.82-1.08-.57-.89-4.95S14.07,30.64,14.07,30.64Z" transform="translate(-0.36)"/><path class="cls-2" d="M68.18,30.64s-.63,3.42-1.65,4.5-.31-.82-.31-.82,1.07-.57.88-4.95S68.18,30.64,68.18,30.64Z" transform="translate(-0.36)"/><circle class="cls-5" cx="34.45" cy="28.04" r="0.51"/><circle class="cls-5" cx="31.53" cy="31.08" r="0.51"/><circle class="cls-5" cx="30.58" cy="28.04" r="0.51"/><circle class="cls-5" cx="46.82" cy="28.04" r="0.51"/><circle class="cls-5" cx="49.74" cy="31.08" r="0.51"/><circle class="cls-5" cx="50.69" cy="28.04" r="0.51"/><path class="cls-8" d="M149.07,28.74a14.07,14.07,0,0,0-6,1.4A12.67,12.67,0,0,1,141.68,27a8.33,8.33,0,0,1-.12-2.63,23.45,23.45,0,0,1,.79-2.83c0-.13-.14-.7-1.48-.71s-2.5.26-2.63.61a13.87,13.87,0,0,0-.56,2c-.24,1.22-2.68,5.57-4.08,7.85a8.7,8.7,0,0,1-.93-2.29,8.35,8.35,0,0,1-.12-2.63,22,22,0,0,1,.79-2.84c0-.12-.15-.7-1.49-.71s-2.49.26-2.63.61-.28,1.18-.56,2-3.53,8.06-4.38,9.93c-.44,1-.82,1.73-1.08,2.26h0l0,.09c-.23.45-.37.7-.37.7h0c-.18.33-.38.63-.47.63a4,4,0,0,1,0-2.07c.49-2.52,1.65-6.44,1.63-6.57s.22-.76-.75-1.11a1.23,1.23,0,0,0-1.38.23c-.08,0-.14.21-.14.21s1.06-4.41-2-4.41c-1.92,0-4.57,2.11-5.89,4l-4.48,2.44c-.72.41-1.46.81-2.16,1.18,0,0-.09-.11-.14-.15-3.73-4-10.62-6.8-10.33-12.15.11-1.94.78-7.06,13.24-13.27,10.25-5.05,18.41-3.65,19.82-.55,2,4.44-4.37,12.67-15,13.86-4.05.45-6.17-1.11-6.7-1.69s-.65-.65-.85-.53-.13.74,0,1.05a6.24,6.24,0,0,0,3.82,3c2,.63,6.69,1,12.42-1.23,6.42-2.48,11.44-9.39,10-15.17S122.2-1.69,113,1.59c-5.48,1.94-11.42,5-15.7,9-5.08,4.75-5.88,8.88-5.55,10.6,1.18,6.14,9.64,10.14,13,13.1l-.46.25c-1.7.84-8.15,4.22-9.76,7.78-1.83,4.05.29,6.94,1.69,7.33a10.41,10.41,0,0,0,11.22-4.54,11.24,11.24,0,0,0,1-10.36.18.18,0,0,0,0-.07l1.33-.78c.86-.51,1.71-1,2.44-1.38a16.32,16.32,0,0,0-.86,4.43c-.18,2.29.76,5.26,2,6.43a2.19,2.19,0,0,0,1.6.53c1.44,0,2.09-1.2,2.8-2.61.88-1.73,1.67-3.74,1.67-3.74s-1,5.43,1.69,5.43c1,0,2-1.26,2.4-1.91h0a.6.6,0,0,0,.08-.12,2.21,2.21,0,0,1,.16-.25v0c.38-.68,1.26-2.23,2.56-4.8,1.69-3.31,3.3-7.45,3.3-7.45a21.67,21.67,0,0,0,.65,2.69,24.58,24.58,0,0,0,1.39,3.12c-.39.55-.63.85-.63.85h0c-.32.42-.66.87-1,1.31a37.54,37.54,0,0,0-3.13,3.92,1.08,1.08,0,0,0,.29,1.44,2.72,2.72,0,0,0,1.64.26,7.11,7.11,0,0,0,2.44-.56,8.24,8.24,0,0,0,2.11-1.1,4.72,4.72,0,0,0,2-4.16,8.25,8.25,0,0,0-.76-2.93l.35-.51a55.26,55.26,0,0,0,3.65-6.31,21.67,21.67,0,0,0,.65,2.69,17.56,17.56,0,0,0,1.18,2.68,11.61,11.61,0,0,0-3.56,4.59c-.76,2.22-.17,3.21,1,3.45a3.39,3.39,0,0,0,1.78-.37,8.24,8.24,0,0,0,2.26-1.16c1.3-1,2.55-2.3,2.48-4.11a8,8,0,0,0-.56-2.44,12.74,12.74,0,0,1,6.47-.74c5.79.68,6.94,4.3,6.72,5.82a3.89,3.89,0,0,1-1.84,2.61c-.4.25-.54.34-.5.52s.24.26.58.21a4.53,4.53,0,0,0,3.16-4C158.51,32.62,155.1,28.71,149.07,28.74ZM104.36,43.82c-1.93,2.09-4.61,2.89-5.76,2.22s-.76-3.82,1.6-6a31.26,31.26,0,0,1,4.52-3.38l1.2-.71.13-.08h0l.29-.18A8.3,8.3,0,0,1,104.36,43.82Zm14-9.52c-.67,1.63-2.07,5.81-2.92,5.57s-1.18-3.36-.15-6.49a14.74,14.74,0,0,1,2.28-4.17c1.05-1.17,2.2-1.56,2.48-1.09S118.78,33.27,118.36,34.3Zm11.56,5.52c-.28.15-.55.25-.67.18s.12-.25.12-.25,1.45-1.56,2-2.26c.33-.42.72-.9,1.13-1.45v.16C132.52,38.06,130.72,39.31,129.92,39.82Zm8.91-2c-.2-.14-.17-.63.53-2.15a8,8,0,0,1,2-2.56,3.58,3.58,0,0,1,.2,1.12A3.69,3.69,0,0,1,138.83,37.79Z" transform="translate(-0.36)"/><circle class="cls-9" cx="284.64" cy="25.03" r="21.03"/><path class="cls-10" d="M285,0a25,25,0,1,0,25,25A25,25,0,0,0,285,0ZM265.4,25.23l19.34,19.34A19.6,19.6,0,0,1,265.4,25.23Zm24,18.85-23.5-23.5a19.6,19.6,0,0,1,35-7.15l-2.71,2.39A16,16,0,0,0,270,19.52L290.45,40a16,16,0,0,0,10.09-11.21H292V25h12.57A19.62,19.62,0,0,1,289.39,44.08Z" transform="translate(-0.36)"/><path class="cls-11" d="M375.07,25c0-3.72-4.66-7.25-11.8-9.43,1.65-7.28.92-13.07-2.31-14.93A5,5,0,0,0,358.4,0V2.56a2.69,2.69,0,0,1,1.3.3c1.56.89,2.23,4.29,1.71,8.66a34.15,34.15,0,0,1-.59,3.37,56.18,56.18,0,0,0-7.26-1.25,56.36,56.36,0,0,0-4.76-5.72c3.73-3.47,7.23-5.37,9.61-5.37V0h0c-3.15,0-7.27,2.24-11.43,6.13C342.81,2.27,338.69.05,335.54.05V2.6c2.37,0,5.89,1.89,9.62,5.33a53.56,53.56,0,0,0-4.73,5.71,54.51,54.51,0,0,0-7.28,1.26,32.75,32.75,0,0,1-.59-3.32c-.54-4.37.12-7.77,1.67-8.67a2.49,2.49,0,0,1,1.31-.3V.06h0A5,5,0,0,0,333,.7c-3.22,1.85-3.94,7.63-2.28,14.89-7.12,2.19-11.75,5.71-11.75,9.42s4.66,7.24,11.8,9.43c-1.65,7.27-.92,13.07,2.31,14.92a5.05,5.05,0,0,0,2.57.64c3.15,0,7.27-2.24,11.44-6.13,4.16,3.86,8.28,6.08,11.43,6.08a5.08,5.08,0,0,0,2.59-.64c3.21-1.85,3.93-7.63,2.27-14.89C370.44,32.24,375.07,28.71,375.07,25Zm-14.9-7.64c-.42,1.48-.95,3-1.54,4.52-.47-.91-1-1.83-1.5-2.74s-1.09-1.81-1.65-2.68C357.11,16.71,358.67,17,360.17,17.37Zm-5.24,12.19q-1.33,2.32-2.76,4.37c-1.7.15-3.43.23-5.17.23s-3.46-.08-5.15-.22c-1-1.36-1.88-2.81-2.77-4.35s-1.66-3-2.38-4.55c.71-1.53,1.51-3.07,2.37-4.57s1.81-3,2.76-4.37c1.7-.15,3.43-.23,5.17-.23s3.46.08,5.15.22c1,1.36,1.88,2.82,2.77,4.35s1.66,3,2.38,4.55C356.58,26.53,355.79,28.06,354.93,29.56Zm3.7-1.49c.62,1.54,1.14,3.07,1.58,4.56-1.5.36-3.08.67-4.72.91.56-.88,1.12-1.78,1.65-2.71S358.16,29,358.63,28.07ZM347,40.28a45.68,45.68,0,0,1-3.18-3.66c1,.05,2.08.08,3.15.08s2.14,0,3.18-.08A41.84,41.84,0,0,1,347,40.28Zm-8.51-6.74c-1.63-.24-3.19-.53-4.69-.9.42-1.48.95-3,1.54-4.52.47.91,1,1.83,1.5,2.75S338,32.67,338.51,33.54ZM347,9.73q1.59,1.65,3.18,3.66c-1-.05-2.09-.08-3.15-.08s-2.14,0-3.18.08A43.36,43.36,0,0,1,347,9.73Zm-8.47,6.74c-.56.88-1.12,1.78-1.65,2.71s-1,1.83-1.49,2.75c-.62-1.54-1.14-3.07-1.58-4.56C335.28,17,336.86,16.71,338.5,16.47ZM328.14,30.8c-4.05-1.73-6.67-4-6.67-5.79s2.62-4.08,6.67-5.8c1-.42,2.06-.8,3.17-1.15a55.29,55.29,0,0,0,2.57,7A56.07,56.07,0,0,0,331.34,32C330.21,31.61,329.14,31.22,328.14,30.8Zm6.16,16.35c-1.56-.89-2.23-4.29-1.71-8.66a34.15,34.15,0,0,1,.59-3.37,54.52,54.52,0,0,0,7.26,1.25,56.36,56.36,0,0,0,4.76,5.72c-3.73,3.47-7.23,5.37-9.61,5.37A2.76,2.76,0,0,1,334.3,47.15Zm27.14-8.72c.54,4.37-.12,7.77-1.67,8.67a2.49,2.49,0,0,1-1.31.3c-2.37,0-5.89-1.89-9.62-5.33a53.56,53.56,0,0,0,4.73-5.71,54.51,54.51,0,0,0,7.28-1.26A31.66,31.66,0,0,1,361.44,38.43Zm4.41-7.63c-1,.42-2.06.8-3.17,1.15a53.89,53.89,0,0,0-2.58-7,53,53,0,0,0,2.54-6.93c1.14.35,2.21.74,3.22,1.16,4.05,1.73,6.67,4,6.67,5.8S369.9,29.08,365.85,30.8Z" transform="translate(-0.36)"/><path class="cls-11" d="M335.53.05Z" transform="translate(-0.36)"/><circle class="cls-11" cx="346.63" cy="25.01" r="5.23"/><path class="cls-11" d="M358.39,0Z" transform="translate(-0.36)"/><path class="cls-12" d="M479.29,34.87h5.4l-8.61-22.36h-6l-8.62,22.36h5.4l1.41-3.79h8.14L475,26.89h-5.36l3.48-9.62Zm17.8-16.56a1.3,1.3,0,1,0-2.5.7,22.44,22.44,0,1,1-7.3-11.25A3.26,3.26,0,0,0,487.05,9a3.13,3.13,0,1,0,3.13-3.12,3.32,3.32,0,0,0-1,.14,24.94,24.94,0,1,0,7.87,12.32Z" transform="translate(-0.36)"/><path class="cls-13" d="M421.16,34.92a3.77,3.77,0,0,0-.4-7.51h-.14A3.76,3.76,0,0,0,417,31.3a3.82,3.82,0,0,0,1.08,2.48c-2.28,4.49-5.77,7.77-11,10.52a18.12,18.12,0,0,1-10.93,2.08,9.32,9.32,0,0,1-6.84-4A9.86,9.86,0,0,1,388.79,32a15.55,15.55,0,0,1,4.56-5.36c-.27-.88-.67-2.35-.88-3.42-9.71,7-8.71,16.55-5.76,21,2.21,3.35,6.7,5.43,11.66,5.43a16.23,16.23,0,0,0,4-.47,25.72,25.72,0,0,0,18.77-14.34ZM433,26.61c-5.1-6-12.6-9.25-21.18-9.25H410.7a3.66,3.66,0,0,0-3.28-2h-.13a3.76,3.76,0,0,0,.13,7.51h.13a3.79,3.79,0,0,0,3.29-2.28H412a25.56,25.56,0,0,1,14.28,4.35,18,18,0,0,1,7.1,8.58,9.28,9.28,0,0,1-.13,7.91,9.85,9.85,0,0,1-9.18,5.5,17.21,17.21,0,0,1-6.57-1.41c-.74.67-2.08,1.74-3,2.41A20.76,20.76,0,0,0,423.17,50c6.43,0,11.19-3.55,13-7.1C438.12,39,438,32.31,433,26.61Zm-34,9.45a3.77,3.77,0,0,0,3.75,3.62h.14a3.76,3.76,0,0,0-.14-7.51h-.13a1.08,1.08,0,0,0-.47.07,24.57,24.57,0,0,1-3.49-14.88,18,18,0,0,1,4-10.39c1.94-2.48,5.69-3.69,8.24-3.75,7.11-.14,10.12,8.71,10.32,12.26.87.2,2.35.67,3.35,1C423.64,5.63,416.94,0,410.5,0c-6,0-11.59,4.36-13.8,10.79-3.09,8.58-1.08,16.82,2.68,23.33a2.94,2.94,0,0,0-.47,1.94Z" transform="translate(-0.36)"/><path class="cls-14" d="M193.31,20.89c.07.05.19.08.07.18a2.36,2.36,0,0,0-.26.36c-.06.12-.11.15-.21.06a5.68,5.68,0,0,1,.4-.6Zm33.94,17.72s0,.08,0,.13a1.23,1.23,0,0,1,0-.13Zm0,.15v0Zm-3.44,6.59-2.94-16.3-.24-.08a1,1,0,0,1,.07.17.59.59,0,0,0,.15,0,.06.06,0,0,1,0-.05l2.94,16.3Zm-3-20a.44.44,0,0,0,0,.16.41.41,0,0,1,0-.16Zm0,.34,0,0v0s0,0,0,0Zm0,.14v-.12l-.17,0c.09,0,.17.05.17.08Z" transform="translate(-0.36)"/><path class="cls-15" d="M233.9,21.75c0-.66-.05-1.32-.11-2-.12-.9-.24-1.81-.44-2.69a16.67,16.67,0,0,0-.66-2.11,24.56,24.56,0,0,0-1.05-2.42A37.56,37.56,0,0,0,229.33,9c-.53-.75-1.2-1.36-1.71-2.12a5.35,5.35,0,0,0-1.13-1.15c-.68-.54-1.38-1-2.09-1.5a19.28,19.28,0,0,0-1.66-1c-.45-.26-.94-.46-1.42-.68a7,7,0,0,0-1.67-.67l-.44-.14c-.39-.13-.76-.29-1.15-.41-.59-.18-1.16-.4-1.77-.55a13.75,13.75,0,0,0-1.81-.34c-.67-.1-1.36-.14-2-.2-.43-.06-.86-.1-1.3-.12-.64,0-1.3,0-1.94,0-.32,0-.66,0-1,0a14.61,14.61,0,0,0-1.47.14c-.47,0-.94.13-1.4.2s-1.11.1-1.67.17-1.06.17-1.59.26c-.18,0-.37.1-.56.13a11.25,11.25,0,0,0-1.23.26c-.72.22-1.45.47-2.16.74a18.67,18.67,0,0,0-1.92.9c-.65.35-1.25.77-1.86,1.18s-1.15.8-1.71,1.23-1,.9-1.53,1.37c-.27.27-.49.59-.75.9-.42.49-.84,1-1.25,1.47s-.64.86-1,1.3a23,23,0,0,0-1.52,2.44l-.52,1c-.25.51-.52,1-.76,1.52a7.36,7.36,0,0,0-.41,1.14c-.23.83-.47,1.67-.69,2.5a9.74,9.74,0,0,0-.27,2.28,16.81,16.81,0,0,0,.12,2c0,.17-.08.38.12.51-.07.19,0,.29.08.32-.12.19.05.31,0,.48s0,.1.08.15a.49.49,0,0,0,0,.17,3.29,3.29,0,0,1,.08.47c0,.12.11.25.14.37a.2.2,0,0,1,0,.17c-.11.12-.09.22.06.29a.66.66,0,0,1,0,.42c0,.15,0,.21,0,.24a2.36,2.36,0,0,1,.2.88.55.55,0,0,0,.07.22s0,.32,0,.32a1.15,1.15,0,0,1,.23-.1c.06.22.11.42.17.61s.09.2,0,.22a5.39,5.39,0,0,0,.22.88,5.8,5.8,0,0,0-.08-.95,2.41,2.41,0,0,0,.57.17s0-.12.05-.15-.18-.26-.28-.36a.6.6,0,0,1,0,.24,1.73,1.73,0,0,0-.24-.1,2.75,2.75,0,0,1,.24-.27c0-.16-.09-.29-.32-.27a2.38,2.38,0,0,1,.32-.12c.18-.1,0-.29,0-.53a4.41,4.41,0,0,0-.2-.88c-.09-.47-.07-1.18-.12-1.65-.1-.09-.19.13-.2.15,0,.41.1.81.13,1.22-.1-.34-.17-.71-.25-1.12a1.67,1.67,0,0,0,0,.24c-.08.08,0,.18,0,.3a.56.56,0,0,0-.26,0v.47a3.14,3.14,0,0,1-.3-.42c0-.14-.05-.27-.08-.41a.36.36,0,0,0,0-.18c0-.14,0-.27,0-.41a2.13,2.13,0,0,0,0-.27l.3,0c-.16-.21-.05-.35,0-.49s.15-.08.19-.15c.13-.25.35-.45.35-.78a3.81,3.81,0,0,1,.07-.47c0-.29.07-.57.08-.86a7.9,7.9,0,0,1,.09-1.1c.13-.59.3-1.18.49-1.78.13-.42.29-.82.45-1.25a18.49,18.49,0,0,1,.82-1.94c.45-.92,1-1.79,1.48-2.69.32-.56.66-1.08,1-1.62a16.46,16.46,0,0,1,1.06-1.56,13.46,13.46,0,0,1,1.79-1.91c.67-.61,1.32-1.23,2-1.79a20.25,20.25,0,0,1,3-1.93A22.1,22.1,0,0,1,200.41,3c.57-.22,1.2-.32,1.79-.51a7.17,7.17,0,0,1,2.06-.34c.46,0,.89-.06,1.35-.11l1.25-.12a.41.41,0,0,0-.08.13l-.58.81-.47.68c-.27.36-.56.71-.81,1.08-.39.56-.75,1.14-1.15,1.69s-.84,1.05-1.27,1.58c-.55.72-1.08,1.47-1.63,2.19s-1.05,1.36-1.54,2.05-.83,1.25-1.25,1.88c-.62.93-1.25,1.84-1.87,2.77-.49.71-1,1.41-1.49,2.11,0,.06-.08.07-.13.1a2.08,2.08,0,0,0-.19.44c-.14.26-.27.51-.42.75s-.21.25-.31.39c0-.21.27-.31.14-.56l-.26.39-.2.4c.07.05.19.09.07.19l-.15.27a.58.58,0,0,0,.18-.17,1,1,0,0,1-.18.49,1.47,1.47,0,0,1-.36.34l.15.08c.16-.05.21-.13.23-.08a.59.59,0,0,0,.11-.17.62.62,0,0,1,.34-.37.79.79,0,0,0,.17-.14c.51-.52,1-1,1.48-1.59.71-.86,1.36-1.76,2-2.63.29-.38.63-.75.93-1.1a5.88,5.88,0,0,1,0,1.11c0,.63-.08,1.25-.13,1.89,0,.26,0,.51,0,.77,0,.06,0,.11,0,.18s0,.36,0,.53c0,.62-.12,1.23-.17,1.86a1,1,0,0,0,.08.39c-.08.91.1,1.87-.05,2.84a.76.76,0,0,0,.15-.43,1.71,1.71,0,0,0,0-.32v-.17a4.79,4.79,0,0,0,0-.93,3.2,3.2,0,0,1,0-1c0-.13,0-.3.07-.47v.25a25.4,25.4,0,0,1-.12,2.89c0,.09.05.24-.14.22-.15.31,0,.53-.13.7s0,.18.05.28-.07.21,0,.22c0,.38.05.71.07,1.07a8.63,8.63,0,0,0,.25-2,5.58,5.58,0,0,1,0,.82c0,.45,0,.87,0,1.31a1.09,1.09,0,0,1,0,.25,3.84,3.84,0,0,1-.15.69,1.87,1.87,0,0,0,0,.63v.64c.06.29,0,.44,0,.61s-.07.22-.05.27l.05.26c.34,0,.19.22.32.35a.3.3,0,0,0-.07.26,3.37,3.37,0,0,1,0,.44c0,.38,0,.77,0,1.15,0,.05,0,.1,0,.15s0,.47,0,.47,0,.1,0,.15-.06-2.14-.06-2.14H198a18.06,18.06,0,0,1-.13,2.87,3.87,3.87,0,0,1-.49.05c-.53,0-1,0-1.57,0H194c-.3,0-.62,0-.93,0s-.83,0-1.23,0c-.63,0-1.23,0-1.86.07l-1.37,0c-.3,0-.61,0-.91.07a2.19,2.19,0,0,0-.42.11H187c-.17,0-.32.14-.49.17s-.32.12-.29.38v.16s.37-.05.37-.05-.05.1-.1.19l.31-.12c.25.12.47.05.67.1a13.55,13.55,0,0,0,2,.31c.44,0,.86,0,1.3.06.62,0,1.25.07,1.87.07s1,0,1.56,0c.72,0,1.45,0,2.17,0l.49,0h1.24l3.29-.08,1.89-.07,1.93-.05,2.21,0c.56,0,1.1,0,1.65,0s1.27-.06,1.89-.1c.34,0,.68-.05,1-.08s.83-.09,1.23-.1c.61,0,1.23-.05,1.84-.09s1.52-.12,2.3-.13,1.43,0,2.14,0,1.25,0,1.89-.06l1.07-.06s.71,0,1.06-.05c.61,0,1.22-.1,1.83-.11.38,0,.77,0,1.16,0,.63,0,1.27-.05,1.89-.05.24,0,.49,0,.8.05l-.33.27.21.08a.46.46,0,0,1-.27.09.78.78,0,0,0-.1.29h.3c-.12,0-.22.15-.34.25a.25.25,0,0,0-.32.19c.12.06.1.11.09.18-.21.07-.36.14-.27.36a1.66,1.66,0,0,0-.24.11c-.08.14-.24.17-.2.36l.18.07-.25.11c-.3.19-.17.27-.1.36a.55.55,0,0,1-.15.08c0,.16.08.19.1.19l-.26.2A1.35,1.35,0,0,1,227,39a2.27,2.27,0,0,1-.19.34,6.09,6.09,0,0,1-1.06,1.15,3.15,3.15,0,0,0-.47.43c-.31.28-.58.6-.9.87a14.29,14.29,0,0,1-1.32,1c-.55.39-1.11.77-1.67,1.15-.3.2-.64.36-1,.54l-.95.54a5,5,0,0,1-.6.43c-.56.23-1.15.44-1.73.66s-1,.44-1.38.59a9.63,9.63,0,0,1-1.2.32c-.13,0-.29,0-.44,0s-.57.12-.86.15c-.74.1-1.49.17-2.23.27-.44,0-.86.13-1.3.19s-.62,0-.93,0a5,5,0,0,1-.67,0c-.36-.06-.71-.14-1.07-.21-.08,0-.2,0-.27,0s-.25,0-.39,0-.17,0-.25,0a1.91,1.91,0,0,0-.24,0,1.69,1.69,0,0,0-.56-.11,2.09,2.09,0,0,1-.62-.13l-.89-.2a1.33,1.33,0,0,1-.34-.16,2.84,2.84,0,0,1-1-.11,1.36,1.36,0,0,0-.71-.17c-.06,0-.11,0-.18,0s-.1-.2-.15-.2c-.34,0-.54-.27-.83-.36s-.27-.22-.42-.27c-.38-.15-.68-.47-1.1-.52a2.58,2.58,0,0,1-.42-.14,1.26,1.26,0,0,0,.13.17c-.49-.24-.94-.51-1.4-.76a.52.52,0,0,1-.17-.12l-.45-.3a.49.49,0,0,1-.43-.09c-.45-.32-1-.52-1.41-.88a2.36,2.36,0,0,1-.54-.44,2.68,2.68,0,0,0-.85-.65c-.25-.14-.49-.29-.72-.44a.46.46,0,0,1-.24-.38c0-.11,0-.23-.2-.17-.07-.1-.14-.22-.22-.25a1.67,1.67,0,0,1-.49-.37,1.54,1.54,0,0,0-.46-.39,1.9,1.9,0,0,1-.74-.66c-.47-.56-.9-1.17-1.34-1.76,0,0-.1-.08-.15-.13a3.85,3.85,0,0,0,.24.5.91.91,0,0,1-.39-.3s1.17,2,1.17,2,.18.31.28.46a.51.51,0,0,1-.5-.27c-.16-.27-.32-.44-.66-.41a2.22,2.22,0,0,1-.09-.37l-.23,0c.23.38.44.7.66,1.07l-.17-.1a4,4,0,0,0,.91.93c.08.39.52.57.62.94l-.24,0c-.13-.17-.28-.33-.43-.52a.71.71,0,0,0,.15.3,6.28,6.28,0,0,0,.62.73c.09.09.21.12.21.27a.52.52,0,0,0,.23.09c0,.1,0,.25.19.22.13.25.27.25.45.17.22.22.34.23.49.1,0,.08,0,.17,0,.24s0-.09,0-.17l.17.13a2.63,2.63,0,0,0,.56.64c.32.27.6.56.91.82A12.61,12.61,0,0,0,196.19,46c.81.46,1.58.95,2.41,1.39a13.09,13.09,0,0,0,3.16,1.13l1.2.27c.35.11.71.26,1.06.34.54.12,1.1.22,1.64.32l.37.05c.15,0,.34,0,.37,0s.15.07.26.05a1.54,1.54,0,0,1,.38,0,13.33,13.33,0,0,0,1.41.08c.1,0,.25-.08.33.09a1.44,1.44,0,0,1,.31-.09c0,.15,0,.15,0,.17a.54.54,0,0,0-.16.09,4,4,0,0,0,1.69,0,5.88,5.88,0,0,0,2.37-.29c.06.08.11.2.21,0a.3.3,0,0,1,.19-.08.88.88,0,0,1,.47-.06c.16.06.21-.08.32-.08a3.58,3.58,0,0,0,.58,0c.1,0,.2-.07.32-.1a.81.81,0,0,0-.37-.09l.57-.27s-.07.12-.13.12h.23s-.12.15-.2.25l1.71-.42c-.19-.35.2-.23.33-.44l-.5.14c.57-.29,1.16-.54,1.73-.8a1,1,0,0,1-.33.24l.22,0c.27.09.2-.17.28-.32a1.57,1.57,0,0,0,.61-.1,5.08,5.08,0,0,0,.51-.17c.27-.12.52-.27.79-.4a.67.67,0,0,1,.2,0c.19-.12.26-.22.31-.21a.37.37,0,0,0,.47-.27c.12-.08.2-.15.29-.2l1.09-.61a.6.6,0,0,0,.24,0c.22-.1.42-.21.63-.33l-.17-.09a2.09,2.09,0,0,0,.32-.08,11.28,11.28,0,0,1,1.38-1.17c.19,0,.19-.07.19-.1a1.38,1.38,0,0,1,.22-.26c.37-.33.77-.62,1.11-1a20.16,20.16,0,0,0,1.4-1.52,13.53,13.53,0,0,0,1.15-1.47c.47-.73.88-1.47,1.3-2.23.31-.54.58-1.08.88-1.62a.22.22,0,0,1,.15-.12l1.35-.14a1.08,1.08,0,0,0,.32-.13c-.05-.09-.08-.19-.13-.27S233,35,233,34.94a2.75,2.75,0,0,1-.17-.29l-.15-.24c-.1-.18-.2-.37-.29-.57s0-.13,0-.19c.3-.66.42-1.37.71-2a10.31,10.31,0,0,0,.51-2.16c.11-.69.18-1.39.26-2.08.06-.49.12-1,.14-1.45a14.1,14.1,0,0,0,.05-2.24c0-.64-.05-1.3-.08-1.94ZM191.54,42.56c-.12-.13-.22-.28-.34-.42l.05,0c.19.2.37.41.56.63C191.71,42.66,191.59,42.63,191.54,42.56Zm.27.16.15,0c0,.09.08.19.13.29-.23,0-.35-.12-.28-.25Zm17.56,7v-.05l.94-.1v.05c-.32,0-.62.08-.94.1Zm4.25-.44c-.23.05-.49.08-.72.12s-.19.1-.22-.05a.38.38,0,0,0-.1,0c.08.25.28,0,.45.15l-1.08.14v0l.32,0v-.05a4.07,4.07,0,0,0-.5,0c-.05,0-.12.07-.17.08a.78.78,0,0,1-.22,0c-.29,0-.57,0-.85,0l-.06,0v0l3.37-.45a1,1,0,0,1,0,.1,1.09,1.09,0,0,0-.26,0Zm.26-.17L215,49c-.77.22-1,.25-1.11.13ZM199.17,15c.54-.74,1.1-1.49,1.64-2.25.17-.22.3-.46.47-.68a1.16,1.16,0,0,1,.2-.16v0a2.65,2.65,0,0,0,.17-.22,4.48,4.48,0,0,0,.2-.44.27.27,0,0,1,.07-.06c.23.11.23-.14.32-.22s.3-.36.44-.53A2.86,2.86,0,0,0,203,10s0-.14,0-.21h-.05l.15-.11s0,0,0,0,.2-.31.3-.44a7,7,0,0,1,.66-.78c0,.09-.07.17-.1.24s0,0,0,0c.2-.28.42-.53.63-.8l-.05,0c-.09.08-.16.17-.24.25s0,0-.05,0c.17-.22.34-.44.51-.7l.13.26c.07-.17.14-.29.19-.41l-.17.15,0,0,.3-.45,1-1.39c.12-.17.27-.3.38-.47a17.56,17.56,0,0,1,1.21-1.75c.09-.11.2-.21.3-.32s.16-.06.22,0l1.37,1.74c.34.43.68.83,1,1.27l1.15,1.62c.44.63.87,1.25,1.3,1.9.64.94,1.25,1.89,1.89,2.84.47.69.94,1.37,1.4,2.06h-.86c-.8,0-1.61-.08-2.4,0-1.08,0-2.18.17-3.26.25-1.37.12-2.75.14-4.12.14-.49,0-1,.07-1.47.1s-1.16.07-1.75.09-1.37,0-2.06.06c-.39,0-.8,0-1.22,0Zm19.37,7.78v.15l-.07,0c-.07-.24-.13-.49-.22-.73a5.55,5.55,0,0,0-.66-1.42c-.34-.47-.64-1-1-1.45a3.08,3.08,0,0,0-.3-.33,6.33,6.33,0,0,0-1.17-1.08A14,14,0,0,0,213,16.81a6.54,6.54,0,0,1-.59-.3h.4l2.89-.06c.63,0,1.24,0,1.86-.05a.34.34,0,0,1,.32.19c.15.25.3.51.47.76a.26.26,0,0,1,.05.14c0,.37,0,.76,0,1.13s.05.76.07,1.15,0,.79,0,1.2c0,.57,0,1.17,0,1.76Zm-18.17-5.66c.79,0,1.55-.09,2.33-.12.61,0,1.23-.05,1.84-.09a4.57,4.57,0,0,1,.74,0,6.55,6.55,0,0,0-.78.44c-.3.21-.59.48-.89.7a5.05,5.05,0,0,0-.83.77c-.32.39-.67.73-1,1.1a10.55,10.55,0,0,0-.71.81c-.29.38-.54.78-.81,1.2.08-1.6.18-3.19.12-4.82Zm11,16.26a13.65,13.65,0,0,1-1.66.36,9.94,9.94,0,0,1-1.45.05c-.44,0-.86,0-1.3-.05a4.46,4.46,0,0,1-1.46-.32c-.4-.19-.82-.36-1.23-.56a3.24,3.24,0,0,1-1.11-.81,7,7,0,0,0-.8-.73.8.8,0,0,0,.36.49c-.09.1-.21,0-.37-.22l-.14.07c0-.12.1-.24.15-.34s-.15-.29-.22-.42-.27-.46-.38-.68c0-.05,0-.1-.07-.15a2.34,2.34,0,0,1-.24-.31,5.65,5.65,0,0,0-.42-.62c0,.05,0,.1,0,.17h0l-.35-.86s0,0,0,0l.31,1.12h-.05a1.18,1.18,0,0,1-.14-.22c0-.13-.13-.13-.22-.08a.25.25,0,0,0-.07.2c.12.29.26.58.39.86,0,.1.07.19.12.29s.07.07.07.12.12.27.2.39l.48.61c.15.2.28.42.42.62,0,0,.06,0,.08,0,.08.26.37.44.57.34.06.39.48.52.65.9l-.49-.22s0,0,0,.06c.2.11.41.21.59.32s.34.21.49.33a1.66,1.66,0,0,0,.73.35l0-.07,1.33.64-5.57.11c0-.32,0-.63,0-.95,0-.14,0-.25,0-.39-.06-.78-.06-1.55-.16-2.32a16.18,16.18,0,0,1-.08-2.41c0-.44,0-.9,0-1.34s0-1.17,0-1.76a.8.8,0,0,1,.07-.24h.05s0,.09,0,.11.13.13.17.12.25-.14.28-.24a1.54,1.54,0,0,0,.12-.63.64.64,0,0,1,.13-.35.68.68,0,0,0,.09-.17l-.22-.15c.07-.19.05-.41.31-.51,0,0,0-.1.05-.15s0-.29,0-.43a.52.52,0,0,0,.08.11l0-.06a1.27,1.27,0,0,1,0-.2c.21,0,.12-.25.22-.35s0-.07,0-.11,0-.08,0-.08c.24-.05.21-.3.36-.42a.92.92,0,0,0,.13-.17c.14.23-.1.35-.12.52.29-.17.38-.57.21-.69a1.09,1.09,0,0,0,.18-.19c.19-.2.39-.39.56-.59s.19-.34.3-.49a1.1,1.1,0,0,1,.31-.2,2.1,2.1,0,0,0,.77-.64.71.71,0,0,1,.14-.1s.15,0,.17-.09,0-.12-.07-.17.14-.1.27-.17c0,.1-.07.17-.1.24l.08.08.54-.35s-.08-.08-.08-.08l-.41.2c0-.05,0-.09.06-.1a5.27,5.27,0,0,1,.72-.43c.59-.27,1.18-.54,1.77-.79a.87.87,0,0,1,.36,0H208q.4-.13.81-.24a1.65,1.65,0,0,1,.38-.05c.5,0,1,0,1.51.05a3.2,3.2,0,0,1,.63.13,7.19,7.19,0,0,1,.76.32c.29.16.56.33.83.51.49.32.94.68,1.43,1a3.7,3.7,0,0,1,1.15,1.11,5.32,5.32,0,0,1,1,1.64l.26,1.12a1.24,1.24,0,0,1,.11.64c-.08.42-.15.86-.22,1.29a2.18,2.18,0,0,0,0,.5,3.1,3.1,0,0,1-.37,1.46c-.07.15-.17.3-.25.47L216,28l.16-.3h0c-.09.24-.15.49-.24.73a15.34,15.34,0,0,1-.66,1.57,7,7,0,0,1-.54.8c-.16.23-.3.49-.47.71a2.2,2.2,0,0,1-.51.5,12,12,0,0,1-1.41,1,3.36,3.36,0,0,1-1,.37Zm-9-.9v0a.29.29,0,0,1-.12-.07l-.41-.61a.18.18,0,0,1,0-.16c.19.28.37.55.57.82Zm10.51,2.32a7,7,0,0,0,2-1.3,1.55,1.55,0,0,1,.27-.24,5.93,5.93,0,0,0,1.7-1.72A23.87,23.87,0,0,0,218.17,29a1.62,1.62,0,0,1,.1-.18,36.77,36.77,0,0,0,.44,5.73l-5.81.2ZM230,34.24l-.07.11s0-.09,0-.16c-.1.27-.32.14-.47.14-.92,0-1.84,0-2.76,0H224c-.28,0-.59.07-.88.09l-2.07.06c-.05,0-.1-.08-.19-.15a.78.78,0,0,1-.1.15l-.09-.11a.39.39,0,0,1-.05.13h0a5.46,5.46,0,0,1-.1-.69c0-.51.05-1,.07-1.52,0-.24,0-.46,0-.68l.19.13a.86.86,0,0,1,.1-.16l-.07-.05s.07-.06.07-.07,0-.1,0-.14a2.69,2.69,0,0,0,0-.32.06.06,0,0,0,0,0l.1.51h0c-.07-.12.15-.22,0-.35,0,0,0-.12,0-.17a3.08,3.08,0,0,1-.13-.34.48.48,0,0,1,.12-.05,1.22,1.22,0,0,0-.17-.08c.17-.16.17-.24,0-.41,0,0,.07,0,.07,0a2.32,2.32,0,0,0,0-.46c0-.17.05-.37-.2-.47a.38.38,0,0,0,.06.13l-.1.05c-.22-.2-.08-.47-.13-.78l.28.11c0-.12-.11-.26-.16-.41h-.07V27.14s.11,0,.18,0,0,0,0-.05-.12-.14-.19-.22l0,0a.57.57,0,0,1-.07-.45V25.23c.17.17-.08.39.17.49v-.16h0c0-.26,0-.51,0-.77h0a.24.24,0,0,1,0,.09h0l.1-4a5.22,5.22,0,0,1,.47.64,18.06,18.06,0,0,0,1.37,2c.4.56.77,1.17,1.15,1.74s.89,1.39,1.35,2.08c.34.53.69,1,1,1.56s.66.9,1,1.34l.88,1.16c.34.48.67,1,1,1.41l.54.71a2.12,2.12,0,0,0,.36.32.11.11,0,0,1-.07,0,.7.7,0,0,0,.12.15c.18.1.2.2.1.36Zm.86-4.22V29.9s0,.08,0,.12Zm.58-7.46a.75.75,0,0,1-.14-.12s0,.1,0,.17-.14,0-.14-.08c0,.23.1.47.09.71,0,0,.25,0,.3-.1l.07,0c-.34.25-.26.51-.1.8,0,.06.13.2,0,.33s0,.14,0,.22h.05v0l-.15.06c0-.06-.23-.16-.23-.24v.86c.16.05.16.29.23.41a.61.61,0,0,0,.07-.14l0,0c0,.1,0,.2-.07.3a3.73,3.73,0,0,0-.08.44s0,0,0,.07a5,5,0,0,0-.15,1.33c0,.33,0,.67,0,1a6.51,6.51,0,0,1-.17.88c0,.05-.05.07-.13.1a1.3,1.3,0,0,0,0-.52l-.25-.12a5.66,5.66,0,0,0,.18.83c-.05,0-.25-.14-.27-.14,0,.21,0,.48-.05.7s-.17.32-.18.5.11.17.1.34h.13c0-.33.16-.64.16-1h.05s.06.06,0,.08a2,2,0,0,0-.09.58c0,.1.09.2.05.32a2.15,2.15,0,0,0-.07.35c0-.08,0-.12,0-.17h-.19c0,.1.12.2.11.28l-.07,0L230,30.9c-.44-.65-.88-1.29-1.32-1.95a4.27,4.27,0,0,1-.3-.51,22.41,22.41,0,0,0-1.74-2.58c-.49-.63-.88-1.31-1.33-2L224,22c-.15-.21-.34-.39-.47-.61-.44-.7-.83-1.41-1.27-2.1s-.77-1.13-1.16-1.69c-.14-.19-.27-.39-.41-.59a.27.27,0,0,1,0-.12c0-.37-.07-.74-.09-1.1s0-.68,0-1v-.31c0-.08,0-.15,0-.23l.05-.07c-.49,0-1,0-1.48,0a.81.81,0,0,1-.71-.36,25.36,25.36,0,0,1-1.67-2.33c-.53-.74-1.06-1.47-1.61-2.2s-.88-1.16-1.32-1.76-1-1.35-1.46-2-1.24-1.63-1.86-2.44c-.29-.37-.61-.73-.93-1.12l.62.09.81.05c.61,0,1.22.08,1.83.17s1,.17,1.53.25a21.34,21.34,0,0,1,3.28.85c.63.2,1.23.47,1.84.72a37.13,37.13,0,0,1,3.95,2,3.87,3.87,0,0,1,.95.9c.44.45.88.91,1.3,1.38s.94,1.13,1.42,1.71.86,1,1.28,1.52a4.59,4.59,0,0,1,.35.51,13.06,13.06,0,0,1,.81,1.23,7.78,7.78,0,0,1,.39,1.05c.17.53.34,1,.51,1.56a11.69,11.69,0,0,1,.3,1.2c.07.27,0,.56.14.83s0,.74.1,1.1a.54.54,0,0,0,0,.11c.07.07.12.14,0,.24a.16.16,0,0,0,0,.14l.08-.12s0,.05,0,.06a.74.74,0,0,0,0,.21.27.27,0,0,0,.05.11l.13-.1a6.81,6.81,0,0,1,.17,1.74,4,4,0,0,1-.13,1.66c.05-.18-.07-.35,0-.52Z" transform="translate(-0.36)"/><path class="cls-14" d="M220.67,29.14h0s0,0,0,0Zm2.66,16.7a1.5,1.5,0,0,1-.6.31s0,0,0,0l.57-.36a.61.61,0,0,1,.07.1ZM191.67,22.93c.19-.23.37-.47.58-.71,0,0,.15.05.16.07-.18.24-.44.56-.62.81,0,0-.09-.15-.12-.17Zm-4.79,8.29c-.14-.29-.27-.59-.41-.88l.15-.07a5.85,5.85,0,0,1,.41.88l-.15.07Zm4.3-8.12-.3.48s-.2.06-.22.05.35-.43.45-.58l.07.05Zm30.35,23.44s0,0,0,0a2.38,2.38,0,0,0,.39,0c-.22.16-.36.14-.42,0ZM191.22,23.81a.55.55,0,0,1,.08-.15l.08,0c.07-.12.07-.2.14-.3l-.05,0c-.1.07-.2.16-.3.22a.12.12,0,0,1,0,.09c-.14,0-.19.05-.25.24s-.11.06-.19.13,0,.12-.07.2l0,0a.16.16,0,0,1-.09.05l-.32.29a.8.8,0,0,0,0,.15c.12-.12.32-.34.47-.47l0,0c.07-.11.12-.21.19-.31s0,0,0,.05l-.15.42s-.09.06-.09,0-.12.12-.18.17l-.31.2c-.17.15-.33.29-.52.44s-.24.35-.37.57c.2-.05.25,0,.23.21.24,0,.26-.15.33-.29s0-.1.06-.12.32-.25.49-.39,0-.1,0-.15-.09,0-.14,0c.15-.17.37-.46.52-.65s.17-.11.17-.17.1-.23.24-.3a.18.18,0,0,1-.09-.12Z" transform="translate(-0.36)"/><path class="cls-14" d="M191.55,23.63c-.06.11-.13.21-.2.33l-.1-.05a1,1,0,0,1-.54.8.36.36,0,0,0,.19.05s.08-.11.11-.16l.46-.66.15-.25-.07-.07Zm-5.62,7.42h.27c0-.06.09,0,.09-.11h.05c0,.08,0,.15,0,.23H186s-.08-.12-.07-.13Zm-.13-.78c-.05-.05-.14-.1-.14-.15s0-.15.09-.24l.08.34s0,0,0,.05Zm.42-1.08c.07.17.13.35.2.52l-.13.07c-.07-.17-.16-.35-.22-.52a.26.26,0,0,1,.15-.07Zm37.59,16.16a2.45,2.45,0,0,1,.32-.08,4.71,4.71,0,0,0-.37.3l0,0a1.74,1.74,0,0,1,.1-.19ZM203.05,9.63l.29-.19,0,0-.3.44c0-.12,0-.18,0-.27ZM208,18.18l.49-.22a1.1,1.1,0,0,0,0,.24l-.17,0c-.1,0-.28.16-.37.17s.07-.13.07-.15Zm12.67,14.34c0,.17.35.25,0,.42.05,0,.1.05.15.09a.11.11,0,0,1,0,.07s-.1,0-.14,0a.19.19,0,0,1-.05-.1c0-.16,0-.31,0-.51Z" transform="translate(-0.36)"/></svg>